solid Exported from Blender-2.79 (sub 7)
facet normal 1.000000 0.000000 0.000000
outer loop
vertex 4.000000 0.258825 -0.351934
vertex 4.000000 0.216498 -0.379028
vertex 4.000000 0.254939 -0.429671
endloop
endfacet
facet normal 1.000000 0.000000 0.000000
outer loop
vertex 4.000000 -0.035448 -0.246617
vertex 4.000000 0.008915 -0.249646
vertex 4.000000 -0.008565 -0.185894
endloop
endfacet
facet normal 1.000000 0.000000 0.000000
outer loop
vertex 4.000000 -0.365948 -0.078100
vertex 4.000000 -0.431357 -0.071031
vertex 4.000000 -0.420449 -0.118024
endloop
endfacet
facet normal 1.000000 0.000000 0.000000
outer loop
vertex 4.000000 0.351934 0.258825
vertex 4.000000 0.289602 0.237179
vertex 4.000000 0.318564 0.196781
endloop
endfacet
facet normal 1.000000 0.000000 0.000000
outer loop
vertex 4.000000 0.185894 0.008565
vertex 4.000000 0.177201 -0.057501
vertex 4.000000 0.243941 -0.053066
endloop
endfacet
facet normal 1.000000 0.000000 0.000000
outer loop
vertex 4.000000 -0.351934 -0.258825
vertex 4.000000 -0.379028 -0.216498
vertex 4.000000 -0.429671 -0.254939
endloop
endfacet
facet normal 1.000000 0.000000 0.000000
outer loop
vertex 4.000000 -0.343524 -0.147500
vertex 4.000000 -0.297418 -0.091990
vertex 4.000000 -0.365948 -0.078100
endloop
endfacet
facet normal 1.000000 0.000000 0.000000
outer loop
vertex 4.000000 0.351934 0.258825
vertex 4.000000 0.318564 0.196781
vertex 4.000000 0.379028 0.216498
endloop
endfacet
facet normal 1.000000 0.000000 0.000000
outer loop
vertex 4.000000 0.057501 -0.177201
vertex 4.000000 0.075799 -0.097641
vertex 4.000000 0.037166 -0.118683
endloop
endfacet
facet normal 1.000000 0.000000 0.000000
outer loop
vertex 4.000000 0.053066 -0.243941
vertex 4.000000 0.102707 -0.293647
vertex 4.000000 0.095598 -0.230790
endloop
endfacet
facet normal 1.000000 0.000000 0.000000
outer loop
vertex 4.000000 -0.420449 0.118024
vertex 4.000000 -0.365279 0.082504
vertex 4.000000 -0.343524 0.147500
endloop
endfacet
facet normal 1.000000 0.000000 0.000000
outer loop
vertex 4.000000 0.236951 -0.201842
vertex 4.000000 0.178159 -0.256093
vertex 4.000000 0.236128 -0.290653
endloop
endfacet
facet normal 1.000000 0.000000 0.000000
outer loop
vertex 4.000000 0.113050 -0.050450
vertex 4.000000 0.177201 -0.057501
vertex 4.000000 0.185894 0.008565
endloop
endfacet
facet normal 1.000000 0.000000 0.000000
outer loop
vertex 4.000000 -0.420449 -0.118024
vertex 4.000000 -0.402551 -0.169348
vertex 4.000000 -0.343524 -0.147500
endloop
endfacet
facet normal 1.000000 0.000000 0.000000
outer loop
vertex 4.000000 -0.081057 -0.300504
vertex 4.000000 -0.031065 -0.305600
vertex 4.000000 -0.035448 -0.246617
endloop
endfacet
facet normal 1.000000 0.000000 0.000000
outer loop
vertex 4.000000 -0.027468 -0.435997
vertex 4.000000 -0.071031 -0.431357
vertex 4.000000 -0.082892 -0.492938
endloop
endfacet
facet normal 1.000000 0.000000 0.000000
outer loop
vertex 4.000000 -0.086070 -0.165522
vertex 4.000000 -0.143208 -0.203671
vertex 4.000000 -0.095598 -0.230790
endloop
endfacet
facet normal 1.000000 0.000000 0.000000
outer loop
vertex 4.000000 -0.365279 0.082504
vertex 4.000000 -0.309675 0.035542
vertex 4.000000 -0.293647 0.102707
endloop
endfacet
facet normal 1.000000 0.000000 0.000000
outer loop
vertex 4.000000 -0.246617 -0.035448
vertex 4.000000 -0.230790 -0.095598
vertex 4.000000 -0.165522 -0.086070
endloop
endfacet
facet normal 1.000000 0.000000 0.000000
outer loop
vertex 4.000000 0.201119 0.237674
vertex 4.000000 0.256093 0.178159
vertex 4.000000 0.289602 0.237179
endloop
endfacet
facet normal 1.000000 0.000000 0.000000
outer loop
vertex 4.000000 -0.309873 -0.307770
vertex 4.000000 -0.369871 -0.336235
vertex 4.000000 -0.336235 -0.369871
endloop
endfacet
facet normal 1.000000 0.000000 0.000000
outer loop
vertex 4.000000 0.143208 0.203671
vertex 4.000000 0.131433 0.131958
vertex 4.000000 0.203671 0.143208
endloop
endfacet
facet normal 1.000000 0.000000 0.000000
outer loop
vertex 4.000000 -0.216498 -0.379028
vertex 4.000000 -0.169348 -0.402551
vertex 4.000000 -0.147500 -0.343524
endloop
endfacet
facet normal 1.000000 0.000000 0.000000
outer loop
vertex 4.000000 -0.086070 -0.165522
vertex 4.000000 -0.006633 -0.124066
vertex 4.000000 -0.061799 -0.106518
endloop
endfacet
facet normal 1.000000 0.000000 0.000000
outer loop
vertex 4.000000 -0.118024 0.420449
vertex 4.000000 -0.169348 0.402551
vertex 4.000000 -0.147500 0.343524
endloop
endfacet
facet normal 1.000000 0.000000 0.000000
outer loop
vertex 4.000000 0.065850 -0.431799
vertex 4.000000 0.017996 -0.436462
vertex 4.000000 0.017830 -0.499292
endloop
endfacet
facet normal 1.000000 0.000000 0.000000
outer loop
vertex 4.000000 -0.309873 -0.307770
vertex 4.000000 -0.236128 -0.290653
vertex 4.000000 -0.289602 -0.237179
endloop
endfacet
facet normal 1.000000 0.000000 0.000000
outer loop
vertex 4.000000 0.420449 -0.118024
vertex 4.000000 0.365279 -0.082504
vertex 4.000000 0.343524 -0.147500
endloop
endfacet
facet normal 1.000000 0.000000 0.000000
outer loop
vertex 4.000000 0.310673 -0.017255
vertex 4.000000 0.373631 -0.018162
vertex 4.000000 0.373939 0.026745
endloop
endfacet
facet normal 1.000000 0.000000 0.000000
outer loop
vertex 4.000000 0.309873 0.307770
vertex 4.000000 0.336235 0.369871
vertex 4.000000 0.258825 0.351934
endloop
endfacet
facet normal 1.000000 0.000000 0.000000
outer loop
vertex 4.000000 -0.258825 0.351934
vertex 4.000000 -0.196781 0.318564
vertex 4.000000 -0.216498 0.379028
endloop
endfacet
facet normal 1.000000 0.000000 0.000000
outer loop
vertex 4.000000 -0.075799 0.097641
vertex 4.000000 -0.098390 0.159282
vertex 4.000000 -0.131958 0.131433
endloop
endfacet
facet normal 1.000000 0.000000 0.000000
outer loop
vertex 4.000000 0.008565 0.185894
vertex 4.000000 -0.053066 0.243941
vertex 4.000000 -0.057501 0.177201
endloop
endfacet
facet normal 1.000000 0.000004 0.000000
outer loop
vertex 4.000000 -0.365948 -0.078100
vertex 4.000000 -0.311052 -0.014966
vertex 4.000000 -0.373939 -0.026745
endloop
endfacet
facet normal 1.000000 0.000000 0.000000
outer loop
vertex 4.000000 0.258825 0.351934
vertex 4.000000 0.196781 0.318564
vertex 4.000000 0.236128 0.290653
endloop
endfacet
facet normal 1.000000 0.000000 0.000000
outer loop
vertex 4.000000 -0.258825 0.351934
vertex 4.000000 -0.237179 0.289602
vertex 4.000000 -0.196781 0.318564
endloop
endfacet
facet normal 1.000000 0.000000 0.000000
outer loop
vertex 4.000000 -0.246617 -0.035448
vertex 4.000000 -0.165522 -0.086070
vertex 4.000000 -0.185894 -0.008565
endloop
endfacet
facet normal 1.000000 0.000000 0.000000
outer loop
vertex 4.000000 -0.420449 0.118024
vertex 4.000000 -0.482826 0.129373
vertex 4.000000 -0.492938 0.082892
endloop
endfacet
facet normal 1.000000 0.000000 0.000000
outer loop
vertex 4.000000 -0.017255 0.310673
vertex 4.000000 -0.053066 0.243941
vertex 4.000000 -0.008915 0.249646
endloop
endfacet
facet normal 1.000000 0.000000 0.000000
outer loop
vertex 4.000000 -0.113050 0.050450
vertex 4.000000 -0.177201 0.057501
vertex 4.000000 -0.185894 -0.008565
endloop
endfacet
facet normal 1.000000 0.000000 0.000000
outer loop
vertex 4.000000 0.351934 -0.258825
vertex 4.000000 0.379028 -0.216498
vertex 4.000000 0.318564 -0.196781
endloop
endfacet
facet normal 1.000000 0.000000 0.000000
outer loop
vertex 4.000000 0.420449 -0.118024
vertex 4.000000 0.482826 -0.129373
vertex 4.000000 0.492938 -0.082892
endloop
endfacet
facet normal 1.000000 0.000000 0.000000
outer loop
vertex 4.000000 0.000000 0.000000
vertex 4.000000 -0.059603 0.002487
vertex 4.000000 -0.045804 -0.040344
endloop
endfacet
facet normal 1.000000 0.000000 0.000000
outer loop
vertex 4.000000 0.086070 0.165522
vertex 4.000000 0.028680 0.119484
vertex 4.000000 0.075799 0.097641
endloop
endfacet
facet normal 1.000000 0.000000 0.000000
outer loop
vertex 4.000000 0.351934 0.258825
vertex 4.000000 0.400157 0.299554
vertex 4.000000 0.369871 0.336235
endloop
endfacet
facet normal 1.000000 0.000000 0.000000
outer loop
vertex 4.000000 -0.147500 -0.343524
vertex 4.000000 -0.081057 -0.300504
vertex 4.000000 -0.138899 -0.278231
endloop
endfacet
facet normal 1.000000 0.000000 0.000000
outer loop
vertex 4.000000 -0.057501 0.177201
vertex 4.000000 -0.098390 0.159282
vertex 4.000000 -0.075799 0.097641
endloop
endfacet
facet normal 1.000000 0.000000 0.000000
outer loop
vertex 4.000000 0.037166 -0.118683
vertex 4.000000 -0.008565 -0.185894
vertex 4.000000 0.057501 -0.177201
endloop
endfacet
facet normal 1.000000 0.000000 0.000000
outer loop
vertex 4.000000 -0.351934 0.258825
vertex 4.000000 -0.318564 0.196781
vertex 4.000000 -0.290653 0.236128
endloop
endfacet
facet normal 1.000000 0.000000 0.000000
outer loop
vertex 4.000000 -0.045804 0.040344
vertex 4.000000 -0.037166 0.118683
vertex 4.000000 -0.075799 0.097641
endloop
endfacet
facet normal 1.000000 0.000000 0.000000
outer loop
vertex 4.000000 0.379028 -0.216498
vertex 4.000000 0.343524 -0.147500
vertex 4.000000 0.318564 -0.196781
endloop
endfacet
facet normal 1.000000 0.000000 0.000000
outer loop
vertex 4.000000 0.343524 -0.147500
vertex 4.000000 0.269305 -0.156248
vertex 4.000000 0.318564 -0.196781
endloop
endfacet
facet normal 1.000000 0.000000 0.000000
outer loop
vertex 4.000000 0.102707 -0.293647
vertex 4.000000 0.143401 -0.276521
vertex 4.000000 0.095598 -0.230790
endloop
endfacet
facet normal 1.000000 0.000000 0.000000
outer loop
vertex 4.000000 -0.008565 -0.185894
vertex 4.000000 0.008915 -0.249646
vertex 4.000000 0.053066 -0.243941
endloop
endfacet
facet normal 1.000000 0.000000 0.000000
outer loop
vertex 4.000000 -0.118024 -0.420449
vertex 4.000000 -0.129373 -0.482826
vertex 4.000000 -0.082892 -0.492938
endloop
endfacet
facet normal 1.000000 0.000000 0.000000
outer loop
vertex 4.000000 0.138899 0.278231
vertex 4.000000 0.236128 0.290653
vertex 4.000000 0.196781 0.318564
endloop
endfacet
facet normal 1.000000 0.000000 0.000000
outer loop
vertex 4.000000 0.258825 -0.351934
vertex 4.000000 0.299554 -0.400157
vertex 4.000000 0.336235 -0.369871
endloop
endfacet
facet normal 1.000000 0.000000 0.000000
outer loop
vertex 4.000000 0.365279 -0.082504
vertex 4.000000 0.431799 -0.065850
vertex 4.000000 0.373631 -0.018162
endloop
endfacet
facet normal 1.000000 0.000000 0.000000
outer loop
vertex 4.000000 -0.122547 -0.114126
vertex 4.000000 -0.143208 -0.203671
vertex 4.000000 -0.086070 -0.165522
endloop
endfacet
facet normal 1.000000 0.000000 0.000000
outer loop
vertex 4.000000 -0.351934 -0.258825
vertex 4.000000 -0.400157 -0.299554
vertex 4.000000 -0.369871 -0.336235
endloop
endfacet
facet normal 1.000000 0.000000 0.000000
outer loop
vertex 4.000000 -0.078100 -0.365948
vertex 4.000000 -0.118024 -0.420449
vertex 4.000000 -0.071031 -0.431357
endloop
endfacet
facet normal 1.000000 0.000000 0.000000
outer loop
vertex 4.000000 0.289602 -0.237179
vertex 4.000000 0.236951 -0.201842
vertex 4.000000 0.236128 -0.290653
endloop
endfacet
facet normal 1.000000 0.000000 0.000000
outer loop
vertex 4.000000 0.281839 0.132475
vertex 4.000000 0.318564 0.196781
vertex 4.000000 0.256093 0.178159
endloop
endfacet
facet normal 1.000000 0.000000 0.000000
outer loop
vertex 4.000000 -0.203671 0.143208
vertex 4.000000 -0.159282 0.098390
vertex 4.000000 -0.131958 0.131433
endloop
endfacet
facet normal 1.000000 0.000000 0.000000
outer loop
vertex 4.000000 0.147500 0.343524
vertex 4.000000 0.080105 0.300720
vertex 4.000000 0.138899 0.278231
endloop
endfacet
facet normal 1.000000 0.000000 0.000000
outer loop
vertex 4.000000 0.118024 0.420449
vertex 4.000000 0.078100 0.365948
vertex 4.000000 0.147500 0.343524
endloop
endfacet
facet normal 1.000000 0.000000 0.000000
outer loop
vertex 4.000000 -0.118024 -0.420449
vertex 4.000000 -0.078100 -0.365948
vertex 4.000000 -0.147500 -0.343524
endloop
endfacet
facet normal 1.000000 0.000000 0.000000
outer loop
vertex 4.000000 0.118024 -0.420449
vertex 4.000000 0.065850 -0.431799
vertex 4.000000 0.082892 -0.492938
endloop
endfacet
facet normal 1.000000 0.000000 0.000000
outer loop
vertex 4.000000 0.420449 0.118024
vertex 4.000000 0.343524 0.147500
vertex 4.000000 0.365948 0.078100
endloop
endfacet
facet normal 1.000000 0.000000 0.000000
outer loop
vertex 4.000000 -0.243941 0.053066
vertex 4.000000 -0.309675 0.035542
vertex 4.000000 -0.249646 0.008915
endloop
endfacet
facet normal 1.000000 0.000000 0.000000
outer loop
vertex 4.000000 0.258825 -0.351934
vertex 4.000000 0.236128 -0.290653
vertex 4.000000 0.196781 -0.318564
endloop
endfacet
facet normal 1.000000 -0.000011 0.000000
outer loop
vertex 4.000000 0.373631 -0.018162
vertex 4.000000 0.435997 0.027468
vertex 4.000000 0.373939 0.026745
endloop
endfacet
facet normal 1.000000 0.000000 0.000000
outer loop
vertex 4.000000 -0.351934 -0.258825
vertex 4.000000 -0.289602 -0.237179
vertex 4.000000 -0.318564 -0.196781
endloop
endfacet
facet normal 1.000000 0.000000 0.000000
outer loop
vertex 4.000000 -0.082504 0.365279
vertex 4.000000 -0.017255 0.310673
vertex 4.000000 -0.018162 0.373631
endloop
endfacet
facet normal 1.000000 0.000000 0.000000
outer loop
vertex 4.000000 -0.435997 -0.027468
vertex 4.000000 -0.436462 0.017996
vertex 4.000000 -0.499292 0.017830
endloop
endfacet
facet normal 1.000000 0.000000 0.000000
outer loop
vertex 4.000000 0.185894 0.008565
vertex 4.000000 0.243941 -0.053066
vertex 4.000000 0.249646 -0.008915
endloop
endfacet
facet normal 1.000000 0.000000 0.000000
outer loop
vertex 4.000000 -0.256093 -0.178159
vertex 4.000000 -0.318564 -0.196781
vertex 4.000000 -0.289602 -0.237179
endloop
endfacet
facet normal 1.000000 0.000000 0.000000
outer loop
vertex 4.000000 -0.246617 -0.035448
vertex 4.000000 -0.249646 0.008915
vertex 4.000000 -0.311052 -0.014966
endloop
endfacet
facet normal 1.000000 0.000000 0.000000
outer loop
vertex 4.000000 0.057501 -0.177201
vertex 4.000000 0.143208 -0.203671
vertex 4.000000 0.098390 -0.159282
endloop
endfacet
facet normal 1.000000 0.000004 0.000000
outer loop
vertex 4.000000 -0.365279 0.082504
vertex 4.000000 -0.373631 0.018162
vertex 4.000000 -0.309675 0.035542
endloop
endfacet
facet normal 1.000000 0.000000 0.000000
outer loop
vertex 4.000000 -0.258825 0.351934
vertex 4.000000 -0.216498 0.379028
vertex 4.000000 -0.254939 0.429671
endloop
endfacet
facet normal 1.000000 0.000000 0.000000
outer loop
vertex 4.000000 -0.351934 -0.258825
vertex 4.000000 -0.318564 -0.196781
vertex 4.000000 -0.379028 -0.216498
endloop
endfacet
facet normal 1.000000 0.000000 0.000000
outer loop
vertex 4.000000 -0.269305 0.156248
vertex 4.000000 -0.290653 0.236128
vertex 4.000000 -0.318564 0.196781
endloop
endfacet
facet normal 1.000000 0.000000 0.000000
outer loop
vertex 4.000000 -0.243941 0.053066
vertex 4.000000 -0.230790 0.095598
vertex 4.000000 -0.293647 0.102707
endloop
endfacet
facet normal 1.000000 0.000000 0.000000
outer loop
vertex 4.000000 -0.365279 0.082504
vertex 4.000000 -0.431799 0.065850
vertex 4.000000 -0.373631 0.018162
endloop
endfacet
facet normal 1.000000 0.000000 0.000000
outer loop
vertex 4.000000 0.045804 0.040344
vertex 4.000000 -0.002487 0.059603
vertex 4.000000 0.000000 0.000000
endloop
endfacet
facet normal 1.000000 0.000000 0.000000
outer loop
vertex 4.000000 -0.237674 0.201119
vertex 4.000000 -0.178159 0.256093
vertex 4.000000 -0.237179 0.289602
endloop
endfacet
facet normal 1.000000 0.000000 0.000000
outer loop
vertex 4.000000 -0.351934 0.258825
vertex 4.000000 -0.379028 0.216498
vertex 4.000000 -0.318564 0.196781
endloop
endfacet
facet normal 1.000000 0.000000 0.000000
outer loop
vertex 4.000000 0.420449 -0.118024
vertex 4.000000 0.492938 -0.082892
vertex 4.000000 0.431799 -0.065850
endloop
endfacet
facet normal 1.000000 0.000000 0.000000
outer loop
vertex 4.000000 -0.018162 0.373631
vertex 4.000000 0.026745 0.373939
vertex 4.000000 0.027468 0.435997
endloop
endfacet
facet normal 1.000000 0.000000 0.000000
outer loop
vertex 4.000000 -0.031065 -0.305600
vertex 4.000000 0.018927 -0.310695
vertex 4.000000 -0.035448 -0.246617
endloop
endfacet
facet normal 1.000000 0.000000 0.000000
outer loop
vertex 4.000000 0.289602 0.237179
vertex 4.000000 0.351934 0.258825
vertex 4.000000 0.309873 0.307770
endloop
endfacet
facet normal 1.000000 0.000000 0.000000
outer loop
vertex 4.000000 0.113050 -0.050450
vertex 4.000000 0.040344 -0.045804
vertex 4.000000 0.075799 -0.097641
endloop
endfacet
facet normal 1.000000 0.000000 0.000000
outer loop
vertex 4.000000 0.420449 -0.118024
vertex 4.000000 0.343524 -0.147500
vertex 4.000000 0.402551 -0.169348
endloop
endfacet
facet normal 1.000000 0.000000 0.000000
outer loop
vertex 4.000000 0.118024 0.420449
vertex 4.000000 0.169348 0.402551
vertex 4.000000 0.191195 0.461579
endloop
endfacet
facet normal 1.000000 0.000000 0.000000
outer loop
vertex 4.000000 -0.216498 -0.379028
vertex 4.000000 -0.147500 -0.343524
vertex 4.000000 -0.196781 -0.318564
endloop
endfacet
facet normal 1.000000 0.000000 0.000000
outer loop
vertex 4.000000 -0.118024 0.420449
vertex 4.000000 -0.147500 0.343524
vertex 4.000000 -0.082504 0.365279
endloop
endfacet
facet normal 1.000000 0.000000 0.000000
outer loop
vertex 4.000000 -0.082504 0.365279
vertex 4.000000 -0.018162 0.373631
vertex 4.000000 -0.065850 0.431799
endloop
endfacet
facet normal 1.000000 0.000000 0.000000
outer loop
vertex 4.000000 0.309873 0.307770
vertex 4.000000 0.236128 0.290653
vertex 4.000000 0.289602 0.237179
endloop
endfacet
facet normal 1.000000 0.000000 0.000000
outer loop
vertex 4.000000 -0.147500 -0.343524
vertex 4.000000 -0.078100 -0.365948
vertex 4.000000 -0.081057 -0.300504
endloop
endfacet
facet normal 1.000000 0.000000 0.000000
outer loop
vertex 4.000000 -0.057501 0.177201
vertex 4.000000 -0.075799 0.097641
vertex 4.000000 -0.037166 0.118683
endloop
endfacet
facet normal 1.000000 0.000000 0.000000
outer loop
vertex 4.000000 -0.243941 0.053066
vertex 4.000000 -0.177201 0.057501
vertex 4.000000 -0.230790 0.095598
endloop
endfacet
facet normal 1.000000 0.000000 0.000000
outer loop
vertex 4.000000 -0.343524 0.147500
vertex 4.000000 -0.365279 0.082504
vertex 4.000000 -0.293647 0.102707
endloop
endfacet
facet normal 1.000000 0.000000 0.000000
outer loop
vertex 4.000000 -0.035448 -0.246617
vertex 4.000000 -0.095598 -0.230790
vertex 4.000000 -0.081057 -0.300504
endloop
endfacet
facet normal 1.000000 0.000000 0.000000
outer loop
vertex 4.000000 -0.138899 -0.278231
vertex 4.000000 -0.201119 -0.237674
vertex 4.000000 -0.236128 -0.290653
endloop
endfacet
facet normal 1.000000 0.000000 0.000000
outer loop
vertex 4.000000 0.082504 -0.365279
vertex 4.000000 0.018162 -0.373631
vertex 4.000000 0.065850 -0.431799
endloop
endfacet
facet normal 1.000000 0.000000 0.000000
outer loop
vertex 4.000000 0.147500 0.343524
vertex 4.000000 0.078100 0.365948
vertex 4.000000 0.080105 0.300720
endloop
endfacet
facet normal 1.000000 0.000000 0.000000
outer loop
vertex 4.000000 -0.351934 -0.258825
vertex 4.000000 -0.369871 -0.336235
vertex 4.000000 -0.309873 -0.307770
endloop
endfacet
facet normal 1.000000 0.000000 0.000000
outer loop
vertex 4.000000 0.143208 0.203671
vertex 4.000000 0.086070 0.165522
vertex 4.000000 0.131433 0.131958
endloop
endfacet
facet normal 1.000000 0.000000 0.000000
outer loop
vertex 4.000000 0.203671 -0.143208
vertex 4.000000 0.143208 -0.203671
vertex 4.000000 0.236951 -0.201842
endloop
endfacet
facet normal 1.000000 0.000000 0.000000
outer loop
vertex 4.000000 0.118024 0.420449
vertex 4.000000 0.129373 0.482826
vertex 4.000000 0.082892 0.492938
endloop
endfacet
facet normal 1.000000 0.000000 0.000000
outer loop
vertex 4.000000 0.082504 -0.365279
vertex 4.000000 0.018927 -0.310695
vertex 4.000000 0.018162 -0.373631
endloop
endfacet
facet normal 1.000000 0.000000 0.000000
outer loop
vertex 4.000000 -0.307770 0.309873
vertex 4.000000 -0.290653 0.236128
vertex 4.000000 -0.237179 0.289602
endloop
endfacet
facet normal 1.000000 0.000000 0.000000
outer loop
vertex 4.000000 -0.118024 0.420449
vertex 4.000000 -0.082892 0.492938
vertex 4.000000 -0.129373 0.482826
endloop
endfacet
facet normal 1.000000 0.000000 0.000000
outer loop
vertex 4.000000 -0.379028 0.216498
vertex 4.000000 -0.402551 0.169348
vertex 4.000000 -0.343524 0.147500
endloop
endfacet
facet normal 1.000000 0.000000 0.000000
outer loop
vertex 4.000000 -0.053066 0.243941
vertex 4.000000 -0.064880 0.305242
vertex 4.000000 -0.126166 0.284164
endloop
endfacet
facet normal 1.000000 0.000000 0.000000
outer loop
vertex 4.000000 -0.037166 0.118683
vertex 4.000000 -0.002487 0.059603
vertex 4.000000 0.028680 0.119484
endloop
endfacet
facet normal 1.000000 0.000000 0.000000
outer loop
vertex 4.000000 0.203671 0.143208
vertex 4.000000 0.256093 0.178159
vertex 4.000000 0.201119 0.237674
endloop
endfacet
facet normal 1.000000 0.000000 0.000000
outer loop
vertex 4.000000 -0.311052 -0.014966
vertex 4.000000 -0.297418 -0.091990
vertex 4.000000 -0.246617 -0.035448
endloop
endfacet
facet normal 1.000000 0.000000 0.000000
outer loop
vertex 4.000000 0.113050 -0.050450
vertex 4.000000 0.113451 0.046207
vertex 4.000000 0.059603 -0.002487
endloop
endfacet
facet normal 1.000000 0.000000 0.000000
outer loop
vertex 4.000000 0.435997 0.027468
vertex 4.000000 0.498585 0.035659
vertex 4.000000 0.492938 0.082892
endloop
endfacet
facet normal 1.000000 0.000000 0.000000
outer loop
vertex 4.000000 -0.379028 -0.216498
vertex 4.000000 -0.343524 -0.147500
vertex 4.000000 -0.402551 -0.169348
endloop
endfacet
facet normal 1.000000 0.000000 0.000000
outer loop
vertex 4.000000 0.086070 0.165522
vertex 4.000000 0.143208 0.203671
vertex 4.000000 0.095598 0.230790
endloop
endfacet
facet normal 1.000000 0.000000 0.000000
outer loop
vertex 4.000000 0.216498 -0.379028
vertex 4.000000 0.169348 -0.402551
vertex 4.000000 0.191195 -0.461579
endloop
endfacet
facet normal 1.000000 0.000000 0.000000
outer loop
vertex 4.000000 0.002487 -0.059603
vertex 4.000000 0.037166 -0.118683
vertex 4.000000 0.040344 -0.045804
endloop
endfacet
facet normal 1.000000 0.000000 0.000000
outer loop
vertex 4.000000 0.000000 0.000000
vertex 4.000000 0.059603 -0.002487
vertex 4.000000 0.045804 0.040344
endloop
endfacet
facet normal 1.000000 0.000000 0.000000
outer loop
vertex 4.000000 -0.143208 0.203671
vertex 4.000000 -0.131958 0.131433
vertex 4.000000 -0.098390 0.159282
endloop
endfacet
facet normal 1.000000 0.000000 0.000000
outer loop
vertex 4.000000 0.059603 -0.002487
vertex 4.000000 0.000000 0.000000
vertex 4.000000 0.040344 -0.045804
endloop
endfacet
facet normal 1.000000 0.000000 0.000000
outer loop
vertex 4.000000 -0.143208 -0.203671
vertex 4.000000 -0.201119 -0.237674
vertex 4.000000 -0.138899 -0.278231
endloop
endfacet
facet normal 1.000000 0.000000 0.000000
outer loop
vertex 4.000000 0.281839 0.132475
vertex 4.000000 0.203671 0.143208
vertex 4.000000 0.230790 0.095598
endloop
endfacet
facet normal 1.000000 0.000000 0.000000
outer loop
vertex 4.000000 -0.002487 0.059603
vertex 4.000000 -0.037166 0.118683
vertex 4.000000 -0.045804 0.040344
endloop
endfacet
facet normal 1.000000 0.000000 0.000000
outer loop
vertex 4.000000 -0.365948 -0.078100
vertex 4.000000 -0.297418 -0.091990
vertex 4.000000 -0.311052 -0.014966
endloop
endfacet
facet normal 1.000000 0.000000 0.000000
outer loop
vertex 4.000000 -0.178159 0.256093
vertex 4.000000 -0.196781 0.318564
vertex 4.000000 -0.237179 0.289602
endloop
endfacet
facet normal 1.000000 0.000005 0.000000
outer loop
vertex 4.000000 -0.311052 -0.014966
vertex 4.000000 -0.249646 0.008915
vertex 4.000000 -0.309675 0.035542
endloop
endfacet
facet normal 1.000000 0.000000 0.000000
outer loop
vertex 4.000000 0.138899 0.278231
vertex 4.000000 0.095598 0.230790
vertex 4.000000 0.143208 0.203671
endloop
endfacet
facet normal 1.000000 0.000000 0.000000
outer loop
vertex 4.000000 0.138899 0.278231
vertex 4.000000 0.201119 0.237674
vertex 4.000000 0.236128 0.290653
endloop
endfacet
facet normal 1.000000 0.000000 0.000000
outer loop
vertex 4.000000 0.113050 -0.050450
vertex 4.000000 0.185894 0.008565
vertex 4.000000 0.113451 0.046207
endloop
endfacet
facet normal 1.000000 -0.000009 0.000000
outer loop
vertex 4.000000 -0.165522 -0.086070
vertex 4.000000 -0.124066 -0.006633
vertex 4.000000 -0.185894 -0.008565
endloop
endfacet
facet normal 1.000000 0.000000 0.000000
outer loop
vertex 4.000000 0.086070 0.165522
vertex 4.000000 0.008565 0.185894
vertex 4.000000 0.028680 0.119484
endloop
endfacet
facet normal 1.000000 0.000000 0.000000
outer loop
vertex 4.000000 0.143208 -0.203671
vertex 4.000000 0.131433 -0.131958
vertex 4.000000 0.098390 -0.159282
endloop
endfacet
facet normal 1.000000 0.000000 0.000000
outer loop
vertex 4.000000 -0.216498 0.379028
vertex 4.000000 -0.196781 0.318564
vertex 4.000000 -0.147500 0.343524
endloop
endfacet
facet normal 1.000000 0.000000 0.000000
outer loop
vertex 4.000000 -0.290653 0.236128
vertex 4.000000 -0.237674 0.201119
vertex 4.000000 -0.237179 0.289602
endloop
endfacet
facet normal 1.000000 0.000000 0.000000
outer loop
vertex 4.000000 0.379028 0.216498
vertex 4.000000 0.318564 0.196781
vertex 4.000000 0.343524 0.147500
endloop
endfacet
facet normal 1.000000 0.000000 0.000000
outer loop
vertex 4.000000 -0.258825 -0.351934
vertex 4.000000 -0.216498 -0.379028
vertex 4.000000 -0.196781 -0.318564
endloop
endfacet
facet normal 1.000000 0.000000 0.000000
outer loop
vertex 4.000000 -0.258825 0.351934
vertex 4.000000 -0.299554 0.400157
vertex 4.000000 -0.336235 0.369871
endloop
endfacet
facet normal 1.000000 0.000000 0.000000
outer loop
vertex 4.000000 -0.379028 -0.216498
vertex 4.000000 -0.318564 -0.196781
vertex 4.000000 -0.343524 -0.147500
endloop
endfacet
facet normal 1.000000 0.000000 0.000000
outer loop
vertex 4.000000 -0.185894 -0.008565
vertex 4.000000 -0.177201 0.057501
vertex 4.000000 -0.243941 0.053066
endloop
endfacet
facet normal 1.000000 0.000000 0.000000
outer loop
vertex 4.000000 -0.138899 -0.278231
vertex 4.000000 -0.236128 -0.290653
vertex 4.000000 -0.196781 -0.318564
endloop
endfacet
facet normal 1.000000 0.000000 0.000000
outer loop
vertex 4.000000 0.216498 -0.379028
vertex 4.000000 0.196781 -0.318564
vertex 4.000000 0.147500 -0.343524
endloop
endfacet
facet normal 1.000000 0.000000 0.000000
outer loop
vertex 4.000000 0.078100 0.365948
vertex 4.000000 0.026745 0.373939
vertex 4.000000 0.080105 0.300720
endloop
endfacet
facet normal 1.000000 0.000000 0.000000
outer loop
vertex 4.000000 0.027468 0.435997
vertex 4.000000 0.035659 0.498585
vertex 4.000000 -0.017830 0.499292
endloop
endfacet
facet normal 1.000000 0.000000 0.000000
outer loop
vertex 4.000000 -0.297418 -0.091990
vertex 4.000000 -0.276521 -0.143401
vertex 4.000000 -0.230790 -0.095598
endloop
endfacet
facet normal 1.000000 0.000000 0.000000
outer loop
vertex 4.000000 -0.027468 -0.435997
vertex 4.000000 -0.035659 -0.498585
vertex 4.000000 0.017830 -0.499292
endloop
endfacet
facet normal 1.000000 0.000000 0.000000
outer loop
vertex 4.000000 -0.420449 -0.118024
vertex 4.000000 -0.482826 -0.129373
vertex 4.000000 -0.461579 -0.191195
endloop
endfacet
facet normal 1.000000 0.000000 0.000000
outer loop
vertex 4.000000 0.118024 -0.420449
vertex 4.000000 0.129373 -0.482826
vertex 4.000000 0.191195 -0.461579
endloop
endfacet
facet normal 1.000000 0.000000 0.000000
outer loop
vertex 4.000000 0.269305 -0.156248
vertex 4.000000 0.291806 -0.108931
vertex 4.000000 0.230790 -0.095598
endloop
endfacet
facet normal 1.000000 0.000000 0.000000
outer loop
vertex 4.000000 -0.118024 0.420449
vertex 4.000000 -0.129373 0.482826
vertex 4.000000 -0.191195 0.461579
endloop
endfacet
facet normal 1.000000 0.000000 0.000000
outer loop
vertex 4.000000 -0.373631 0.018162
vertex 4.000000 -0.431799 0.065850
vertex 4.000000 -0.436462 0.017996
endloop
endfacet
facet normal 1.000000 0.000000 0.000000
outer loop
vertex 4.000000 0.420449 0.118024
vertex 4.000000 0.482826 0.129373
vertex 4.000000 0.461579 0.191195
endloop
endfacet
facet normal 1.000000 0.000000 0.000000
outer loop
vertex 4.000000 0.309873 0.307770
vertex 4.000000 0.258825 0.351934
vertex 4.000000 0.236128 0.290653
endloop
endfacet
facet normal 1.000000 0.000000 0.000000
outer loop
vertex 4.000000 -0.035448 -0.246617
vertex 4.000000 -0.086070 -0.165522
vertex 4.000000 -0.095598 -0.230790
endloop
endfacet
facet normal 1.000000 0.000000 0.000000
outer loop
vertex 4.000000 -0.258825 -0.351934
vertex 4.000000 -0.299554 -0.400157
vertex 4.000000 -0.254939 -0.429671
endloop
endfacet
facet normal 1.000000 0.000000 0.000000
outer loop
vertex 4.000000 0.246617 0.035448
vertex 4.000000 0.165522 0.086070
vertex 4.000000 0.185894 0.008565
endloop
endfacet
facet normal 1.000000 0.000000 0.000000
outer loop
vertex 4.000000 0.258825 0.351934
vertex 4.000000 0.299554 0.400157
vertex 4.000000 0.254939 0.429671
endloop
endfacet
facet normal 1.000000 0.000000 0.000000
outer loop
vertex 4.000000 -0.307770 0.309873
vertex 4.000000 -0.336235 0.369871
vertex 4.000000 -0.369871 0.336235
endloop
endfacet
facet normal 1.000000 0.000000 0.000000
outer loop
vertex 4.000000 -0.351934 0.258825
vertex 4.000000 -0.400157 0.299554
vertex 4.000000 -0.429671 0.254939
endloop
endfacet
facet normal 1.000000 0.000000 0.000000
outer loop
vertex 4.000000 0.035448 0.246617
vertex 4.000000 0.086070 0.165522
vertex 4.000000 0.095598 0.230790
endloop
endfacet
facet normal 1.000000 0.000000 0.000000
outer loop
vertex 4.000000 0.309873 -0.307770
vertex 4.000000 0.258825 -0.351934
vertex 4.000000 0.336235 -0.369871
endloop
endfacet
facet normal 1.000000 0.000000 0.000000
outer loop
vertex 4.000000 0.351934 -0.258825
vertex 4.000000 0.400157 -0.299554
vertex 4.000000 0.429671 -0.254939
endloop
endfacet
facet normal 1.000000 0.000000 0.000000
outer loop
vertex 4.000000 -0.045804 -0.040344
vertex 4.000000 0.002487 -0.059603
vertex 4.000000 0.000000 0.000000
endloop
endfacet
facet normal 1.000000 0.000000 0.000000
outer loop
vertex 4.000000 -0.165522 -0.086070
vertex 4.000000 -0.122547 -0.114126
vertex 4.000000 -0.111406 -0.055767
endloop
endfacet
facet normal 1.000000 0.000000 0.000000
outer loop
vertex 4.000000 -0.126166 0.284164
vertex 4.000000 -0.064880 0.305242
vertex 4.000000 -0.082504 0.365279
endloop
endfacet
facet normal 1.000000 0.000000 0.000000
outer loop
vertex 4.000000 0.143401 -0.276521
vertex 4.000000 0.143208 -0.203671
vertex 4.000000 0.095598 -0.230790
endloop
endfacet
facet normal 1.000000 0.000000 0.000000
outer loop
vertex 4.000000 0.178159 -0.256093
vertex 4.000000 0.143401 -0.276521
vertex 4.000000 0.196781 -0.318564
endloop
endfacet
facet normal 1.000000 0.000000 0.000000
outer loop
vertex 4.000000 -0.276521 -0.143401
vertex 4.000000 -0.203671 -0.143208
vertex 4.000000 -0.230790 -0.095598
endloop
endfacet
facet normal 1.000000 0.000000 0.000000
outer loop
vertex 4.000000 0.075799 0.097641
vertex 4.000000 0.165522 0.086070
vertex 4.000000 0.131433 0.131958
endloop
endfacet
facet normal 1.000000 0.000000 0.000000
outer loop
vertex 4.000000 -0.035448 -0.246617
vertex 4.000000 0.018927 -0.310695
vertex 4.000000 0.008915 -0.249646
endloop
endfacet
facet normal 1.000000 0.000000 0.000000
outer loop
vertex 4.000000 -0.126166 0.284164
vertex 4.000000 -0.143208 0.203671
vertex 4.000000 -0.095598 0.230790
endloop
endfacet
facet normal 1.000000 0.000000 0.000000
outer loop
vertex 4.000000 -0.203671 0.143208
vertex 4.000000 -0.237674 0.201119
vertex 4.000000 -0.269305 0.156248
endloop
endfacet
facet normal 1.000000 0.000000 0.000000
outer loop
vertex 4.000000 0.216498 -0.379028
vertex 4.000000 0.147500 -0.343524
vertex 4.000000 0.169348 -0.402551
endloop
endfacet
facet normal 1.000000 0.000000 0.000000
outer loop
vertex 4.000000 0.165522 0.086070
vertex 4.000000 0.230790 0.095598
vertex 4.000000 0.203671 0.143208
endloop
endfacet
facet normal 1.000000 0.000000 0.000000
outer loop
vertex 4.000000 0.027468 0.435997
vertex 4.000000 -0.017830 0.499292
vertex 4.000000 -0.017996 0.436462
endloop
endfacet
facet normal 1.000000 0.000000 0.000000
outer loop
vertex 4.000000 0.435997 0.027468
vertex 4.000000 0.436462 -0.017996
vertex 4.000000 0.499292 -0.017830
endloop
endfacet
facet normal 1.000000 0.000000 0.000000
outer loop
vertex 4.000000 -0.165522 -0.086070
vertex 4.000000 -0.230790 -0.095598
vertex 4.000000 -0.203671 -0.143208
endloop
endfacet
facet normal 1.000000 0.000000 0.000000
outer loop
vertex 4.000000 0.177201 -0.057501
vertex 4.000000 0.203671 -0.143208
vertex 4.000000 0.230790 -0.095598
endloop
endfacet
facet normal 1.000000 -0.000010 0.000000
outer loop
vertex 4.000000 -0.373631 0.018162
vertex 4.000000 -0.436462 0.017996
vertex 4.000000 -0.435997 -0.027468
endloop
endfacet
facet normal 1.000000 0.000000 0.000000
outer loop
vertex 4.000000 0.065850 -0.431799
vertex 4.000000 0.017830 -0.499292
vertex 4.000000 0.082892 -0.492938
endloop
endfacet
facet normal 1.000000 0.000000 0.000000
outer loop
vertex 4.000000 -0.185894 -0.008565
vertex 4.000000 -0.243941 0.053066
vertex 4.000000 -0.249646 0.008915
endloop
endfacet
facet normal 1.000000 0.000000 0.000000
outer loop
vertex 4.000000 -0.078100 -0.365948
vertex 4.000000 -0.027468 -0.435997
vertex 4.000000 -0.026745 -0.373939
endloop
endfacet
facet normal 1.000000 0.000000 0.000000
outer loop
vertex 4.000000 -0.017255 0.310673
vertex 4.000000 -0.064880 0.305242
vertex 4.000000 -0.053066 0.243941
endloop
endfacet
facet normal 1.000000 0.000000 0.000000
outer loop
vertex 4.000000 0.118024 -0.420449
vertex 4.000000 0.147500 -0.343524
vertex 4.000000 0.082504 -0.365279
endloop
endfacet
facet normal 1.000000 0.000000 0.000000
outer loop
vertex 4.000000 0.310673 -0.017255
vertex 4.000000 0.243941 -0.053066
vertex 4.000000 0.305242 -0.064880
endloop
endfacet
facet normal 1.000000 0.000000 0.000000
outer loop
vertex 4.000000 -0.343524 -0.147500
vertex 4.000000 -0.318564 -0.196781
vertex 4.000000 -0.276521 -0.143401
endloop
endfacet
facet normal 1.000000 0.000000 0.000000
outer loop
vertex 4.000000 -0.420449 0.118024
vertex 4.000000 -0.343524 0.147500
vertex 4.000000 -0.402551 0.169348
endloop
endfacet
facet normal 1.000000 0.000000 0.000000
outer loop
vertex 4.000000 -0.065850 0.431799
vertex 4.000000 -0.017830 0.499292
vertex 4.000000 -0.082892 0.492938
endloop
endfacet
facet normal 1.000000 0.000000 0.000000
outer loop
vertex 4.000000 -0.113050 0.050450
vertex 4.000000 -0.124066 -0.006633
vertex 4.000000 -0.059603 0.002487
endloop
endfacet
facet normal 1.000000 0.000000 0.000000
outer loop
vertex 4.000000 0.203671 -0.143208
vertex 4.000000 0.131433 -0.131958
vertex 4.000000 0.143208 -0.203671
endloop
endfacet
facet normal 1.000000 0.000000 0.000000
outer loop
vertex 4.000000 -0.293647 0.102707
vertex 4.000000 -0.309675 0.035542
vertex 4.000000 -0.243941 0.053066
endloop
endfacet
facet normal 1.000000 0.000000 0.000000
outer loop
vertex 4.000000 0.082504 -0.365279
vertex 4.000000 0.102707 -0.293647
vertex 4.000000 0.018927 -0.310695
endloop
endfacet
facet normal 1.000000 0.000000 0.000000
outer loop
vertex 4.000000 0.059603 -0.002487
vertex 4.000000 0.040344 -0.045804
vertex 4.000000 0.113050 -0.050450
endloop
endfacet
facet normal 1.000000 0.000000 0.000000
outer loop
vertex 4.000000 -0.379028 -0.216498
vertex 4.000000 -0.402551 -0.169348
vertex 4.000000 -0.461579 -0.191195
endloop
endfacet
facet normal 1.000000 0.000000 0.000000
outer loop
vertex 4.000000 0.078100 0.365948
vertex 4.000000 0.027468 0.435997
vertex 4.000000 0.026745 0.373939
endloop
endfacet
facet normal 1.000000 0.000000 0.000000
outer loop
vertex 4.000000 0.203671 -0.143208
vertex 4.000000 0.159282 -0.098390
vertex 4.000000 0.131433 -0.131958
endloop
endfacet
facet normal 1.000000 0.000000 0.000000
outer loop
vertex 4.000000 0.243941 -0.053066
vertex 4.000000 0.291806 -0.108931
vertex 4.000000 0.305242 -0.064880
endloop
endfacet
facet normal 1.000000 0.000000 0.000000
outer loop
vertex 4.000000 -0.435997 -0.027468
vertex 4.000000 -0.498585 -0.035659
vertex 4.000000 -0.492938 -0.082892
endloop
endfacet
facet normal 1.000000 0.000000 0.000000
outer loop
vertex 4.000000 0.309873 -0.307770
vertex 4.000000 0.236128 -0.290653
vertex 4.000000 0.258825 -0.351934
endloop
endfacet
facet normal 1.000000 0.000000 0.000000
outer loop
vertex 4.000000 -0.078100 -0.365948
vertex 4.000000 -0.026745 -0.373939
vertex 4.000000 -0.081057 -0.300504
endloop
endfacet
facet normal 1.000000 0.000000 0.000000
outer loop
vertex 4.000000 -0.309873 -0.307770
vertex 4.000000 -0.336235 -0.369871
vertex 4.000000 -0.258825 -0.351934
endloop
endfacet
facet normal 1.000000 0.000000 0.000000
outer loop
vertex 4.000000 -0.365948 -0.078100
vertex 4.000000 -0.373939 -0.026745
vertex 4.000000 -0.435997 -0.027468
endloop
endfacet
facet normal 1.000000 0.000000 0.000000
outer loop
vertex 4.000000 0.138899 0.278231
vertex 4.000000 0.196781 0.318564
vertex 4.000000 0.147500 0.343524
endloop
endfacet
facet normal 1.000000 0.000000 0.000000
outer loop
vertex 4.000000 -0.201119 -0.237674
vertex 4.000000 -0.256093 -0.178159
vertex 4.000000 -0.289602 -0.237179
endloop
endfacet
facet normal 1.000000 0.000000 0.000000
outer loop
vertex 4.000000 -0.143208 -0.203671
vertex 4.000000 -0.203671 -0.143208
vertex 4.000000 -0.201119 -0.237674
endloop
endfacet
facet normal 1.000000 0.000000 0.000000
outer loop
vertex 4.000000 -0.269305 0.156248
vertex 4.000000 -0.318564 0.196781
vertex 4.000000 -0.343524 0.147500
endloop
endfacet
facet normal 1.000000 0.000000 0.000000
outer loop
vertex 4.000000 0.351934 -0.258825
vertex 4.000000 0.318564 -0.196781
vertex 4.000000 0.289602 -0.237179
endloop
endfacet
facet normal 1.000000 0.000000 0.000000
outer loop
vertex 4.000000 0.379028 -0.216498
vertex 4.000000 0.429671 -0.254939
vertex 4.000000 0.461579 -0.191195
endloop
endfacet
facet normal 1.000000 0.000000 0.000000
outer loop
vertex 4.000000 -0.269305 0.156248
vertex 4.000000 -0.237674 0.201119
vertex 4.000000 -0.290653 0.236128
endloop
endfacet
facet normal 1.000000 0.000000 0.000000
outer loop
vertex 4.000000 0.216498 0.379028
vertex 4.000000 0.254939 0.429671
vertex 4.000000 0.191195 0.461579
endloop
endfacet
facet normal 1.000000 0.000000 0.000000
outer loop
vertex 4.000000 -0.216498 -0.379028
vertex 4.000000 -0.254939 -0.429671
vertex 4.000000 -0.191195 -0.461579
endloop
endfacet
facet normal 1.000000 0.000000 0.000000
outer loop
vertex 4.000000 0.269305 -0.156248
vertex 4.000000 0.236951 -0.201842
vertex 4.000000 0.289602 -0.237179
endloop
endfacet
facet normal 1.000000 0.000000 0.000000
outer loop
vertex 4.000000 -0.379028 0.216498
vertex 4.000000 -0.429671 0.254939
vertex 4.000000 -0.461579 0.191195
endloop
endfacet
facet normal 1.000000 0.000000 0.000000
outer loop
vertex 4.000000 0.256093 0.178159
vertex 4.000000 0.318564 0.196781
vertex 4.000000 0.289602 0.237179
endloop
endfacet
facet normal 1.000000 0.000000 0.000000
outer loop
vertex 4.000000 -0.122547 -0.114126
vertex 4.000000 -0.061799 -0.106518
vertex 4.000000 -0.111406 -0.055767
endloop
endfacet
facet normal 1.000000 0.000000 0.000000
outer loop
vertex 4.000000 0.365279 -0.082504
vertex 4.000000 0.420449 -0.118024
vertex 4.000000 0.431799 -0.065850
endloop
endfacet
facet normal 1.000000 0.000000 0.000000
outer loop
vertex 4.000000 -0.037166 0.118683
vertex 4.000000 0.008565 0.185894
vertex 4.000000 -0.057501 0.177201
endloop
endfacet
facet normal 1.000000 0.000000 0.000000
outer loop
vertex 4.000000 0.057501 -0.177201
vertex 4.000000 0.095598 -0.230790
vertex 4.000000 0.143208 -0.203671
endloop
endfacet
facet normal 1.000000 0.000000 0.000000
outer loop
vertex 4.000000 0.113050 -0.050450
vertex 4.000000 0.159282 -0.098390
vertex 4.000000 0.177201 -0.057501
endloop
endfacet
facet normal 1.000000 0.000000 0.000000
outer loop
vertex 4.000000 0.431799 -0.065850
vertex 4.000000 0.492938 -0.082892
vertex 4.000000 0.499292 -0.017830
endloop
endfacet
facet normal 1.000000 0.000000 0.000000
outer loop
vertex 4.000000 -0.431799 0.065850
vertex 4.000000 -0.492938 0.082892
vertex 4.000000 -0.499292 0.017830
endloop
endfacet
facet normal 1.000000 0.000000 0.000000
outer loop
vertex 4.000000 0.075799 -0.097641
vertex 4.000000 0.098390 -0.159282
vertex 4.000000 0.131433 -0.131958
endloop
endfacet
facet normal 1.000000 0.000000 0.000000
outer loop
vertex 4.000000 -0.236128 -0.290653
vertex 4.000000 -0.201119 -0.237674
vertex 4.000000 -0.289602 -0.237179
endloop
endfacet
facet normal 1.000000 0.000000 0.000000
outer loop
vertex 4.000000 0.035448 0.246617
vertex 4.000000 0.008565 0.185894
vertex 4.000000 0.086070 0.165522
endloop
endfacet
facet normal 1.000000 0.000000 0.000000
outer loop
vertex 4.000000 0.365279 -0.082504
vertex 4.000000 0.310673 -0.017255
vertex 4.000000 0.305242 -0.064880
endloop
endfacet
facet normal 1.000000 0.000000 0.000000
outer loop
vertex 4.000000 -0.057501 0.177201
vertex 4.000000 -0.095598 0.230790
vertex 4.000000 -0.143208 0.203671
endloop
endfacet
facet normal 1.000000 0.000000 0.000000
outer loop
vertex 4.000000 0.246617 0.035448
vertex 4.000000 0.310673 -0.017255
vertex 4.000000 0.300720 0.080105
endloop
endfacet
facet normal 1.000000 0.000000 0.000000
outer loop
vertex 4.000000 -0.237179 0.289602
vertex 4.000000 -0.258825 0.351934
vertex 4.000000 -0.307770 0.309873
endloop
endfacet
facet normal 1.000000 0.000000 0.000000
outer loop
vertex 4.000000 0.203671 -0.143208
vertex 4.000000 0.236951 -0.201842
vertex 4.000000 0.269305 -0.156248
endloop
endfacet
facet normal 1.000000 0.000000 0.000000
outer loop
vertex 4.000000 0.420449 0.118024
vertex 4.000000 0.492938 0.082892
vertex 4.000000 0.482826 0.129373
endloop
endfacet
facet normal 1.000000 0.000000 0.000000
outer loop
vertex 4.000000 -0.309873 -0.307770
vertex 4.000000 -0.258825 -0.351934
vertex 4.000000 -0.236128 -0.290653
endloop
endfacet
facet normal 1.000000 0.000000 0.000000
outer loop
vertex 4.000000 -0.045804 -0.040344
vertex 4.000000 -0.061799 -0.106518
vertex 4.000000 0.002487 -0.059603
endloop
endfacet
facet normal 1.000000 0.000000 0.000000
outer loop
vertex 4.000000 0.035448 0.246617
vertex 4.000000 -0.008915 0.249646
vertex 4.000000 0.008565 0.185894
endloop
endfacet
facet normal 1.000000 0.000000 0.000000
outer loop
vertex 4.000000 0.018162 -0.373631
vertex 4.000000 -0.027468 -0.435997
vertex 4.000000 0.017996 -0.436462
endloop
endfacet
facet normal 1.000000 0.000000 0.000000
outer loop
vertex 4.000000 0.118024 -0.420449
vertex 4.000000 0.082892 -0.492938
vertex 4.000000 0.129373 -0.482826
endloop
endfacet
facet normal 1.000000 0.000000 0.000000
outer loop
vertex 4.000000 -0.269305 0.156248
vertex 4.000000 -0.343524 0.147500
vertex 4.000000 -0.293647 0.102707
endloop
endfacet
facet normal 1.000000 0.000000 0.000000
outer loop
vertex 4.000000 0.281839 0.132475
vertex 4.000000 0.256093 0.178159
vertex 4.000000 0.203671 0.143208
endloop
endfacet
facet normal 1.000000 0.000011 0.000000
outer loop
vertex 4.000000 -0.373631 0.018162
vertex 4.000000 -0.435997 -0.027468
vertex 4.000000 -0.373939 -0.026745
endloop
endfacet
facet normal 1.000000 0.000000 0.000000
outer loop
vertex 4.000000 0.243941 -0.053066
vertex 4.000000 0.177201 -0.057501
vertex 4.000000 0.230790 -0.095598
endloop
endfacet
facet normal 1.000000 0.000000 0.000000
outer loop
vertex 4.000000 0.365948 0.078100
vertex 4.000000 0.431357 0.071031
vertex 4.000000 0.420449 0.118024
endloop
endfacet
facet normal 1.000000 0.000000 0.000000
outer loop
vertex 4.000000 0.008565 0.185894
vertex 4.000000 -0.008915 0.249646
vertex 4.000000 -0.053066 0.243941
endloop
endfacet
facet normal 1.000000 0.000000 0.000000
outer loop
vertex 4.000000 -0.037166 0.118683
vertex 4.000000 0.028680 0.119484
vertex 4.000000 0.008565 0.185894
endloop
endfacet
facet normal 1.000000 0.000000 0.000000
outer loop
vertex 4.000000 0.143208 0.203671
vertex 4.000000 0.201119 0.237674
vertex 4.000000 0.138899 0.278231
endloop
endfacet
facet normal 1.000000 0.000000 0.000000
outer loop
vertex 4.000000 -0.203671 0.143208
vertex 4.000000 -0.131958 0.131433
vertex 4.000000 -0.143208 0.203671
endloop
endfacet
facet normal 1.000000 0.000000 0.000000
outer loop
vertex 4.000000 0.075799 0.097641
vertex 4.000000 0.131433 0.131958
vertex 4.000000 0.086070 0.165522
endloop
endfacet
facet normal 1.000000 0.000000 0.000000
outer loop
vertex 4.000000 0.351934 0.258825
vertex 4.000000 0.369871 0.336235
vertex 4.000000 0.309873 0.307770
endloop
endfacet
facet normal 1.000000 0.000000 0.000000
outer loop
vertex 4.000000 0.351934 0.258825
vertex 4.000000 0.429671 0.254939
vertex 4.000000 0.400157 0.299554
endloop
endfacet
facet normal 1.000000 0.000000 0.000000
outer loop
vertex 4.000000 -0.351934 0.258825
vertex 4.000000 -0.369871 0.336235
vertex 4.000000 -0.400157 0.299554
endloop
endfacet
facet normal 1.000000 0.000000 0.000000
outer loop
vertex 4.000000 -0.351934 0.258825
vertex 4.000000 -0.429671 0.254939
vertex 4.000000 -0.379028 0.216498
endloop
endfacet
facet normal 1.000000 0.000000 0.000000
outer loop
vertex 4.000000 0.258825 0.351934
vertex 4.000000 0.336235 0.369871
vertex 4.000000 0.299554 0.400157
endloop
endfacet
facet normal 1.000000 0.000000 0.000000
outer loop
vertex 4.000000 0.258825 0.351934
vertex 4.000000 0.254939 0.429671
vertex 4.000000 0.216498 0.379028
endloop
endfacet
facet normal 1.000000 0.000000 0.000000
outer loop
vertex 4.000000 0.351934 -0.258825
vertex 4.000000 0.369871 -0.336235
vertex 4.000000 0.400157 -0.299554
endloop
endfacet
facet normal 1.000000 0.000000 0.000000
outer loop
vertex 4.000000 0.351934 -0.258825
vertex 4.000000 0.429671 -0.254939
vertex 4.000000 0.379028 -0.216498
endloop
endfacet
facet normal 1.000000 0.000000 0.000000
outer loop
vertex 4.000000 -0.258825 -0.351934
vertex 4.000000 -0.254939 -0.429671
vertex 4.000000 -0.216498 -0.379028
endloop
endfacet
facet normal 1.000000 0.000000 0.000000
outer loop
vertex 4.000000 -0.351934 -0.258825
vertex 4.000000 -0.429671 -0.254939
vertex 4.000000 -0.400157 -0.299554
endloop
endfacet
facet normal 1.000000 0.000000 0.000000
outer loop
vertex 4.000000 -0.258825 0.351934
vertex 4.000000 -0.336235 0.369871
vertex 4.000000 -0.307770 0.309873
endloop
endfacet
facet normal 1.000000 0.000000 0.000000
outer loop
vertex 4.000000 -0.258825 0.351934
vertex 4.000000 -0.254939 0.429671
vertex 4.000000 -0.299554 0.400157
endloop
endfacet
facet normal 1.000000 0.000000 0.000000
outer loop
vertex 4.000000 0.258825 -0.351934
vertex 4.000000 0.254939 -0.429671
vertex 4.000000 0.299554 -0.400157
endloop
endfacet
facet normal 1.000000 0.000000 0.000000
outer loop
vertex 4.000000 0.269305 -0.156248
vertex 4.000000 0.289602 -0.237179
vertex 4.000000 0.318564 -0.196781
endloop
endfacet
facet normal 1.000000 0.000000 0.000000
outer loop
vertex 4.000000 0.365948 0.078100
vertex 4.000000 0.435997 0.027468
vertex 4.000000 0.431357 0.071031
endloop
endfacet
facet normal 1.000000 0.000000 0.000000
outer loop
vertex 4.000000 -0.018162 0.373631
vertex 4.000000 0.027468 0.435997
vertex 4.000000 -0.017996 0.436462
endloop
endfacet
facet normal 1.000000 0.000000 0.000000
outer loop
vertex 4.000000 0.113451 0.046207
vertex 4.000000 0.165522 0.086070
vertex 4.000000 0.075799 0.097641
endloop
endfacet
facet normal 1.000000 0.000000 0.000000
outer loop
vertex 4.000000 0.243941 -0.053066
vertex 4.000000 0.230790 -0.095598
vertex 4.000000 0.291806 -0.108931
endloop
endfacet
facet normal 1.000000 0.000000 0.000000
outer loop
vertex 4.000000 0.027468 0.435997
vertex 4.000000 0.082892 0.492938
vertex 4.000000 0.035659 0.498585
endloop
endfacet
facet normal 1.000000 0.000010 0.000000
outer loop
vertex 4.000000 0.373631 -0.018162
vertex 4.000000 0.436462 -0.017996
vertex 4.000000 0.435997 0.027468
endloop
endfacet
facet normal 1.000000 0.000000 0.000000
outer loop
vertex 4.000000 0.420449 0.118024
vertex 4.000000 0.431357 0.071031
vertex 4.000000 0.492938 0.082892
endloop
endfacet
facet normal 1.000000 0.000000 0.000000
outer loop
vertex 4.000000 0.246617 0.035448
vertex 4.000000 0.300720 0.080105
vertex 4.000000 0.230790 0.095598
endloop
endfacet
facet normal 1.000000 0.000000 0.000000
outer loop
vertex 4.000000 0.018927 -0.310695
vertex 4.000000 0.053066 -0.243941
vertex 4.000000 0.008915 -0.249646
endloop
endfacet
facet normal 1.000000 0.000000 0.000000
outer loop
vertex 4.000000 -0.122547 -0.114126
vertex 4.000000 -0.086070 -0.165522
vertex 4.000000 -0.061799 -0.106518
endloop
endfacet
facet normal 1.000000 0.000000 0.000000
outer loop
vertex 4.000000 0.078100 0.365948
vertex 4.000000 0.118024 0.420449
vertex 4.000000 0.071031 0.431357
endloop
endfacet
facet normal 1.000000 0.000000 0.000000
outer loop
vertex 4.000000 -0.027468 -0.435997
vertex 4.000000 -0.082892 -0.492938
vertex 4.000000 -0.035659 -0.498585
endloop
endfacet
facet normal 1.000000 0.000000 0.000000
outer loop
vertex 4.000000 0.435997 0.027468
vertex 4.000000 0.492938 0.082892
vertex 4.000000 0.431357 0.071031
endloop
endfacet
facet normal 1.000000 0.000000 0.000000
outer loop
vertex 4.000000 0.310673 -0.017255
vertex 4.000000 0.373939 0.026745
vertex 4.000000 0.300720 0.080105
endloop
endfacet
facet normal 1.000000 0.000000 0.000000
outer loop
vertex 4.000000 -0.420449 -0.118024
vertex 4.000000 -0.431357 -0.071031
vertex 4.000000 -0.492938 -0.082892
endloop
endfacet
facet normal 1.000000 0.000000 0.000000
outer loop
vertex 4.000000 0.078100 0.365948
vertex 4.000000 0.071031 0.431357
vertex 4.000000 0.027468 0.435997
endloop
endfacet
facet normal 1.000000 0.000000 0.000000
outer loop
vertex 4.000000 0.035448 0.246617
vertex 4.000000 0.080105 0.300720
vertex 4.000000 -0.017255 0.310673
endloop
endfacet
facet normal 1.000000 0.000000 0.000000
outer loop
vertex 4.000000 0.365279 -0.082504
vertex 4.000000 0.373631 -0.018162
vertex 4.000000 0.310673 -0.017255
endloop
endfacet
facet normal 1.000000 0.000000 0.000000
outer loop
vertex 4.000000 -0.435997 -0.027468
vertex 4.000000 -0.499292 0.017830
vertex 4.000000 -0.498585 -0.035659
endloop
endfacet
facet normal 1.000000 0.000000 0.000000
outer loop
vertex 4.000000 0.365948 0.078100
vertex 4.000000 0.373939 0.026745
vertex 4.000000 0.435997 0.027468
endloop
endfacet
facet normal 1.000000 0.000000 0.000000
outer loop
vertex 4.000000 -0.053066 0.243941
vertex 4.000000 -0.095598 0.230790
vertex 4.000000 -0.057501 0.177201
endloop
endfacet
facet normal 1.000000 0.000000 0.000000
outer loop
vertex 4.000000 -0.017255 0.310673
vertex 4.000000 0.080105 0.300720
vertex 4.000000 0.026745 0.373939
endloop
endfacet
facet normal 1.000000 0.000000 0.000000
outer loop
vertex 4.000000 0.075799 -0.097641
vertex 4.000000 0.040344 -0.045804
vertex 4.000000 0.037166 -0.118683
endloop
endfacet
facet normal 1.000000 0.000000 0.000000
outer loop
vertex 4.000000 0.289602 -0.237179
vertex 4.000000 0.309873 -0.307770
vertex 4.000000 0.351934 -0.258825
endloop
endfacet
facet normal 1.000000 0.000000 0.000000
outer loop
vertex 4.000000 -0.246617 -0.035448
vertex 4.000000 -0.185894 -0.008565
vertex 4.000000 -0.249646 0.008915
endloop
endfacet
facet normal 1.000000 0.000000 0.000000
outer loop
vertex 4.000000 -0.307770 0.309873
vertex 4.000000 -0.369871 0.336235
vertex 4.000000 -0.351934 0.258825
endloop
endfacet
facet normal 1.000000 0.000000 0.000000
outer loop
vertex 4.000000 0.143208 -0.203671
vertex 4.000000 0.178159 -0.256093
vertex 4.000000 0.236951 -0.201842
endloop
endfacet
facet normal 1.000000 0.000000 0.000000
outer loop
vertex 4.000000 0.118024 0.420449
vertex 4.000000 0.082892 0.492938
vertex 4.000000 0.071031 0.431357
endloop
endfacet
facet normal 1.000000 0.000000 0.000000
outer loop
vertex 4.000000 0.420449 -0.118024
vertex 4.000000 0.402551 -0.169348
vertex 4.000000 0.461579 -0.191195
endloop
endfacet
facet normal 1.000000 0.000000 0.000000
outer loop
vertex 4.000000 0.082504 -0.365279
vertex 4.000000 0.065850 -0.431799
vertex 4.000000 0.118024 -0.420449
endloop
endfacet
facet normal 1.000000 0.000004 0.000000
outer loop
vertex 4.000000 -0.113050 0.050450
vertex 4.000000 -0.185894 -0.008565
vertex 4.000000 -0.124066 -0.006633
endloop
endfacet
facet normal 1.000000 0.000000 0.000000
outer loop
vertex 4.000000 0.365948 0.078100
vertex 4.000000 0.300720 0.080105
vertex 4.000000 0.373939 0.026745
endloop
endfacet
facet normal 1.000000 0.000000 0.000000
outer loop
vertex 4.000000 0.118024 0.420449
vertex 4.000000 0.147500 0.343524
vertex 4.000000 0.169348 0.402551
endloop
endfacet
facet normal 1.000000 0.000000 0.000000
outer loop
vertex 4.000000 -0.081057 -0.300504
vertex 4.000000 -0.095598 -0.230790
vertex 4.000000 -0.138899 -0.278231
endloop
endfacet
facet normal 1.000000 0.000000 0.000000
outer loop
vertex 4.000000 -0.435997 -0.027468
vertex 4.000000 -0.492938 -0.082892
vertex 4.000000 -0.431357 -0.071031
endloop
endfacet
facet normal 1.000000 0.000000 0.000000
outer loop
vertex 4.000000 0.258825 0.351934
vertex 4.000000 0.216498 0.379028
vertex 4.000000 0.196781 0.318564
endloop
endfacet
facet normal 1.000000 0.000000 0.000000
outer loop
vertex 4.000000 -0.373631 0.018162
vertex 4.000000 -0.311052 -0.014966
vertex 4.000000 -0.309675 0.035542
endloop
endfacet
facet normal 1.000000 0.000000 0.000000
outer loop
vertex 4.000000 0.178159 -0.256093
vertex 4.000000 0.196781 -0.318564
vertex 4.000000 0.236128 -0.290653
endloop
endfacet
facet normal 1.000000 0.000000 0.000000
outer loop
vertex 4.000000 0.351934 0.258825
vertex 4.000000 0.379028 0.216498
vertex 4.000000 0.429671 0.254939
endloop
endfacet
facet normal 1.000000 0.000000 0.000000
outer loop
vertex 4.000000 -0.216498 0.379028
vertex 4.000000 -0.147500 0.343524
vertex 4.000000 -0.169348 0.402551
endloop
endfacet
facet normal 1.000000 0.000000 0.000000
outer loop
vertex 4.000000 -0.256093 -0.178159
vertex 4.000000 -0.276521 -0.143401
vertex 4.000000 -0.318564 -0.196781
endloop
endfacet
facet normal 1.000000 0.000000 0.000000
outer loop
vertex 4.000000 0.269305 -0.156248
vertex 4.000000 0.230790 -0.095598
vertex 4.000000 0.203671 -0.143208
endloop
endfacet
facet normal 1.000000 0.000000 0.000000
outer loop
vertex 4.000000 -0.035448 -0.246617
vertex 4.000000 -0.008565 -0.185894
vertex 4.000000 -0.086070 -0.165522
endloop
endfacet
facet normal 1.000000 0.000000 0.000000
outer loop
vertex 4.000000 0.258825 -0.351934
vertex 4.000000 0.196781 -0.318564
vertex 4.000000 0.216498 -0.379028
endloop
endfacet
facet normal 1.000000 0.000000 0.000000
outer loop
vertex 4.000000 0.027468 0.435997
vertex 4.000000 0.071031 0.431357
vertex 4.000000 0.082892 0.492938
endloop
endfacet
facet normal 1.000000 0.000000 0.000000
outer loop
vertex 4.000000 -0.258825 -0.351934
vertex 4.000000 -0.196781 -0.318564
vertex 4.000000 -0.236128 -0.290653
endloop
endfacet
facet normal 1.000000 0.000000 0.000000
outer loop
vertex 4.000000 -0.059603 0.002487
vertex 4.000000 0.000000 0.000000
vertex 4.000000 -0.045804 0.040344
endloop
endfacet
facet normal 1.000000 0.000000 0.000000
outer loop
vertex 4.000000 0.037166 -0.118683
vertex 4.000000 -0.006633 -0.124066
vertex 4.000000 -0.008565 -0.185894
endloop
endfacet
facet normal 1.000000 0.000000 0.000000
outer loop
vertex 4.000000 -0.082504 0.365279
vertex 4.000000 -0.065850 0.431799
vertex 4.000000 -0.118024 0.420449
endloop
endfacet
facet normal 1.000000 0.000000 0.000000
outer loop
vertex 4.000000 -0.113050 0.050450
vertex 4.000000 -0.045804 0.040344
vertex 4.000000 -0.075799 0.097641
endloop
endfacet
facet normal 1.000000 0.000000 0.000000
outer loop
vertex 4.000000 -0.138899 -0.278231
vertex 4.000000 -0.095598 -0.230790
vertex 4.000000 -0.143208 -0.203671
endloop
endfacet
facet normal 1.000000 0.000000 0.000000
outer loop
vertex 4.000000 -0.124066 -0.006633
vertex 4.000000 -0.111406 -0.055767
vertex 4.000000 -0.059603 0.002487
endloop
endfacet
facet normal 1.000000 0.000000 0.000000
outer loop
vertex 4.000000 0.281839 0.132475
vertex 4.000000 0.343524 0.147500
vertex 4.000000 0.318564 0.196781
endloop
endfacet
facet normal 1.000000 0.000000 0.000000
outer loop
vertex 4.000000 0.045804 0.040344
vertex 4.000000 0.028680 0.119484
vertex 4.000000 -0.002487 0.059603
endloop
endfacet
facet normal 1.000000 0.000000 0.000000
outer loop
vertex 4.000000 0.002487 -0.059603
vertex 4.000000 0.040344 -0.045804
vertex 4.000000 0.000000 0.000000
endloop
endfacet
facet normal 1.000000 0.000000 0.000000
outer loop
vertex 4.000000 0.045804 0.040344
vertex 4.000000 0.075799 0.097641
vertex 4.000000 0.028680 0.119484
endloop
endfacet
facet normal 1.000000 0.000000 0.000000
outer loop
vertex 4.000000 0.018927 -0.310695
vertex 4.000000 -0.031065 -0.305600
vertex 4.000000 -0.026745 -0.373939
endloop
endfacet
facet normal 1.000000 0.000000 0.000000
outer loop
vertex 4.000000 0.075799 -0.097641
vertex 4.000000 0.131433 -0.131958
vertex 4.000000 0.159282 -0.098390
endloop
endfacet
facet normal 1.000000 0.000000 0.000000
outer loop
vertex 4.000000 -0.122547 -0.114126
vertex 4.000000 -0.165522 -0.086070
vertex 4.000000 -0.203671 -0.143208
endloop
endfacet
facet normal 1.000000 0.000000 0.000000
outer loop
vertex 4.000000 -0.203671 0.143208
vertex 4.000000 -0.143208 0.203671
vertex 4.000000 -0.237674 0.201119
endloop
endfacet
facet normal 1.000000 0.000000 0.000000
outer loop
vertex 4.000000 -0.113050 0.050450
vertex 4.000000 -0.075799 0.097641
vertex 4.000000 -0.159282 0.098390
endloop
endfacet
facet normal 1.000000 0.000000 0.000000
outer loop
vertex 4.000000 -0.031065 -0.305600
vertex 4.000000 -0.081057 -0.300504
vertex 4.000000 -0.026745 -0.373939
endloop
endfacet
facet normal 1.000000 0.000000 0.000000
outer loop
vertex 4.000000 0.309873 -0.307770
vertex 4.000000 0.336235 -0.369871
vertex 4.000000 0.369871 -0.336235
endloop
endfacet
facet normal 1.000000 0.000000 0.000000
outer loop
vertex 4.000000 -0.203671 -0.143208
vertex 4.000000 -0.256093 -0.178159
vertex 4.000000 -0.201119 -0.237674
endloop
endfacet
facet normal 1.000000 0.000000 0.000000
outer loop
vertex 4.000000 -0.053066 0.243941
vertex 4.000000 -0.126166 0.284164
vertex 4.000000 -0.095598 0.230790
endloop
endfacet
facet normal 1.000000 0.000000 0.000000
outer loop
vertex 4.000000 -0.258825 -0.351934
vertex 4.000000 -0.336235 -0.369871
vertex 4.000000 -0.299554 -0.400157
endloop
endfacet
facet normal 1.000000 0.000000 0.000000
outer loop
vertex 4.000000 0.289602 0.237179
vertex 4.000000 0.236128 0.290653
vertex 4.000000 0.201119 0.237674
endloop
endfacet
facet normal 1.000000 0.000000 0.000000
outer loop
vertex 4.000000 0.351934 -0.258825
vertex 4.000000 0.309873 -0.307770
vertex 4.000000 0.369871 -0.336235
endloop
endfacet
facet normal 1.000000 0.000000 0.000000
outer loop
vertex 4.000000 0.143208 0.203671
vertex 4.000000 0.203671 0.143208
vertex 4.000000 0.201119 0.237674
endloop
endfacet
facet normal 1.000000 0.000000 0.000000
outer loop
vertex 4.000000 0.343524 -0.147500
vertex 4.000000 0.365279 -0.082504
vertex 4.000000 0.291806 -0.108931
endloop
endfacet
facet normal 1.000000 0.000000 0.000000
outer loop
vertex 4.000000 0.053066 -0.243941
vertex 4.000000 0.095598 -0.230790
vertex 4.000000 0.057501 -0.177201
endloop
endfacet
facet normal 1.000000 0.000000 0.000000
outer loop
vertex 4.000000 -0.111406 -0.055767
vertex 4.000000 -0.061799 -0.106518
vertex 4.000000 -0.045804 -0.040344
endloop
endfacet
facet normal 1.000000 0.000000 0.000000
outer loop
vertex 4.000000 0.118024 0.420449
vertex 4.000000 0.191195 0.461579
vertex 4.000000 0.129373 0.482826
endloop
endfacet
facet normal 1.000000 0.000000 0.000000
outer loop
vertex 4.000000 -0.118024 -0.420449
vertex 4.000000 -0.082892 -0.492938
vertex 4.000000 -0.071031 -0.431357
endloop
endfacet
facet normal 1.000000 0.000000 0.000000
outer loop
vertex 4.000000 -0.118024 -0.420449
vertex 4.000000 -0.191195 -0.461579
vertex 4.000000 -0.129373 -0.482826
endloop
endfacet
facet normal 1.000000 0.000000 0.000000
outer loop
vertex 4.000000 -0.365279 0.082504
vertex 4.000000 -0.420449 0.118024
vertex 4.000000 -0.431799 0.065850
endloop
endfacet
facet normal 1.000000 0.000000 0.000000
outer loop
vertex 4.000000 -0.420449 -0.118024
vertex 4.000000 -0.343524 -0.147500
vertex 4.000000 -0.365948 -0.078100
endloop
endfacet
facet normal 1.000000 0.000000 0.000000
outer loop
vertex 4.000000 -0.420449 -0.118024
vertex 4.000000 -0.492938 -0.082892
vertex 4.000000 -0.482826 -0.129373
endloop
endfacet
facet normal 1.000000 0.000000 0.000000
outer loop
vertex 4.000000 -0.420449 -0.118024
vertex 4.000000 -0.461579 -0.191195
vertex 4.000000 -0.402551 -0.169348
endloop
endfacet
facet normal 1.000000 0.000000 0.000000
outer loop
vertex 4.000000 0.246617 0.035448
vertex 4.000000 0.230790 0.095598
vertex 4.000000 0.165522 0.086070
endloop
endfacet
facet normal 1.000000 0.000000 0.000000
outer loop
vertex 4.000000 0.420449 -0.118024
vertex 4.000000 0.461579 -0.191195
vertex 4.000000 0.482826 -0.129373
endloop
endfacet
facet normal 1.000000 0.000000 0.000000
outer loop
vertex 4.000000 -0.118024 0.420449
vertex 4.000000 -0.191195 0.461579
vertex 4.000000 -0.169348 0.402551
endloop
endfacet
facet normal 1.000000 0.000000 0.000000
outer loop
vertex 4.000000 -0.420449 0.118024
vertex 4.000000 -0.492938 0.082892
vertex 4.000000 -0.431799 0.065850
endloop
endfacet
facet normal 1.000000 0.000000 0.000000
outer loop
vertex 4.000000 -0.420449 0.118024
vertex 4.000000 -0.461579 0.191195
vertex 4.000000 -0.482826 0.129373
endloop
endfacet
facet normal 1.000000 0.000000 0.000000
outer loop
vertex 4.000000 -0.082504 0.365279
vertex 4.000000 -0.064880 0.305242
vertex 4.000000 -0.017255 0.310673
endloop
endfacet
facet normal 1.000000 0.000000 0.000000
outer loop
vertex 4.000000 0.420449 0.118024
vertex 4.000000 0.461579 0.191195
vertex 4.000000 0.402551 0.169348
endloop
endfacet
facet normal 1.000000 0.000000 0.000000
outer loop
vertex 4.000000 0.118024 -0.420449
vertex 4.000000 0.191195 -0.461579
vertex 4.000000 0.169348 -0.402551
endloop
endfacet
facet normal 1.000000 0.000000 0.000000
outer loop
vertex 4.000000 0.080105 0.300720
vertex 4.000000 0.095598 0.230790
vertex 4.000000 0.138899 0.278231
endloop
endfacet
facet normal 1.000000 0.000000 0.000000
outer loop
vertex 4.000000 0.018927 -0.310695
vertex 4.000000 -0.026745 -0.373939
vertex 4.000000 0.018162 -0.373631
endloop
endfacet
facet normal 1.000000 0.000000 0.000000
outer loop
vertex 4.000000 -0.289602 -0.237179
vertex 4.000000 -0.351934 -0.258825
vertex 4.000000 -0.309873 -0.307770
endloop
endfacet
facet normal 1.000000 0.000000 0.000000
outer loop
vertex 4.000000 0.431799 -0.065850
vertex 4.000000 0.499292 -0.017830
vertex 4.000000 0.436462 -0.017996
endloop
endfacet
facet normal 1.000000 0.000000 0.000000
outer loop
vertex 4.000000 -0.006633 -0.124066
vertex 4.000000 0.002487 -0.059603
vertex 4.000000 -0.061799 -0.106518
endloop
endfacet
facet normal 1.000000 0.000000 0.000000
outer loop
vertex 4.000000 -0.027468 -0.435997
vertex 4.000000 0.017830 -0.499292
vertex 4.000000 0.017996 -0.436462
endloop
endfacet
facet normal 1.000000 0.000000 0.000000
outer loop
vertex 4.000000 -0.118024 0.420449
vertex 4.000000 -0.065850 0.431799
vertex 4.000000 -0.082892 0.492938
endloop
endfacet
facet normal 1.000000 0.000000 0.000000
outer loop
vertex 4.000000 -0.118024 -0.420449
vertex 4.000000 -0.169348 -0.402551
vertex 4.000000 -0.191195 -0.461579
endloop
endfacet
facet normal 1.000000 0.000000 0.000000
outer loop
vertex 4.000000 0.035448 0.246617
vertex 4.000000 0.095598 0.230790
vertex 4.000000 0.080105 0.300720
endloop
endfacet
facet normal 1.000000 0.000000 0.000000
outer loop
vertex 4.000000 0.246617 0.035448
vertex 4.000000 0.185894 0.008565
vertex 4.000000 0.249646 -0.008915
endloop
endfacet
facet normal 1.000000 0.000006 0.000000
outer loop
vertex 4.000000 0.246617 0.035448
vertex 4.000000 0.249646 -0.008915
vertex 4.000000 0.310673 -0.017255
endloop
endfacet
facet normal 1.000000 0.000000 0.000000
outer loop
vertex 4.000000 0.018162 -0.373631
vertex 4.000000 0.017996 -0.436462
vertex 4.000000 0.065850 -0.431799
endloop
endfacet
facet normal 1.000000 0.000000 0.000000
outer loop
vertex 4.000000 -0.018162 0.373631
vertex 4.000000 -0.017996 0.436462
vertex 4.000000 -0.065850 0.431799
endloop
endfacet
facet normal 1.000000 0.000000 0.000000
outer loop
vertex 4.000000 -0.078100 -0.365948
vertex 4.000000 -0.071031 -0.431357
vertex 4.000000 -0.027468 -0.435997
endloop
endfacet
facet normal 1.000000 0.000000 0.000000
outer loop
vertex 4.000000 0.309873 -0.307770
vertex 4.000000 0.289602 -0.237179
vertex 4.000000 0.236128 -0.290653
endloop
endfacet
facet normal 1.000000 0.000000 0.000000
outer loop
vertex 4.000000 0.420449 0.118024
vertex 4.000000 0.402551 0.169348
vertex 4.000000 0.343524 0.147500
endloop
endfacet
facet normal 1.000000 0.000000 0.000000
outer loop
vertex 4.000000 0.018162 -0.373631
vertex 4.000000 -0.026745 -0.373939
vertex 4.000000 -0.027468 -0.435997
endloop
endfacet
facet normal 1.000000 0.000000 0.000000
outer loop
vertex 4.000000 0.310673 -0.017255
vertex 4.000000 0.249646 -0.008915
vertex 4.000000 0.243941 -0.053066
endloop
endfacet
facet normal 1.000000 0.000000 0.000000
outer loop
vertex 4.000000 -0.365948 -0.078100
vertex 4.000000 -0.435997 -0.027468
vertex 4.000000 -0.431357 -0.071031
endloop
endfacet
facet normal 1.000000 0.000000 0.000000
outer loop
vertex 4.000000 0.300720 0.080105
vertex 4.000000 0.281839 0.132475
vertex 4.000000 0.230790 0.095598
endloop
endfacet
facet normal 1.000000 0.000000 0.000000
outer loop
vertex 4.000000 -0.311052 -0.014966
vertex 4.000000 -0.373631 0.018162
vertex 4.000000 -0.373939 -0.026745
endloop
endfacet
facet normal 1.000000 0.000000 0.000000
outer loop
vertex 4.000000 -0.122547 -0.114126
vertex 4.000000 -0.203671 -0.143208
vertex 4.000000 -0.143208 -0.203671
endloop
endfacet
facet normal 1.000000 0.000000 0.000000
outer loop
vertex 4.000000 -0.118024 -0.420449
vertex 4.000000 -0.147500 -0.343524
vertex 4.000000 -0.169348 -0.402551
endloop
endfacet
facet normal 1.000000 0.000000 0.000000
outer loop
vertex 4.000000 -0.065850 0.431799
vertex 4.000000 -0.017996 0.436462
vertex 4.000000 -0.017830 0.499292
endloop
endfacet
facet normal 1.000000 0.000000 0.000000
outer loop
vertex 4.000000 0.216498 0.379028
vertex 4.000000 0.169348 0.402551
vertex 4.000000 0.147500 0.343524
endloop
endfacet
facet normal 1.000000 0.000000 0.000000
outer loop
vertex 4.000000 0.118024 -0.420449
vertex 4.000000 0.169348 -0.402551
vertex 4.000000 0.147500 -0.343524
endloop
endfacet
facet normal 1.000000 0.000000 0.000000
outer loop
vertex 4.000000 0.379028 0.216498
vertex 4.000000 0.402551 0.169348
vertex 4.000000 0.461579 0.191195
endloop
endfacet
facet normal 1.000000 0.000000 0.000000
outer loop
vertex 4.000000 0.147500 -0.343524
vertex 4.000000 0.196781 -0.318564
vertex 4.000000 0.143401 -0.276521
endloop
endfacet
facet normal 1.000000 0.000000 0.000000
outer loop
vertex 4.000000 0.379028 -0.216498
vertex 4.000000 0.461579 -0.191195
vertex 4.000000 0.402551 -0.169348
endloop
endfacet
facet normal 1.000000 0.000000 0.000000
outer loop
vertex 4.000000 0.379028 0.216498
vertex 4.000000 0.343524 0.147500
vertex 4.000000 0.402551 0.169348
endloop
endfacet
facet normal 1.000000 0.000000 0.000000
outer loop
vertex 4.000000 -0.216498 0.379028
vertex 4.000000 -0.191195 0.461579
vertex 4.000000 -0.254939 0.429671
endloop
endfacet
facet normal 1.000000 0.000000 0.000000
outer loop
vertex 4.000000 0.379028 0.216498
vertex 4.000000 0.461579 0.191195
vertex 4.000000 0.429671 0.254939
endloop
endfacet
facet normal 1.000000 0.000000 0.000000
outer loop
vertex 4.000000 0.216498 0.379028
vertex 4.000000 0.147500 0.343524
vertex 4.000000 0.196781 0.318564
endloop
endfacet
facet normal 1.000000 0.000000 0.000000
outer loop
vertex 4.000000 0.216498 -0.379028
vertex 4.000000 0.191195 -0.461579
vertex 4.000000 0.254939 -0.429671
endloop
endfacet
facet normal 1.000000 0.000000 0.000000
outer loop
vertex 4.000000 -0.246617 -0.035448
vertex 4.000000 -0.297418 -0.091990
vertex 4.000000 -0.230790 -0.095598
endloop
endfacet
facet normal 1.000000 0.000000 0.000000
outer loop
vertex 4.000000 0.216498 0.379028
vertex 4.000000 0.191195 0.461579
vertex 4.000000 0.169348 0.402551
endloop
endfacet
facet normal 1.000000 0.000000 0.000000
outer loop
vertex 4.000000 -0.216498 -0.379028
vertex 4.000000 -0.191195 -0.461579
vertex 4.000000 -0.169348 -0.402551
endloop
endfacet
facet normal 1.000000 0.000000 0.000000
outer loop
vertex 4.000000 -0.379028 0.216498
vertex 4.000000 -0.461579 0.191195
vertex 4.000000 -0.402551 0.169348
endloop
endfacet
facet normal 1.000000 0.000000 0.000000
outer loop
vertex 4.000000 -0.017255 0.310673
vertex 4.000000 0.026745 0.373939
vertex 4.000000 -0.018162 0.373631
endloop
endfacet
facet normal 1.000000 0.000000 0.000000
outer loop
vertex 4.000000 -0.379028 -0.216498
vertex 4.000000 -0.461579 -0.191195
vertex 4.000000 -0.429671 -0.254939
endloop
endfacet
facet normal 1.000000 0.000000 0.000000
outer loop
vertex 4.000000 -0.008565 -0.185894
vertex 4.000000 0.053066 -0.243941
vertex 4.000000 0.057501 -0.177201
endloop
endfacet
facet normal 1.000000 0.000000 0.000000
outer loop
vertex 4.000000 -0.307770 0.309873
vertex 4.000000 -0.351934 0.258825
vertex 4.000000 -0.290653 0.236128
endloop
endfacet
facet normal 1.000000 0.000000 0.000000
outer loop
vertex 4.000000 -0.343524 -0.147500
vertex 4.000000 -0.276521 -0.143401
vertex 4.000000 -0.297418 -0.091990
endloop
endfacet
facet normal 1.000000 0.000000 0.000000
outer loop
vertex 4.000000 0.343524 0.147500
vertex 4.000000 0.281839 0.132475
vertex 4.000000 0.300720 0.080105
endloop
endfacet
facet normal 1.000000 0.000000 0.000000
outer loop
vertex 4.000000 0.343524 -0.147500
vertex 4.000000 0.291806 -0.108931
vertex 4.000000 0.269305 -0.156248
endloop
endfacet
facet normal 1.000000 0.000000 0.000000
outer loop
vertex 4.000000 -0.420449 0.118024
vertex 4.000000 -0.402551 0.169348
vertex 4.000000 -0.461579 0.191195
endloop
endfacet
facet normal 1.000000 0.000000 0.000000
outer loop
vertex 4.000000 -0.177201 0.057501
vertex 4.000000 -0.203671 0.143208
vertex 4.000000 -0.230790 0.095598
endloop
endfacet
facet normal 1.000000 0.000000 0.000000
outer loop
vertex 4.000000 -0.126166 0.284164
vertex 4.000000 -0.147500 0.343524
vertex 4.000000 -0.196781 0.318564
endloop
endfacet
facet normal 1.000000 0.000000 0.000000
outer loop
vertex 4.000000 -0.379028 0.216498
vertex 4.000000 -0.343524 0.147500
vertex 4.000000 -0.318564 0.196781
endloop
endfacet
facet normal 1.000000 0.000000 0.000000
outer loop
vertex 4.000000 -0.126166 0.284164
vertex 4.000000 -0.178159 0.256093
vertex 4.000000 -0.143208 0.203671
endloop
endfacet
facet normal 1.000000 0.000000 0.000000
outer loop
vertex 4.000000 -0.126166 0.284164
vertex 4.000000 -0.196781 0.318564
vertex 4.000000 -0.178159 0.256093
endloop
endfacet
facet normal 1.000000 0.000000 0.000000
outer loop
vertex 4.000000 -0.075799 0.097641
vertex 4.000000 -0.131958 0.131433
vertex 4.000000 -0.159282 0.098390
endloop
endfacet
facet normal 1.000000 0.000000 0.000000
outer loop
vertex 4.000000 -0.057501 0.177201
vertex 4.000000 -0.143208 0.203671
vertex 4.000000 -0.098390 0.159282
endloop
endfacet
facet normal 1.000000 0.000000 0.000000
outer loop
vertex 4.000000 0.309873 0.307770
vertex 4.000000 0.369871 0.336235
vertex 4.000000 0.336235 0.369871
endloop
endfacet
facet normal 1.000000 0.000000 0.000000
outer loop
vertex 4.000000 -0.113050 0.050450
vertex 4.000000 -0.159282 0.098390
vertex 4.000000 -0.177201 0.057501
endloop
endfacet
facet normal 1.000000 0.000000 0.000000
outer loop
vertex 4.000000 -0.086070 -0.165522
vertex 4.000000 -0.008565 -0.185894
vertex 4.000000 -0.006633 -0.124066
endloop
endfacet
facet normal 1.000000 0.000000 0.000000
outer loop
vertex 4.000000 0.291806 -0.108931
vertex 4.000000 0.365279 -0.082504
vertex 4.000000 0.305242 -0.064880
endloop
endfacet
facet normal 1.000000 0.000000 0.000000
outer loop
vertex 4.000000 -0.059603 0.002487
vertex 4.000000 -0.045804 0.040344
vertex 4.000000 -0.113050 0.050450
endloop
endfacet
facet normal 1.000000 0.000000 0.000000
outer loop
vertex 4.000000 0.165522 0.086070
vertex 4.000000 0.113451 0.046207
vertex 4.000000 0.185894 0.008565
endloop
endfacet
facet normal 1.000000 0.000000 0.000000
outer loop
vertex 4.000000 -0.059603 0.002487
vertex 4.000000 -0.111406 -0.055767
vertex 4.000000 -0.045804 -0.040344
endloop
endfacet
facet normal 1.000000 0.000000 0.000000
outer loop
vertex 4.000000 0.113050 -0.050450
vertex 4.000000 0.075799 -0.097641
vertex 4.000000 0.159282 -0.098390
endloop
endfacet
facet normal 1.000000 0.000000 0.000000
outer loop
vertex 4.000000 0.379028 -0.216498
vertex 4.000000 0.402551 -0.169348
vertex 4.000000 0.343524 -0.147500
endloop
endfacet
facet normal 1.000000 0.000000 0.000000
outer loop
vertex 4.000000 -0.177201 0.057501
vertex 4.000000 -0.159282 0.098390
vertex 4.000000 -0.203671 0.143208
endloop
endfacet
facet normal 1.000000 0.000000 0.000000
outer loop
vertex 4.000000 -0.002487 0.059603
vertex 4.000000 -0.045804 0.040344
vertex 4.000000 0.000000 0.000000
endloop
endfacet
facet normal 1.000000 0.000000 0.000000
outer loop
vertex 4.000000 0.037166 -0.118683
vertex 4.000000 0.002487 -0.059603
vertex 4.000000 -0.006633 -0.124066
endloop
endfacet
facet normal 1.000000 0.000000 0.000000
outer loop
vertex 4.000000 0.177201 -0.057501
vertex 4.000000 0.159282 -0.098390
vertex 4.000000 0.203671 -0.143208
endloop
endfacet
facet normal 1.000000 0.000000 0.000000
outer loop
vertex 4.000000 0.059603 -0.002487
vertex 4.000000 0.113451 0.046207
vertex 4.000000 0.045804 0.040344
endloop
endfacet
facet normal 1.000000 0.000010 0.000000
outer loop
vertex 4.000000 -0.165522 -0.086070
vertex 4.000000 -0.111406 -0.055767
vertex 4.000000 -0.124066 -0.006633
endloop
endfacet
facet normal 1.000000 0.000000 0.000000
outer loop
vertex 4.000000 0.018927 -0.310695
vertex 4.000000 0.102707 -0.293647
vertex 4.000000 0.053066 -0.243941
endloop
endfacet
facet normal 1.000000 0.000000 0.000000
outer loop
vertex 4.000000 -0.269305 0.156248
vertex 4.000000 -0.293647 0.102707
vertex 4.000000 -0.230790 0.095598
endloop
endfacet
facet normal 1.000000 0.000000 0.000000
outer loop
vertex 4.000000 -0.431799 0.065850
vertex 4.000000 -0.499292 0.017830
vertex 4.000000 -0.436462 0.017996
endloop
endfacet
facet normal 1.000000 0.000000 0.000000
outer loop
vertex 4.000000 0.373631 -0.018162
vertex 4.000000 0.431799 -0.065850
vertex 4.000000 0.436462 -0.017996
endloop
endfacet
facet normal 1.000000 0.000000 0.000000
outer loop
vertex 4.000000 0.057501 -0.177201
vertex 4.000000 0.098390 -0.159282
vertex 4.000000 0.075799 -0.097641
endloop
endfacet
facet normal 1.000000 0.000000 0.000000
outer loop
vertex 4.000000 0.113451 0.046207
vertex 4.000000 0.075799 0.097641
vertex 4.000000 0.045804 0.040344
endloop
endfacet
facet normal 1.000000 0.000000 0.000000
outer loop
vertex 4.000000 0.343524 0.147500
vertex 4.000000 0.300720 0.080105
vertex 4.000000 0.365948 0.078100
endloop
endfacet
facet normal 1.000000 0.000000 0.000000
outer loop
vertex 4.000000 0.147500 -0.343524
vertex 4.000000 0.143401 -0.276521
vertex 4.000000 0.102707 -0.293647
endloop
endfacet
facet normal 1.000000 0.000000 0.000000
outer loop
vertex 4.000000 0.147500 -0.343524
vertex 4.000000 0.102707 -0.293647
vertex 4.000000 0.082504 -0.365279
endloop
endfacet
facet normal 1.000000 0.000000 0.000000
outer loop
vertex 4.000000 -0.147500 0.343524
vertex 4.000000 -0.126166 0.284164
vertex 4.000000 -0.082504 0.365279
endloop
endfacet
facet normal 1.000000 0.000000 0.000000
outer loop
vertex 4.000000 0.435997 0.027468
vertex 4.000000 0.499292 -0.017830
vertex 4.000000 0.498585 0.035659
endloop
endfacet
facet normal 1.000000 0.000000 0.000000
outer loop
vertex 4.000000 -0.143208 0.203671
vertex 4.000000 -0.178159 0.256093
vertex 4.000000 -0.237674 0.201119
endloop
endfacet
facet normal 1.000000 0.000000 0.000000
outer loop
vertex 4.000000 0.178159 -0.256093
vertex 4.000000 0.143208 -0.203671
vertex 4.000000 0.143401 -0.276521
endloop
endfacet
facet normal 1.000000 0.000000 0.000000
outer loop
vertex 4.000000 0.035448 0.246617
vertex 4.000000 -0.017255 0.310673
vertex 4.000000 -0.008915 0.249646
endloop
endfacet
facet normal 1.000000 0.000000 0.000000
outer loop
vertex 4.000000 -0.269305 0.156248
vertex 4.000000 -0.230790 0.095598
vertex 4.000000 -0.203671 0.143208
endloop
endfacet
facet normal 1.000000 0.000000 0.000000
outer loop
vertex 4.000000 0.203671 0.143208
vertex 4.000000 0.131433 0.131958
vertex 4.000000 0.165522 0.086070
endloop
endfacet
facet normal 1.000000 0.000000 0.000000
outer loop
vertex 4.000000 -0.256093 -0.178159
vertex 4.000000 -0.203671 -0.143208
vertex 4.000000 -0.276521 -0.143401
endloop
endfacet
facet normal 1.000000 0.000000 0.000000
outer loop
vertex 4.000000 -0.138899 -0.278231
vertex 4.000000 -0.196781 -0.318564
vertex 4.000000 -0.147500 -0.343524
endloop
endfacet
facet normal 1.000000 0.000000 0.000000
outer loop
vertex 4.000000 -0.216498 0.379028
vertex 4.000000 -0.169348 0.402551
vertex 4.000000 -0.191195 0.461579
endloop
endfacet
endsolid Exported from Blender-2.79 (sub 7)
