solid Li_Evap_Export_Obs
   facet normal -2.684154e-002 9.996397e-001 0.000000e+000
      outer loop
         vertex -9.606099e+000 1.189929e+002 2.540000e+001
         vertex -4.385950e-014 1.193800e+002 2.540000e+001
         vertex -1.461983e-014 1.193800e+002 -2.540000e+001
      endloop
   endfacet
   facet normal 2.684154e-002 9.996397e-001 0.000000e+000
      outer loop
         vertex -1.461983e-014 1.193800e+002 -2.540000e+001
         vertex -4.385950e-014 1.193800e+002 2.540000e+001
         vertex 9.606099e+000 1.189929e+002 -2.540000e+001
      endloop
   endfacet
   facet normal 5.368308e-002 9.985580e-001 0.000000e+000
      outer loop
         vertex -4.385950e-014 1.193800e+002 2.540000e+001
         vertex 9.606099e+000 1.189929e+002 2.540000e+001
         vertex 9.606099e+000 1.189929e+002 -2.540000e+001
      endloop
   endfacet
   facet normal 1.338019e-001 9.910081e-001 0.000000e+000
      outer loop
         vertex 9.606099e+000 1.189929e+002 -2.540000e+001
         vertex 9.606099e+000 1.189929e+002 2.540000e+001
         vertex 2.856950e+001 1.159110e+002 2.540000e+001
      endloop
   endfacet
   facet normal 1.869046e-001 9.823781e-001 0.000000e+000
      outer loop
         vertex 9.606099e+000 1.189929e+002 -2.540000e+001
         vertex 2.856950e+001 1.159110e+002 2.540000e+001
         vertex 2.856950e+001 1.159110e+002 -2.540000e+001
      endloop
   endfacet
   facet normal 2.910380e-001 9.567115e-001 0.000000e+000
      outer loop
         vertex 2.856950e+001 1.159110e+002 -2.540000e+001
         vertex 2.856950e+001 1.159110e+002 2.540000e+001
         vertex 4.679297e+001 1.098271e+002 2.540000e+001
      endloop
   endfacet
   facet normal 3.420688e-001 9.396749e-001 0.000000e+000
      outer loop
         vertex 2.856950e+001 1.159110e+002 -2.540000e+001
         vertex 4.679297e+001 1.098271e+002 2.540000e+001
         vertex 4.679297e+001 1.098271e+002 -2.540000e+001
      endloop
   endfacet
   facet normal 4.407365e-001 8.976365e-001 0.000000e+000
      outer loop
         vertex 4.679297e+001 1.098271e+002 -2.540000e+001
         vertex 4.679297e+001 1.098271e+002 2.540000e+001
         vertex 6.380453e+001 1.008988e+002 2.540000e+001
      endloop
   endfacet
   facet normal 4.883735e-001 8.726346e-001 0.000000e+000
      outer loop
         vertex 4.679297e+001 1.098271e+002 -2.540000e+001
         vertex 6.380453e+001 1.008988e+002 2.540000e+001
         vertex 6.380453e+001 1.008988e+002 -2.540000e+001
      endloop
   endfacet
   facet normal 5.790201e-001 8.153133e-001 0.000000e+000
      outer loop
         vertex 6.380453e+001 1.008988e+002 -2.540000e+001
         vertex 6.380453e+001 1.008988e+002 2.540000e+001
         vertex 7.916358e+001 8.935722e+001 2.540000e+001
      endloop
   endfacet
   facet normal 6.220297e-001 7.829937e-001 0.000000e+000
      outer loop
         vertex 6.380453e+001 1.008988e+002 -2.540000e+001
         vertex 7.916358e+001 8.935722e+001 2.540000e+001
         vertex 7.916358e+001 8.935722e+001 -2.540000e+001
      endloop
   endfacet
   facet normal 7.023074e-001 7.118738e-001 0.000000e+000
      outer loop
         vertex 7.916358e+001 8.935722e+001 -2.540000e+001
         vertex 7.916358e+001 8.935722e+001 2.540000e+001
         vertex 9.247234e+001 7.550133e+001 2.540000e+001
      endloop
   endfacet
   facet normal 7.395756e-001 6.730735e-001 0.000000e+000
      outer loop
         vertex 7.916358e+001 8.935722e+001 -2.540000e+001
         vertex 9.247234e+001 7.550133e+001 2.540000e+001
         vertex 9.247234e+001 7.550133e+001 -2.540000e+001
      endloop
   endfacet
   facet normal 8.074053e-001 5.899972e-001 0.000000e+000
      outer loop
         vertex 9.247234e+001 7.550133e+001 -2.540000e+001
         vertex 9.247234e+001 7.550133e+001 2.540000e+001
         vertex 1.033861e+002 5.969000e+001 2.540000e+001
      endloop
   endfacet
   facet normal 8.379669e-001 5.457212e-001 0.000000e+000
      outer loop
         vertex 9.247234e+001 7.550133e+001 -2.540000e+001
         vertex 1.033861e+002 5.969000e+001 2.540000e+001
         vertex 1.033861e+002 5.969000e+001 -2.540000e+001
      endloop
   endfacet
   facet normal 8.915918e-001 4.528400e-001 0.000000e+000
      outer loop
         vertex 1.033861e+002 5.969000e+001 -2.540000e+001
         vertex 1.033861e+002 5.969000e+001 2.540000e+001
         vertex 1.116222e+002 4.233273e+001 2.540000e+001
      endloop
   endfacet
   facet normal 9.146552e-001 4.042349e-001 0.000000e+000
      outer loop
         vertex 1.033861e+002 5.969000e+001 -2.540000e+001
         vertex 1.116222e+002 4.233273e+001 2.540000e+001
         vertex 1.116222e+002 4.233273e+001 -2.540000e+001
      endloop
   endfacet
   facet normal 9.526865e-001 3.039545e-001 0.000000e+000
      outer loop
         vertex 1.116222e+002 4.233273e+001 -2.540000e+001
         vertex 1.116222e+002 4.233273e+001 2.540000e+001
         vertex 1.169674e+002 2.387907e+001 2.540000e+001
      endloop
   endfacet
   facet normal 9.676545e-001 2.522791e-001 0.000000e+000
      outer loop
         vertex 1.116222e+002 4.233273e+001 -2.540000e+001
         vertex 1.169674e+002 2.387907e+001 2.540000e+001
         vertex 1.169674e+002 2.387907e+001 -2.540000e+001
      endloop
   endfacet
   facet normal 9.891073e-001 1.471967e-001 0.000000e+000
      outer loop
         vertex 1.169674e+002 2.387907e+001 -2.540000e+001
         vertex 1.169674e+002 2.387907e+001 2.540000e+001
         vertex 1.192832e+002 4.806948e+000 2.540000e+001
      endloop
   endfacet
   facet normal 9.955921e-001 9.378949e-002 0.000000e+000
      outer loop
         vertex 1.169674e+002 2.387907e+001 -2.540000e+001
         vertex 1.192832e+002 4.806948e+000 2.540000e+001
         vertex 1.192832e+002 4.806948e+000 -2.540000e+001
      endloop
   endfacet
   facet normal 9.999106e-001 -1.337347e-002 0.000000e+000
      outer loop
         vertex 1.192832e+002 4.806948e+000 -2.540000e+001
         vertex 1.192832e+002 4.806948e+000 2.540000e+001
         vertex 1.185096e+002 -1.438967e+001 2.540000e+001
      endloop
   endfacet
   facet normal 9.977443e-001 -6.712926e-002 0.000000e+000
      outer loop
         vertex 1.192832e+002 4.806948e+000 -2.540000e+001
         vertex 1.185096e+002 -1.438967e+001 2.540000e+001
         vertex 1.185096e+002 -1.438967e+001 -2.540000e+001
      endloop
   endfacet
   facet normal 9.848167e-001 -1.735972e-001 0.000000e+000
      outer loop
         vertex 1.185096e+002 -1.438967e+001 -2.540000e+001
         vertex 1.185096e+002 -1.438967e+001 2.540000e+001
         vertex 1.146667e+002 -3.321360e+001 2.540000e+001
      endloop
   endfacet
   facet normal 9.740555e-001 -2.263094e-001 0.000000e+000
      outer loop
         vertex 1.185096e+002 -1.438967e+001 -2.540000e+001
         vertex 1.146667e+002 -3.321360e+001 2.540000e+001
         vertex 1.146667e+002 -3.321360e+001 -2.540000e+001
      endloop
   endfacet
   facet normal 9.442167e-001 -3.293249e-001 0.000000e+000
      outer loop
         vertex 1.146667e+002 -3.321360e+001 -2.540000e+001
         vertex 1.146667e+002 -3.321360e+001 2.540000e+001
         vertex 1.078539e+002 -5.117732e+001 2.540000e+001
      endloop
   endfacet
   facet normal 9.251391e-001 -3.796282e-001 0.000000e+000
      outer loop
         vertex 1.146667e+002 -3.321360e+001 -2.540000e+001
         vertex 1.078539e+002 -5.117732e+001 2.540000e+001
         vertex 1.078539e+002 -5.117732e+001 -2.540000e+001
      endloop
   endfacet
   facet normal 8.791618e-001 -4.765233e-001 0.000000e+000
      outer loop
         vertex 1.078539e+002 -5.117732e+001 -2.540000e+001
         vertex 1.078539e+002 -5.117732e+001 2.540000e+001
         vertex 9.824781e+001 -6.781557e+001 2.540000e+001
      endloop
   endfacet
   facet normal 8.522621e-001 -5.231149e-001 0.000000e+000
      outer loop
         vertex 1.078539e+002 -5.117732e+001 -2.540000e+001
         vertex 9.824781e+001 -6.781557e+001 2.540000e+001
         vertex 9.824781e+001 -6.781557e+001 -2.540000e+001
      endloop
   endfacet
   facet normal 7.913373e-001 -6.113799e-001 0.000000e+000
      outer loop
         vertex 9.824781e+001 -6.781557e+001 -2.540000e+001
         vertex 9.824781e+001 -6.781557e+001 2.540000e+001
         vertex 8.609715e+001 -8.269743e+001 2.540000e+001
      endloop
   endfacet
   facet normal 7.573121e-001 -6.530532e-001 0.000000e+000
      outer loop
         vertex 9.824781e+001 -6.781557e+001 -2.540000e+001
         vertex 8.609715e+001 -8.269743e+001 2.540000e+001
         vertex 8.609715e+001 -8.269743e+001 -2.540000e+001
      endloop
   endfacet
   facet normal 6.830174e-001 -7.304021e-001 0.000000e+000
      outer loop
         vertex 8.609715e+001 -8.269743e+001 -2.540000e+001
         vertex 8.609715e+001 -8.269743e+001 2.540000e+001
         vertex 7.171661e+001 -9.543748e+001 2.540000e+001
      endloop
   endfacet
   facet normal 6.427480e-001 -7.660777e-001 0.000000e+000
      outer loop
         vertex 8.609715e+001 -8.269743e+001 -2.540000e+001
         vertex 7.171661e+001 -9.543748e+001 2.540000e+001
         vertex 7.171661e+001 -9.543748e+001 -2.540000e+001
      endloop
   endfacet
   facet normal 5.570078e-001 -8.305073e-001 0.000000e+000
      outer loop
         vertex 7.171661e+001 -9.543748e+001 -2.540000e+001
         vertex 7.171661e+001 -9.543748e+001 2.540000e+001
         vertex 5.547865e+001 -1.057057e+002 2.540000e+001
      endloop
   endfacet
   facet normal 5.115370e-001 -8.592612e-001 0.000000e+000
      outer loop
         vertex 7.171661e+001 -9.543748e+001 -2.540000e+001
         vertex 5.547865e+001 -1.057057e+002 2.540000e+001
         vertex 5.547865e+001 -1.057057e+002 -2.540000e+001
      endloop
   endfacet
   facet normal 4.165719e-001 -9.091027e-001 0.000000e+000
      outer loop
         vertex 5.547865e+001 -1.057057e+002 -2.540000e+001
         vertex 5.547865e+001 -1.057057e+002 2.540000e+001
         vertex 3.780383e+001 -1.132363e+002 2.540000e+001
      endloop
   endfacet
   facet normal 3.670776e-001 -9.301903e-001 0.000000e+000
      outer loop
         vertex 5.547865e+001 -1.057057e+002 -2.540000e+001
         vertex 3.780383e+001 -1.132363e+002 2.540000e+001
         vertex 3.780383e+001 -1.132363e+002 -2.540000e+001
      endloop
   endfacet
   facet normal 2.653471e-001 -9.641529e-001 0.000000e+000
      outer loop
         vertex 3.780383e+001 -1.132363e+002 -2.540000e+001
         vertex 3.780383e+001 -1.132363e+002 2.540000e+001
         vertex 1.914990e+001 -1.178341e+002 2.540000e+001
      endloop
   endfacet
   facet normal 2.131110e-001 -9.770280e-001 0.000000e+000
      outer loop
         vertex 3.780383e+001 -1.132363e+002 -2.540000e+001
         vertex 1.914990e+001 -1.178341e+002 2.540000e+001
         vertex 1.914990e+001 -1.178341e+002 -2.540000e+001
      endloop
   endfacet
   facet normal 1.072499e-001 -9.942321e-001 0.000000e+000
      outer loop
         vertex 1.914990e+001 -1.178341e+002 -2.540000e+001
         vertex 1.914990e+001 -1.178341e+002 2.540000e+001
         vertex 0.000000e+000 -1.193800e+002 2.540000e+001
      endloop
   endfacet
   facet normal 5.362497e-002 -9.985611e-001 0.000000e+000
      outer loop
         vertex 1.914990e+001 -1.178341e+002 -2.540000e+001
         vertex 0.000000e+000 -1.193800e+002 2.540000e+001
         vertex 0.000000e+000 -1.193800e+002 -2.540000e+001
      endloop
   endfacet
   facet normal -5.362497e-002 -9.985611e-001 0.000000e+000
      outer loop
         vertex 0.000000e+000 -1.193800e+002 -2.540000e+001
         vertex 0.000000e+000 -1.193800e+002 2.540000e+001
         vertex -1.914990e+001 -1.178341e+002 2.540000e+001
      endloop
   endfacet
   facet normal -1.072499e-001 -9.942321e-001 0.000000e+000
      outer loop
         vertex 0.000000e+000 -1.193800e+002 -2.540000e+001
         vertex -1.914990e+001 -1.178341e+002 2.540000e+001
         vertex -1.914990e+001 -1.178341e+002 -2.540000e+001
      endloop
   endfacet
   facet normal -2.131110e-001 -9.770280e-001 0.000000e+000
      outer loop
         vertex -1.914990e+001 -1.178341e+002 -2.540000e+001
         vertex -1.914990e+001 -1.178341e+002 2.540000e+001
         vertex -3.780383e+001 -1.132363e+002 2.540000e+001
      endloop
   endfacet
   facet normal -2.653471e-001 -9.641529e-001 0.000000e+000
      outer loop
         vertex -1.914990e+001 -1.178341e+002 -2.540000e+001
         vertex -3.780383e+001 -1.132363e+002 2.540000e+001
         vertex -3.780383e+001 -1.132363e+002 -2.540000e+001
      endloop
   endfacet
   facet normal -3.670776e-001 -9.301903e-001 0.000000e+000
      outer loop
         vertex -3.780383e+001 -1.132363e+002 -2.540000e+001
         vertex -3.780383e+001 -1.132363e+002 2.540000e+001
         vertex -5.547865e+001 -1.057057e+002 2.540000e+001
      endloop
   endfacet
   facet normal -4.165719e-001 -9.091027e-001 0.000000e+000
      outer loop
         vertex -3.780383e+001 -1.132363e+002 -2.540000e+001
         vertex -5.547865e+001 -1.057057e+002 2.540000e+001
         vertex -5.547865e+001 -1.057057e+002 -2.540000e+001
      endloop
   endfacet
   facet normal -5.115370e-001 -8.592612e-001 0.000000e+000
      outer loop
         vertex -5.547865e+001 -1.057057e+002 -2.540000e+001
         vertex -5.547865e+001 -1.057057e+002 2.540000e+001
         vertex -7.171661e+001 -9.543748e+001 2.540000e+001
      endloop
   endfacet
   facet normal -5.570078e-001 -8.305073e-001 0.000000e+000
      outer loop
         vertex -5.547865e+001 -1.057057e+002 -2.540000e+001
         vertex -7.171661e+001 -9.543748e+001 2.540000e+001
         vertex -7.171661e+001 -9.543748e+001 -2.540000e+001
      endloop
   endfacet
   facet normal -6.427480e-001 -7.660777e-001 0.000000e+000
      outer loop
         vertex -7.171661e+001 -9.543748e+001 -2.540000e+001
         vertex -7.171661e+001 -9.543748e+001 2.540000e+001
         vertex -8.609715e+001 -8.269743e+001 2.540000e+001
      endloop
   endfacet
   facet normal -6.830174e-001 -7.304021e-001 0.000000e+000
      outer loop
         vertex -7.171661e+001 -9.543748e+001 -2.540000e+001
         vertex -8.609715e+001 -8.269743e+001 2.540000e+001
         vertex -8.609715e+001 -8.269743e+001 -2.540000e+001
      endloop
   endfacet
   facet normal -7.573121e-001 -6.530532e-001 0.000000e+000
      outer loop
         vertex -8.609715e+001 -8.269743e+001 -2.540000e+001
         vertex -8.609715e+001 -8.269743e+001 2.540000e+001
         vertex -9.824781e+001 -6.781557e+001 2.540000e+001
      endloop
   endfacet
   facet normal -7.913373e-001 -6.113799e-001 0.000000e+000
      outer loop
         vertex -8.609715e+001 -8.269743e+001 -2.540000e+001
         vertex -9.824781e+001 -6.781557e+001 2.540000e+001
         vertex -9.824781e+001 -6.781557e+001 -2.540000e+001
      endloop
   endfacet
   facet normal -8.522621e-001 -5.231149e-001 0.000000e+000
      outer loop
         vertex -9.824781e+001 -6.781557e+001 -2.540000e+001
         vertex -9.824781e+001 -6.781557e+001 2.540000e+001
         vertex -1.078539e+002 -5.117732e+001 2.540000e+001
      endloop
   endfacet
   facet normal -8.791618e-001 -4.765233e-001 0.000000e+000
      outer loop
         vertex -9.824781e+001 -6.781557e+001 -2.540000e+001
         vertex -1.078539e+002 -5.117732e+001 2.540000e+001
         vertex -1.078539e+002 -5.117732e+001 -2.540000e+001
      endloop
   endfacet
   facet normal -9.251391e-001 -3.796283e-001 0.000000e+000
      outer loop
         vertex -1.078539e+002 -5.117732e+001 -2.540000e+001
         vertex -1.078539e+002 -5.117732e+001 2.540000e+001
         vertex -1.146667e+002 -3.321360e+001 2.540000e+001
      endloop
   endfacet
   facet normal -9.442167e-001 -3.293249e-001 0.000000e+000
      outer loop
         vertex -1.078539e+002 -5.117732e+001 -2.540000e+001
         vertex -1.146667e+002 -3.321360e+001 2.540000e+001
         vertex -1.146667e+002 -3.321360e+001 -2.540000e+001
      endloop
   endfacet
   facet normal -9.740555e-001 -2.263094e-001 0.000000e+000
      outer loop
         vertex -1.146667e+002 -3.321360e+001 -2.540000e+001
         vertex -1.146667e+002 -3.321360e+001 2.540000e+001
         vertex -1.185096e+002 -1.438967e+001 2.540000e+001
      endloop
   endfacet
   facet normal -9.848167e-001 -1.735972e-001 0.000000e+000
      outer loop
         vertex -1.146667e+002 -3.321360e+001 -2.540000e+001
         vertex -1.185096e+002 -1.438967e+001 2.540000e+001
         vertex -1.185096e+002 -1.438967e+001 -2.540000e+001
      endloop
   endfacet
   facet normal -9.977443e-001 -6.712926e-002 0.000000e+000
      outer loop
         vertex -1.185096e+002 -1.438967e+001 -2.540000e+001
         vertex -1.185096e+002 -1.438967e+001 2.540000e+001
         vertex -1.192832e+002 4.806948e+000 2.540000e+001
      endloop
   endfacet
   facet normal -9.999106e-001 -1.337347e-002 0.000000e+000
      outer loop
         vertex -1.185096e+002 -1.438967e+001 -2.540000e+001
         vertex -1.192832e+002 4.806948e+000 2.540000e+001
         vertex -1.192832e+002 4.806948e+000 -2.540000e+001
      endloop
   endfacet
   facet normal -9.955921e-001 9.378947e-002 0.000000e+000
      outer loop
         vertex -1.192832e+002 4.806948e+000 -2.540000e+001
         vertex -1.192832e+002 4.806948e+000 2.540000e+001
         vertex -1.169674e+002 2.387907e+001 2.540000e+001
      endloop
   endfacet
   facet normal -9.891073e-001 1.471967e-001 0.000000e+000
      outer loop
         vertex -1.192832e+002 4.806948e+000 -2.540000e+001
         vertex -1.169674e+002 2.387907e+001 2.540000e+001
         vertex -1.169674e+002 2.387907e+001 -2.540000e+001
      endloop
   endfacet
   facet normal -9.676545e-001 2.522791e-001 0.000000e+000
      outer loop
         vertex -1.169674e+002 2.387907e+001 -2.540000e+001
         vertex -1.169674e+002 2.387907e+001 2.540000e+001
         vertex -1.116222e+002 4.233273e+001 2.540000e+001
      endloop
   endfacet
   facet normal -9.526865e-001 3.039545e-001 0.000000e+000
      outer loop
         vertex -1.169674e+002 2.387907e+001 -2.540000e+001
         vertex -1.116222e+002 4.233273e+001 2.540000e+001
         vertex -1.116222e+002 4.233273e+001 -2.540000e+001
      endloop
   endfacet
   facet normal -9.146552e-001 4.042349e-001 0.000000e+000
      outer loop
         vertex -1.116222e+002 4.233273e+001 -2.540000e+001
         vertex -1.116222e+002 4.233273e+001 2.540000e+001
         vertex -1.033861e+002 5.969000e+001 2.540000e+001
      endloop
   endfacet
   facet normal -8.915918e-001 4.528400e-001 0.000000e+000
      outer loop
         vertex -1.116222e+002 4.233273e+001 -2.540000e+001
         vertex -1.033861e+002 5.969000e+001 2.540000e+001
         vertex -1.033861e+002 5.969000e+001 -2.540000e+001
      endloop
   endfacet
   facet normal -8.379669e-001 5.457212e-001 0.000000e+000
      outer loop
         vertex -1.033861e+002 5.969000e+001 -2.540000e+001
         vertex -1.033861e+002 5.969000e+001 2.540000e+001
         vertex -9.247234e+001 7.550133e+001 2.540000e+001
      endloop
   endfacet
   facet normal -8.074053e-001 5.899972e-001 0.000000e+000
      outer loop
         vertex -1.033861e+002 5.969000e+001 -2.540000e+001
         vertex -9.247234e+001 7.550133e+001 2.540000e+001
         vertex -9.247234e+001 7.550133e+001 -2.540000e+001
      endloop
   endfacet
   facet normal -7.395756e-001 6.730735e-001 0.000000e+000
      outer loop
         vertex -9.247234e+001 7.550133e+001 -2.540000e+001
         vertex -9.247234e+001 7.550133e+001 2.540000e+001
         vertex -7.916358e+001 8.935722e+001 2.540000e+001
      endloop
   endfacet
   facet normal -7.023074e-001 7.118738e-001 0.000000e+000
      outer loop
         vertex -9.247234e+001 7.550133e+001 -2.540000e+001
         vertex -7.916358e+001 8.935722e+001 2.540000e+001
         vertex -7.916358e+001 8.935722e+001 -2.540000e+001
      endloop
   endfacet
   facet normal -6.220297e-001 7.829937e-001 0.000000e+000
      outer loop
         vertex -7.916358e+001 8.935722e+001 -2.540000e+001
         vertex -7.916358e+001 8.935722e+001 2.540000e+001
         vertex -6.380453e+001 1.008988e+002 2.540000e+001
      endloop
   endfacet
   facet normal -5.790201e-001 8.153133e-001 0.000000e+000
      outer loop
         vertex -7.916358e+001 8.935722e+001 -2.540000e+001
         vertex -6.380453e+001 1.008988e+002 2.540000e+001
         vertex -6.380453e+001 1.008988e+002 -2.540000e+001
      endloop
   endfacet
   facet normal -4.883735e-001 8.726347e-001 0.000000e+000
      outer loop
         vertex -6.380453e+001 1.008988e+002 -2.540000e+001
         vertex -6.380453e+001 1.008988e+002 2.540000e+001
         vertex -4.679297e+001 1.098271e+002 2.540000e+001
      endloop
   endfacet
   facet normal -4.407364e-001 8.976365e-001 0.000000e+000
      outer loop
         vertex -6.380453e+001 1.008988e+002 -2.540000e+001
         vertex -4.679297e+001 1.098271e+002 2.540000e+001
         vertex -4.679297e+001 1.098271e+002 -2.540000e+001
      endloop
   endfacet
   facet normal -3.420688e-001 9.396749e-001 0.000000e+000
      outer loop
         vertex -4.679297e+001 1.098271e+002 -2.540000e+001
         vertex -4.679297e+001 1.098271e+002 2.540000e+001
         vertex -2.856950e+001 1.159110e+002 2.540000e+001
      endloop
   endfacet
   facet normal -2.910380e-001 9.567115e-001 0.000000e+000
      outer loop
         vertex -4.679297e+001 1.098271e+002 -2.540000e+001
         vertex -2.856950e+001 1.159110e+002 2.540000e+001
         vertex -2.856950e+001 1.159110e+002 -2.540000e+001
      endloop
   endfacet
   facet normal -1.869046e-001 9.823781e-001 0.000000e+000
      outer loop
         vertex -2.856950e+001 1.159110e+002 -2.540000e+001
         vertex -2.856950e+001 1.159110e+002 2.540000e+001
         vertex -9.606099e+000 1.189929e+002 2.540000e+001
      endloop
   endfacet
   facet normal -1.338019e-001 9.910081e-001 0.000000e+000
      outer loop
         vertex -2.856950e+001 1.159110e+002 -2.540000e+001
         vertex -9.606099e+000 1.189929e+002 2.540000e+001
         vertex -9.606099e+000 1.189929e+002 -2.540000e+001
      endloop
   endfacet
   facet normal -5.368308e-002 9.985580e-001 0.000000e+000
      outer loop
         vertex -9.606099e+000 1.189929e+002 -2.540000e+001
         vertex -9.606099e+000 1.189929e+002 2.540000e+001
         vertex -1.461983e-014 1.193800e+002 -2.540000e+001
      endloop
   endfacet
   facet normal 1.950904e-001 9.807853e-001 -4.717327e-016
      outer loop
         vertex 8.278812e+001 4.285726e+002 1.405379e+001
         vertex 8.278812e+001 4.285726e+002 7.805395e+000
         vertex 5.090083e+001 4.349154e+002 1.405379e+001
      endloop
   endfacet
   facet normal 1.950904e-001 9.807853e-001 -4.717327e-016
      outer loop
         vertex 5.090083e+001 4.349154e+002 1.405379e+001
         vertex 8.278812e+001 4.285726e+002 7.805395e+000
         vertex 5.090083e+001 4.349154e+002 7.805395e+000
      endloop
   endfacet
   facet normal 1.950904e-001 9.807853e-001 -6.105106e-016
      outer loop
         vertex 1.148413e+002 4.064641e+002 -8.470964e+000
         vertex 1.163983e+002 4.061543e+002 -8.470964e+000
         vertex 1.163983e+002 4.061543e+002 -1.861060e+001
      endloop
   endfacet
   facet normal 1.950904e-001 9.807853e-001 -6.105106e-016
      outer loop
         vertex 4.789049e+001 4.197814e+002 -2.496061e+001
         vertex 4.789049e+001 4.197814e+002 -8.470964e+000
         vertex 5.551978e+001 4.182639e+002 -2.496061e+001
      endloop
   endfacet
   facet normal 1.950904e-001 9.807853e-001 -6.105106e-016
      outer loop
         vertex 5.551978e+001 4.182639e+002 -2.496061e+001
         vertex 4.789049e+001 4.197814e+002 -8.470964e+000
         vertex 4.944749e+001 4.194717e+002 -8.470964e+000
      endloop
   endfacet
   facet normal 1.950904e-001 9.807853e-001 -6.105106e-016
      outer loop
         vertex 1.163983e+002 4.061543e+002 1.455395e+000
         vertex 1.163983e+002 4.061543e+002 4.190355e-001
         vertex 1.148413e+002 4.064641e+002 4.190355e-001
      endloop
   endfacet
   facet normal 1.950904e-001 9.807853e-001 -6.105106e-016
      outer loop
         vertex 1.163983e+002 4.061543e+002 1.455395e+000
         vertex 1.148413e+002 4.064641e+002 4.190355e-001
         vertex 4.789049e+001 4.197814e+002 1.455395e+000
      endloop
   endfacet
   facet normal 1.950904e-001 9.807853e-001 -6.105106e-016
      outer loop
         vertex 4.789049e+001 4.197814e+002 1.455395e+000
         vertex 1.148413e+002 4.064641e+002 4.190355e-001
         vertex 4.944749e+001 4.194717e+002 4.190355e-001
      endloop
   endfacet
   facet normal 1.950904e-001 9.807853e-001 -6.105106e-016
      outer loop
         vertex 4.789049e+001 4.197814e+002 1.455395e+000
         vertex 4.944749e+001 4.194717e+002 4.190355e-001
         vertex 4.789049e+001 4.197814e+002 4.190355e-001
      endloop
   endfacet
   facet normal 1.950904e-001 9.807853e-001 -6.105106e-016
      outer loop
         vertex 4.944749e+001 4.194717e+002 4.190355e-001
         vertex 5.734391e+001 4.179010e+002 -3.980836e+000
         vertex 5.599385e+001 4.181696e+002 -6.040925e+000
      endloop
   endfacet
   facet normal 1.950904e-001 9.807853e-001 -6.105106e-016
      outer loop
         vertex 1.148413e+002 4.064641e+002 4.190355e-001
         vertex 1.069449e+002 4.080347e+002 -3.980836e+000
         vertex 1.049244e+002 4.084366e+002 -2.604330e+000
      endloop
   endfacet
   facet normal 1.950904e-001 9.807853e-001 -6.105106e-016
      outer loop
         vertex 4.944749e+001 4.194717e+002 4.190355e-001
         vertex 5.599385e+001 4.181696e+002 -6.040925e+000
         vertex 4.944749e+001 4.194717e+002 -8.470964e+000
      endloop
   endfacet
   facet normal 1.950904e-001 9.807853e-001 -6.105106e-016
      outer loop
         vertex 4.944749e+001 4.194717e+002 -8.470964e+000
         vertex 5.599385e+001 4.181696e+002 -6.040925e+000
         vertex 5.551978e+001 4.182639e+002 -8.470964e+000
      endloop
   endfacet
   facet normal 1.950904e-001 9.807853e-001 -6.105106e-016
      outer loop
         vertex 4.944749e+001 4.194717e+002 -8.470964e+000
         vertex 5.551978e+001 4.182639e+002 -8.470964e+000
         vertex 5.551978e+001 4.182639e+002 -2.496061e+001
      endloop
   endfacet
   facet normal 1.950904e-001 9.807853e-001 -6.105106e-016
      outer loop
         vertex 1.163983e+002 4.061543e+002 -1.861060e+001
         vertex 1.087691e+002 4.076719e+002 -1.861060e+001
         vertex 1.148413e+002 4.064641e+002 -8.470964e+000
      endloop
   endfacet
   facet normal 1.950904e-001 9.807853e-001 -6.105106e-016
      outer loop
         vertex 1.148413e+002 4.064641e+002 -8.470964e+000
         vertex 1.087691e+002 4.076719e+002 -1.861060e+001
         vertex 1.087691e+002 4.076719e+002 -8.470964e+000
      endloop
   endfacet
   facet normal 1.950904e-001 9.807853e-001 -6.105106e-016
      outer loop
         vertex 1.148413e+002 4.064641e+002 -8.470964e+000
         vertex 1.087691e+002 4.076719e+002 -8.470964e+000
         vertex 1.148413e+002 4.064641e+002 4.190355e-001
      endloop
   endfacet
   facet normal 1.950904e-001 9.807853e-001 -6.105106e-016
      outer loop
         vertex 1.148413e+002 4.064641e+002 4.190355e-001
         vertex 1.087691e+002 4.076719e+002 -8.470964e+000
         vertex 1.082950e+002 4.077662e+002 -6.040925e+000
      endloop
   endfacet
   facet normal 1.950904e-001 9.807853e-001 -6.105106e-016
      outer loop
         vertex 1.148413e+002 4.064641e+002 4.190355e-001
         vertex 1.082950e+002 4.077662e+002 -6.040925e+000
         vertex 1.069449e+002 4.080347e+002 -3.980836e+000
      endloop
   endfacet
   facet normal 1.950904e-001 9.807853e-001 -6.105106e-016
      outer loop
         vertex 1.049244e+002 4.084366e+002 -2.604330e+000
         vertex 1.025411e+002 4.089107e+002 -2.120965e+000
         vertex 1.148413e+002 4.064641e+002 4.190355e-001
      endloop
   endfacet
   facet normal 1.950904e-001 9.807853e-001 -6.105106e-016
      outer loop
         vertex 1.148413e+002 4.064641e+002 4.190355e-001
         vertex 1.025411e+002 4.089107e+002 -2.120965e+000
         vertex 6.174776e+001 4.170250e+002 -2.120965e+000
      endloop
   endfacet
   facet normal 1.950904e-001 9.807853e-001 -6.105106e-016
      outer loop
         vertex 1.148413e+002 4.064641e+002 4.190355e-001
         vertex 6.174776e+001 4.170250e+002 -2.120965e+000
         vertex 4.944749e+001 4.194717e+002 4.190355e-001
      endloop
   endfacet
   facet normal 1.950904e-001 9.807853e-001 -6.105106e-016
      outer loop
         vertex 4.944749e+001 4.194717e+002 4.190355e-001
         vertex 6.174776e+001 4.170250e+002 -2.120965e+000
         vertex 5.936441e+001 4.174991e+002 -2.604330e+000
      endloop
   endfacet
   facet normal 1.950904e-001 9.807853e-001 -6.105106e-016
      outer loop
         vertex 4.944749e+001 4.194717e+002 4.190355e-001
         vertex 5.936441e+001 4.174991e+002 -2.604330e+000
         vertex 5.734391e+001 4.179010e+002 -3.980836e+000
      endloop
   endfacet
   facet normal 2.531790e-002 1.272817e-001 9.915434e-001
      outer loop
         vertex 1.176372e+002 4.123823e+002 -2.496061e+001
         vertex 1.100079e+002 4.138999e+002 -2.496061e+001
         vertex 1.171631e+002 4.099990e+002 -2.447724e+001
      endloop
   endfacet
   facet normal 5.063580e-002 2.545633e-001 9.657295e-001
      outer loop
         vertex 1.171631e+002 4.099990e+002 -2.447724e+001
         vertex 1.100079e+002 4.138999e+002 -2.496061e+001
         vertex 1.095338e+002 4.115165e+002 -2.447724e+001
      endloop
   endfacet
   facet normal 9.741718e-002 4.897492e-001 8.664038e-001
      outer loop
         vertex 1.171631e+002 4.099990e+002 -2.447724e+001
         vertex 1.095338e+002 4.115165e+002 -2.447724e+001
         vertex 1.167612e+002 4.079785e+002 -2.310073e+001
      endloop
   endfacet
   facet normal 1.188807e-001 5.976534e-001 7.928920e-001
      outer loop
         vertex 1.167612e+002 4.079785e+002 -2.310073e+001
         vertex 1.095338e+002 4.115165e+002 -2.447724e+001
         vertex 1.091319e+002 4.094960e+002 -2.310073e+001
      endloop
   endfacet
   facet normal 1.546856e-001 7.776569e-001 6.093621e-001
      outer loop
         vertex 1.167612e+002 4.079785e+002 -2.310073e+001
         vertex 1.091319e+002 4.094960e+002 -2.310073e+001
         vertex 1.164926e+002 4.066284e+002 -2.104064e+001
      endloop
   endfacet
   facet normal 1.690270e-001 8.497561e-001 4.993439e-001
      outer loop
         vertex 1.164926e+002 4.066284e+002 -2.104064e+001
         vertex 1.091319e+002 4.094960e+002 -2.310073e+001
         vertex 1.088634e+002 4.081460e+002 -2.104064e+001
      endloop
   endfacet
   facet normal 1.884045e-001 9.471733e-001 2.595505e-001
      outer loop
         vertex 1.164926e+002 4.066284e+002 -2.104064e+001
         vertex 1.088634e+002 4.081460e+002 -2.104064e+001
         vertex 1.163983e+002 4.061543e+002 -1.861060e+001
      endloop
   endfacet
   facet normal 1.934405e-001 9.724912e-001 1.297753e-001
      outer loop
         vertex 1.163983e+002 4.061543e+002 -1.861060e+001
         vertex 1.088634e+002 4.081460e+002 -2.104064e+001
         vertex 1.087691e+002 4.076719e+002 -1.861060e+001
      endloop
   endfacet
   facet normal 9.807853e-001 -1.950904e-001 4.893565e-016
      outer loop
         vertex 7.962274e+001 5.394376e+002 -2.310073e+001
         vertex 7.998559e+001 5.412618e+002 -3.131061e+001
         vertex 7.989129e+001 5.407877e+002 -2.104064e+001
      endloop
   endfacet
   facet normal 9.807853e-001 -1.950904e-001 4.893565e-016
      outer loop
         vertex 7.989129e+001 5.407877e+002 -2.104064e+001
         vertex 7.998559e+001 5.412618e+002 -3.131061e+001
         vertex 7.998559e+001 5.412618e+002 -1.861060e+001
      endloop
   endfacet
   facet normal 9.807853e-001 -1.950904e-001 4.893565e-016
      outer loop
         vertex 5.551978e+001 4.182639e+002 -8.470964e+000
         vertex 5.415707e+001 4.114131e+002 -8.470964e+000
         vertex 5.551978e+001 4.182639e+002 -2.496061e+001
      endloop
   endfacet
   facet normal 9.807853e-001 -1.950904e-001 4.893565e-016
      outer loop
         vertex 5.551978e+001 4.182639e+002 -2.496061e+001
         vertex 5.415707e+001 4.114131e+002 -8.470964e+000
         vertex 5.415707e+001 4.114131e+002 -3.131061e+001
      endloop
   endfacet
   facet normal 9.807853e-001 -1.950904e-001 4.893565e-016
      outer loop
         vertex 5.551978e+001 4.182639e+002 -2.496061e+001
         vertex 5.415707e+001 4.114131e+002 -3.131061e+001
         vertex 7.874677e+001 5.350338e+002 -2.496061e+001
      endloop
   endfacet
   facet normal 9.807853e-001 -1.950904e-001 4.893565e-016
      outer loop
         vertex 7.874677e+001 5.350338e+002 -2.496061e+001
         vertex 5.415707e+001 4.114131e+002 -3.131061e+001
         vertex 7.998559e+001 5.412618e+002 -3.131061e+001
      endloop
   endfacet
   facet normal 9.807853e-001 -1.950904e-001 4.893565e-016
      outer loop
         vertex 7.874677e+001 5.350338e+002 -2.496061e+001
         vertex 7.998559e+001 5.412618e+002 -3.131061e+001
         vertex 7.922084e+001 5.374172e+002 -2.447724e+001
      endloop
   endfacet
   facet normal 9.807853e-001 -1.950904e-001 4.893565e-016
      outer loop
         vertex 7.922084e+001 5.374172e+002 -2.447724e+001
         vertex 7.998559e+001 5.412618e+002 -3.131061e+001
         vertex 7.962274e+001 5.394376e+002 -2.310073e+001
      endloop
   endfacet
   facet normal -3.608489e-016 6.942484e-016 1.000000e+000
      outer loop
         vertex 7.874677e+001 5.350338e+002 -2.496061e+001
         vertex 7.111749e+001 5.365513e+002 -2.496061e+001
         vertex 5.551978e+001 4.182639e+002 -2.496061e+001
      endloop
   endfacet
   facet normal -3.608489e-016 6.942484e-016 1.000000e+000
      outer loop
         vertex 5.551978e+001 4.182639e+002 -2.496061e+001
         vertex 7.111749e+001 5.365513e+002 -2.496061e+001
         vertex 4.789049e+001 4.197814e+002 -2.496061e+001
      endloop
   endfacet
   facet normal -3.608489e-016 6.942484e-016 1.000000e+000
      outer loop
         vertex 1.396253e+002 5.229243e+002 -2.496061e+001
         vertex 1.319960e+002 5.244418e+002 -2.496061e+001
         vertex 1.176372e+002 4.123823e+002 -2.496061e+001
      endloop
   endfacet
   facet normal -3.608489e-016 6.942484e-016 1.000000e+000
      outer loop
         vertex 1.176372e+002 4.123823e+002 -2.496061e+001
         vertex 1.319960e+002 5.244418e+002 -2.496061e+001
         vertex 1.100079e+002 4.138999e+002 -2.496061e+001
      endloop
   endfacet
   facet normal -9.807853e-001 1.950904e-001 -4.893565e-016
      outer loop
         vertex 1.074064e+002 4.008211e+002 -3.131061e+001
         vertex 1.074064e+002 4.008211e+002 -8.470964e+000
         vertex 1.087691e+002 4.076719e+002 -8.470964e+000
      endloop
   endfacet
   facet normal -9.807853e-001 1.950904e-001 -4.893565e-016
      outer loop
         vertex 1.324701e+002 5.268252e+002 -2.447724e+001
         vertex 1.328720e+002 5.288457e+002 -2.310073e+001
         vertex 1.332349e+002 5.306699e+002 -3.131061e+001
      endloop
   endfacet
   facet normal -9.807853e-001 1.950904e-001 -4.893565e-016
      outer loop
         vertex 1.332349e+002 5.306699e+002 -3.131061e+001
         vertex 1.328720e+002 5.288457e+002 -2.310073e+001
         vertex 1.331406e+002 5.301958e+002 -2.104064e+001
      endloop
   endfacet
   facet normal -9.807853e-001 1.950904e-001 -4.893565e-016
      outer loop
         vertex 1.332349e+002 5.306699e+002 -3.131061e+001
         vertex 1.331406e+002 5.301958e+002 -2.104064e+001
         vertex 1.332349e+002 5.306699e+002 -1.861060e+001
      endloop
   endfacet
   facet normal -9.807853e-001 1.950904e-001 -4.893565e-016
      outer loop
         vertex 1.087691e+002 4.076719e+002 -8.470964e+000
         vertex 1.087691e+002 4.076719e+002 -1.861060e+001
         vertex 1.074064e+002 4.008211e+002 -3.131061e+001
      endloop
   endfacet
   facet normal -9.807853e-001 1.950904e-001 -4.893565e-016
      outer loop
         vertex 1.074064e+002 4.008211e+002 -3.131061e+001
         vertex 1.087691e+002 4.076719e+002 -1.861060e+001
         vertex 1.088634e+002 4.081460e+002 -2.104064e+001
      endloop
   endfacet
   facet normal -9.807853e-001 1.950904e-001 -4.893565e-016
      outer loop
         vertex 1.074064e+002 4.008211e+002 -3.131061e+001
         vertex 1.088634e+002 4.081460e+002 -2.104064e+001
         vertex 1.091319e+002 4.094960e+002 -2.310073e+001
      endloop
   endfacet
   facet normal -9.807853e-001 1.950904e-001 -4.893565e-016
      outer loop
         vertex 1.091319e+002 4.094960e+002 -2.310073e+001
         vertex 1.095338e+002 4.115165e+002 -2.447724e+001
         vertex 1.074064e+002 4.008211e+002 -3.131061e+001
      endloop
   endfacet
   facet normal -9.807853e-001 1.950904e-001 -4.893565e-016
      outer loop
         vertex 1.074064e+002 4.008211e+002 -3.131061e+001
         vertex 1.095338e+002 4.115165e+002 -2.447724e+001
         vertex 1.100079e+002 4.138999e+002 -2.496061e+001
      endloop
   endfacet
   facet normal -9.807853e-001 1.950904e-001 -4.893565e-016
      outer loop
         vertex 1.074064e+002 4.008211e+002 -3.131061e+001
         vertex 1.100079e+002 4.138999e+002 -2.496061e+001
         vertex 1.332349e+002 5.306699e+002 -3.131061e+001
      endloop
   endfacet
   facet normal -9.807853e-001 1.950904e-001 -4.893565e-016
      outer loop
         vertex 1.332349e+002 5.306699e+002 -3.131061e+001
         vertex 1.100079e+002 4.138999e+002 -2.496061e+001
         vertex 1.319960e+002 5.244418e+002 -2.496061e+001
      endloop
   endfacet
   facet normal -9.807853e-001 1.950904e-001 -4.893565e-016
      outer loop
         vertex 1.332349e+002 5.306699e+002 -3.131061e+001
         vertex 1.319960e+002 5.244418e+002 -2.496061e+001
         vertex 1.324701e+002 5.268252e+002 -2.447724e+001
      endloop
   endfacet
   facet normal -9.807853e-001 1.950904e-001 -4.893565e-016
      outer loop
         vertex 1.393072e+002 5.294620e+002 -8.470964e+000
         vertex 1.392129e+002 5.289879e+002 -6.040925e+000
         vertex 1.393072e+002 5.294620e+002 4.190355e-001
      endloop
   endfacet
   facet normal -9.807853e-001 1.950904e-001 -4.893565e-016
      outer loop
         vertex 1.393072e+002 5.294620e+002 4.190355e-001
         vertex 1.392129e+002 5.289879e+002 -6.040925e+000
         vertex 1.389443e+002 5.276378e+002 -3.980836e+000
      endloop
   endfacet
   facet normal -9.807853e-001 1.950904e-001 -4.893565e-016
      outer loop
         vertex 1.156061e+002 4.103087e+002 -2.604330e+000
         vertex 1.152042e+002 4.082882e+002 -3.980836e+000
         vertex 1.148413e+002 4.064641e+002 4.190355e-001
      endloop
   endfacet
   facet normal -9.807853e-001 1.950904e-001 -4.893565e-016
      outer loop
         vertex 1.148413e+002 4.064641e+002 4.190355e-001
         vertex 1.152042e+002 4.082882e+002 -3.980836e+000
         vertex 1.149356e+002 4.069381e+002 -6.040925e+000
      endloop
   endfacet
   facet normal -9.807853e-001 1.950904e-001 -4.893565e-016
      outer loop
         vertex 1.148413e+002 4.064641e+002 4.190355e-001
         vertex 1.149356e+002 4.069381e+002 -6.040925e+000
         vertex 1.148413e+002 4.064641e+002 -8.470964e+000
      endloop
   endfacet
   facet normal -9.807853e-001 1.950904e-001 -4.893565e-016
      outer loop
         vertex 1.389443e+002 5.276378e+002 -3.980836e+000
         vertex 1.385424e+002 5.256174e+002 -2.604330e+000
         vertex 1.393072e+002 5.294620e+002 4.190355e-001
      endloop
   endfacet
   facet normal -9.807853e-001 1.950904e-001 -4.893565e-016
      outer loop
         vertex 1.393072e+002 5.294620e+002 4.190355e-001
         vertex 1.385424e+002 5.256174e+002 -2.604330e+000
         vertex 1.380683e+002 5.232340e+002 -2.120965e+000
      endloop
   endfacet
   facet normal -9.807853e-001 1.950904e-001 -4.893565e-016
      outer loop
         vertex 1.393072e+002 5.294620e+002 4.190355e-001
         vertex 1.380683e+002 5.232340e+002 -2.120965e+000
         vertex 1.148413e+002 4.064641e+002 4.190355e-001
      endloop
   endfacet
   facet normal -9.807853e-001 1.950904e-001 -4.893565e-016
      outer loop
         vertex 1.148413e+002 4.064641e+002 4.190355e-001
         vertex 1.380683e+002 5.232340e+002 -2.120965e+000
         vertex 1.160802e+002 4.126920e+002 -2.120965e+000
      endloop
   endfacet
   facet normal -9.807853e-001 1.950904e-001 -4.893565e-016
      outer loop
         vertex 1.148413e+002 4.064641e+002 4.190355e-001
         vertex 1.160802e+002 4.126920e+002 -2.120965e+000
         vertex 1.156061e+002 4.103087e+002 -2.604330e+000
      endloop
   endfacet
   facet normal 9.807853e-001 -1.950904e-001 4.893565e-016
      outer loop
         vertex 4.944749e+001 4.194717e+002 -8.470964e+000
         vertex 4.954179e+001 4.199458e+002 -6.040925e+000
         vertex 4.944749e+001 4.194717e+002 4.190355e-001
      endloop
   endfacet
   facet normal 9.807853e-001 -1.950904e-001 4.893565e-016
      outer loop
         vertex 4.944749e+001 4.194717e+002 4.190355e-001
         vertex 4.954179e+001 4.199458e+002 -6.040925e+000
         vertex 4.981033e+001 4.212958e+002 -3.980836e+000
      endloop
   endfacet
   facet normal 9.807853e-001 -1.950904e-001 4.893565e-016
      outer loop
         vertex 7.314856e+001 5.386250e+002 -2.604330e+000
         vertex 7.355045e+001 5.406455e+002 -3.980836e+000
         vertex 7.391330e+001 5.424696e+002 4.190355e-001
      endloop
   endfacet
   facet normal 9.807853e-001 -1.950904e-001 4.893565e-016
      outer loop
         vertex 7.391330e+001 5.424696e+002 4.190355e-001
         vertex 7.355045e+001 5.406455e+002 -3.980836e+000
         vertex 7.381900e+001 5.419956e+002 -6.040925e+000
      endloop
   endfacet
   facet normal 9.807853e-001 -1.950904e-001 4.893565e-016
      outer loop
         vertex 7.391330e+001 5.424696e+002 4.190355e-001
         vertex 7.381900e+001 5.419956e+002 -6.040925e+000
         vertex 7.391330e+001 5.424696e+002 -8.470964e+000
      endloop
   endfacet
   facet normal 9.807853e-001 -1.950904e-001 4.893565e-016
      outer loop
         vertex 4.981033e+001 4.212958e+002 -3.980836e+000
         vertex 5.021223e+001 4.233163e+002 -2.604330e+000
         vertex 4.944749e+001 4.194717e+002 4.190355e-001
      endloop
   endfacet
   facet normal 9.807853e-001 -1.950904e-001 4.893565e-016
      outer loop
         vertex 4.944749e+001 4.194717e+002 4.190355e-001
         vertex 5.021223e+001 4.233163e+002 -2.604330e+000
         vertex 5.068631e+001 4.256997e+002 -2.120965e+000
      endloop
   endfacet
   facet normal 9.807853e-001 -1.950904e-001 4.893565e-016
      outer loop
         vertex 4.944749e+001 4.194717e+002 4.190355e-001
         vertex 5.068631e+001 4.256997e+002 -2.120965e+000
         vertex 7.391330e+001 5.424696e+002 4.190355e-001
      endloop
   endfacet
   facet normal 9.807853e-001 -1.950904e-001 4.893565e-016
      outer loop
         vertex 7.391330e+001 5.424696e+002 4.190355e-001
         vertex 5.068631e+001 4.256997e+002 -2.120965e+000
         vertex 7.267448e+001 5.362416e+002 -2.120965e+000
      endloop
   endfacet
   facet normal 9.807853e-001 -1.950904e-001 4.893565e-016
      outer loop
         vertex 7.391330e+001 5.424696e+002 4.190355e-001
         vertex 7.267448e+001 5.362416e+002 -2.120965e+000
         vertex 7.314856e+001 5.386250e+002 -2.604330e+000
      endloop
   endfacet
   facet normal -1.950904e-001 -9.807853e-001 -6.692177e-015
      outer loop
         vertex 7.391330e+001 5.424696e+002 -8.470964e+000
         vertex 7.235631e+001 5.427793e+002 -8.470964e+000
         vertex 7.235631e+001 5.427793e+002 -1.861060e+001
      endloop
   endfacet
   facet normal -1.950904e-001 -9.807853e-001 -6.692177e-015
      outer loop
         vertex 7.998559e+001 5.412618e+002 -3.131061e+001
         vertex 1.332349e+002 5.306699e+002 -3.131061e+001
         vertex 7.998559e+001 5.412618e+002 -1.861060e+001
      endloop
   endfacet
   facet normal -1.950904e-001 -9.807853e-001 -6.692177e-015
      outer loop
         vertex 7.998559e+001 5.412618e+002 -1.861060e+001
         vertex 1.332349e+002 5.306699e+002 -3.131061e+001
         vertex 1.332349e+002 5.306699e+002 -1.861060e+001
      endloop
   endfacet
   facet normal -1.950904e-001 -9.807853e-001 -6.692177e-015
      outer loop
         vertex 1.408642e+002 5.291523e+002 -1.861060e+001
         vertex 1.408642e+002 5.291523e+002 -8.470964e+000
         vertex 1.332349e+002 5.306699e+002 -1.861060e+001
      endloop
   endfacet
   facet normal -1.950904e-001 -9.807853e-001 -6.692177e-015
      outer loop
         vertex 1.332349e+002 5.306699e+002 -1.861060e+001
         vertex 1.408642e+002 5.291523e+002 -8.470964e+000
         vertex 1.393072e+002 5.294620e+002 -8.470964e+000
      endloop
   endfacet
   facet normal -1.950904e-001 -9.807853e-001 -6.692177e-015
      outer loop
         vertex 7.235631e+001 5.427793e+002 -1.861060e+001
         vertex 7.998559e+001 5.412618e+002 -1.861060e+001
         vertex 7.391330e+001 5.424696e+002 -8.470964e+000
      endloop
   endfacet
   facet normal -1.950904e-001 -9.807853e-001 -6.692177e-015
      outer loop
         vertex 7.391330e+001 5.424696e+002 -8.470964e+000
         vertex 7.998559e+001 5.412618e+002 -1.861060e+001
         vertex 1.332349e+002 5.306699e+002 -1.861060e+001
      endloop
   endfacet
   facet normal -1.950904e-001 -9.807853e-001 -6.692177e-015
      outer loop
         vertex 7.391330e+001 5.424696e+002 -8.470964e+000
         vertex 1.332349e+002 5.306699e+002 -1.861060e+001
         vertex 7.391330e+001 5.424696e+002 4.190355e-001
      endloop
   endfacet
   facet normal -1.950904e-001 -9.807853e-001 -6.692177e-015
      outer loop
         vertex 7.391330e+001 5.424696e+002 4.190355e-001
         vertex 1.332349e+002 5.306699e+002 -1.861060e+001
         vertex 1.393072e+002 5.294620e+002 -8.470964e+000
      endloop
   endfacet
   facet normal -1.950904e-001 -9.807853e-001 -6.692177e-015
      outer loop
         vertex 7.391330e+001 5.424696e+002 4.190355e-001
         vertex 1.393072e+002 5.294620e+002 -8.470964e+000
         vertex 1.393072e+002 5.294620e+002 4.190355e-001
      endloop
   endfacet
   facet normal -2.531790e-002 -1.272817e-001 9.915434e-001
      outer loop
         vertex 7.111749e+001 5.365513e+002 -2.496061e+001
         vertex 7.874677e+001 5.350338e+002 -2.496061e+001
         vertex 7.159155e+001 5.389347e+002 -2.447724e+001
      endloop
   endfacet
   facet normal -5.063580e-002 -2.545633e-001 9.657295e-001
      outer loop
         vertex 7.159155e+001 5.389347e+002 -2.447724e+001
         vertex 7.874677e+001 5.350338e+002 -2.496061e+001
         vertex 7.922084e+001 5.374172e+002 -2.447724e+001
      endloop
   endfacet
   facet normal -9.741718e-002 -4.897492e-001 8.664038e-001
      outer loop
         vertex 7.159155e+001 5.389347e+002 -2.447724e+001
         vertex 7.922084e+001 5.374172e+002 -2.447724e+001
         vertex 7.199346e+001 5.409552e+002 -2.310073e+001
      endloop
   endfacet
   facet normal -1.188807e-001 -5.976534e-001 7.928920e-001
      outer loop
         vertex 7.199346e+001 5.409552e+002 -2.310073e+001
         vertex 7.922084e+001 5.374172e+002 -2.447724e+001
         vertex 7.962274e+001 5.394376e+002 -2.310073e+001
      endloop
   endfacet
   facet normal -1.546856e-001 -7.776569e-001 6.093621e-001
      outer loop
         vertex 7.199346e+001 5.409552e+002 -2.310073e+001
         vertex 7.962274e+001 5.394376e+002 -2.310073e+001
         vertex 7.226200e+001 5.423053e+002 -2.104064e+001
      endloop
   endfacet
   facet normal -1.690270e-001 -8.497561e-001 4.993439e-001
      outer loop
         vertex 7.226200e+001 5.423053e+002 -2.104064e+001
         vertex 7.962274e+001 5.394376e+002 -2.310073e+001
         vertex 7.989129e+001 5.407877e+002 -2.104064e+001
      endloop
   endfacet
   facet normal -1.884045e-001 -9.471733e-001 2.595505e-001
      outer loop
         vertex 7.226200e+001 5.423053e+002 -2.104064e+001
         vertex 7.989129e+001 5.407877e+002 -2.104064e+001
         vertex 7.235631e+001 5.427793e+002 -1.861060e+001
      endloop
   endfacet
   facet normal -1.934405e-001 -9.724912e-001 1.297753e-001
      outer loop
         vertex 7.235631e+001 5.427793e+002 -1.861060e+001
         vertex 7.989129e+001 5.407877e+002 -2.104064e+001
         vertex 7.998559e+001 5.412618e+002 -1.861060e+001
      endloop
   endfacet
   facet normal -2.531790e-002 -1.272817e-001 9.915434e-001
      outer loop
         vertex 1.319960e+002 5.244418e+002 -2.496061e+001
         vertex 1.396253e+002 5.229243e+002 -2.496061e+001
         vertex 1.324701e+002 5.268252e+002 -2.447724e+001
      endloop
   endfacet
   facet normal -5.063580e-002 -2.545633e-001 9.657295e-001
      outer loop
         vertex 1.324701e+002 5.268252e+002 -2.447724e+001
         vertex 1.396253e+002 5.229243e+002 -2.496061e+001
         vertex 1.400994e+002 5.253077e+002 -2.447724e+001
      endloop
   endfacet
   facet normal -9.741718e-002 -4.897492e-001 8.664038e-001
      outer loop
         vertex 1.324701e+002 5.268252e+002 -2.447724e+001
         vertex 1.400994e+002 5.253077e+002 -2.447724e+001
         vertex 1.328720e+002 5.288457e+002 -2.310073e+001
      endloop
   endfacet
   facet normal -1.188807e-001 -5.976534e-001 7.928920e-001
      outer loop
         vertex 1.328720e+002 5.288457e+002 -2.310073e+001
         vertex 1.400994e+002 5.253077e+002 -2.447724e+001
         vertex 1.405013e+002 5.273281e+002 -2.310073e+001
      endloop
   endfacet
   facet normal -1.546856e-001 -7.776569e-001 6.093621e-001
      outer loop
         vertex 1.328720e+002 5.288457e+002 -2.310073e+001
         vertex 1.405013e+002 5.273281e+002 -2.310073e+001
         vertex 1.331406e+002 5.301958e+002 -2.104064e+001
      endloop
   endfacet
   facet normal -1.690270e-001 -8.497561e-001 4.993439e-001
      outer loop
         vertex 1.331406e+002 5.301958e+002 -2.104064e+001
         vertex 1.405013e+002 5.273281e+002 -2.310073e+001
         vertex 1.407699e+002 5.286782e+002 -2.104064e+001
      endloop
   endfacet
   facet normal -1.884045e-001 -9.471733e-001 2.595505e-001
      outer loop
         vertex 1.331406e+002 5.301958e+002 -2.104064e+001
         vertex 1.407699e+002 5.286782e+002 -2.104064e+001
         vertex 1.332349e+002 5.306699e+002 -1.861060e+001
      endloop
   endfacet
   facet normal -1.934405e-001 -9.724912e-001 1.297753e-001
      outer loop
         vertex 1.332349e+002 5.306699e+002 -1.861060e+001
         vertex 1.407699e+002 5.286782e+002 -2.104064e+001
         vertex 1.408642e+002 5.291523e+002 -1.861060e+001
      endloop
   endfacet
   facet normal 1.950904e-001 9.807853e-001 -6.105106e-016
      outer loop
         vertex 1.194087e+002 4.212883e+002 7.805395e+000
         vertex 1.194087e+002 4.212883e+002 1.455395e+000
         vertex 5.090083e+001 4.349154e+002 7.805395e+000
      endloop
   endfacet
   facet normal 1.950904e-001 9.807853e-001 -6.105106e-016
      outer loop
         vertex 5.090083e+001 4.349154e+002 7.805395e+000
         vertex 1.194087e+002 4.212883e+002 1.455395e+000
         vertex 5.090083e+001 4.349154e+002 1.455395e+000
      endloop
   endfacet
   facet normal 1.950904e-001 9.807853e-001 -3.950188e-016
      outer loop
         vertex 8.752139e+001 4.276311e+002 7.805395e+000
         vertex 8.752139e+001 4.276311e+002 1.405379e+001
         vertex 1.194087e+002 4.212883e+002 7.805395e+000
      endloop
   endfacet
   facet normal 1.950904e-001 9.807853e-001 -3.950188e-016
      outer loop
         vertex 1.194087e+002 4.212883e+002 7.805395e+000
         vertex 8.752139e+001 4.276311e+002 1.405379e+001
         vertex 1.194087e+002 4.212883e+002 1.405379e+001
      endloop
   endfacet
   facet normal -1.950904e-001 -9.807853e-001 6.105106e-016
      outer loop
         vertex 1.410987e+002 5.303315e+002 2.685539e+001
         vertex 1.071562e+002 5.370830e+002 2.685539e+001
         vertex 1.410987e+002 5.303315e+002 7.805395e+000
      endloop
   endfacet
   facet normal -1.950904e-001 -9.807853e-001 6.105106e-016
      outer loop
         vertex 1.410987e+002 5.303315e+002 7.805395e+000
         vertex 1.071562e+002 5.370830e+002 2.685539e+001
         vertex 1.071562e+002 5.370830e+002 7.805395e+000
      endloop
   endfacet
   facet normal -1.950904e-001 -9.807853e-001 6.105106e-016
      outer loop
         vertex 7.259086e+001 5.439586e+002 7.805395e+000
         vertex 1.065334e+002 5.372070e+002 7.805395e+000
         vertex 7.259086e+001 5.439586e+002 2.685539e+001
      endloop
   endfacet
   facet normal -1.950904e-001 -9.807853e-001 6.105106e-016
      outer loop
         vertex 7.259086e+001 5.439586e+002 2.685539e+001
         vertex 1.065334e+002 5.372070e+002 7.805395e+000
         vertex 1.065334e+002 5.372070e+002 2.685539e+001
      endloop
   endfacet
   facet normal -1.950904e-001 -9.807853e-001 6.105106e-016
      outer loop
         vertex 6.816013e+001 5.216837e+002 7.805395e+000
         vertex 6.816013e+001 5.216837e+002 1.455395e+000
         vertex 1.366680e+002 5.080566e+002 7.805395e+000
      endloop
   endfacet
   facet normal -1.950904e-001 -9.807853e-001 6.105106e-016
      outer loop
         vertex 1.366680e+002 5.080566e+002 7.805395e+000
         vertex 6.816013e+001 5.216837e+002 1.455395e+000
         vertex 1.366680e+002 5.080566e+002 1.455395e+000
      endloop
   endfacet
   facet normal -1.950904e-001 -9.807853e-001 7.503812e-016
      outer loop
         vertex 1.047807e+002 5.143995e+002 1.405379e+001
         vertex 1.047807e+002 5.143995e+002 7.805395e+000
         vertex 1.366680e+002 5.080566e+002 1.405379e+001
      endloop
   endfacet
   facet normal -1.950904e-001 -9.807853e-001 7.503812e-016
      outer loop
         vertex 1.366680e+002 5.080566e+002 1.405379e+001
         vertex 1.047807e+002 5.143995e+002 7.805395e+000
         vertex 1.366680e+002 5.080566e+002 7.805395e+000
      endloop
   endfacet
   facet normal -1.950904e-001 -9.807853e-001 6.105106e-016
      outer loop
         vertex 1.000474e+002 5.153409e+002 7.805395e+000
         vertex 1.000474e+002 5.153409e+002 1.405379e+001
         vertex 6.816013e+001 5.216837e+002 7.805395e+000
      endloop
   endfacet
   facet normal -1.950904e-001 -9.807853e-001 6.105106e-016
      outer loop
         vertex 6.816013e+001 5.216837e+002 7.805395e+000
         vertex 1.000474e+002 5.153409e+002 1.405379e+001
         vertex 6.816013e+001 5.216837e+002 1.405379e+001
      endloop
   endfacet
   facet normal -1.950904e-001 -9.807853e-001 -3.016631e-016
      outer loop
         vertex -7.427254e+001 -3.857619e+002 1.405379e+001
         vertex -7.427254e+001 -3.857619e+002 7.805395e+000
         vertex -4.238525e+001 -3.921047e+002 1.405379e+001
      endloop
   endfacet
   facet normal -1.950904e-001 -9.807853e-001 -3.016631e-016
      outer loop
         vertex -4.238525e+001 -3.921047e+002 1.405379e+001
         vertex -7.427254e+001 -3.857619e+002 7.805395e+000
         vertex -4.238525e+001 -3.921047e+002 7.805395e+000
      endloop
   endfacet
   facet normal -9.807853e-001 1.950904e-001 2.389321e-016
      outer loop
         vertex -6.463297e+001 -4.958143e+002 -2.604330e+000
         vertex -6.503487e+001 -4.978348e+002 -3.980836e+000
         vertex -6.539772e+001 -4.996589e+002 4.190355e-001
      endloop
   endfacet
   facet normal -9.807853e-001 1.950904e-001 2.389321e-016
      outer loop
         vertex -6.539772e+001 -4.996589e+002 4.190355e-001
         vertex -6.503487e+001 -4.978348e+002 -3.980836e+000
         vertex -6.530342e+001 -4.991848e+002 -6.040925e+000
      endloop
   endfacet
   facet normal -9.807853e-001 1.950904e-001 2.389321e-016
      outer loop
         vertex -6.539772e+001 -4.996589e+002 4.190355e-001
         vertex -6.530342e+001 -4.991848e+002 -6.040925e+000
         vertex -6.539772e+001 -4.996589e+002 -8.470964e+000
      endloop
   endfacet
   facet normal -9.807853e-001 1.950904e-001 2.389321e-016
      outer loop
         vertex -4.093191e+001 -3.766610e+002 -8.470964e+000
         vertex -4.102621e+001 -3.771351e+002 -6.040925e+000
         vertex -4.093191e+001 -3.766610e+002 4.190355e-001
      endloop
   endfacet
   facet normal -9.807853e-001 1.950904e-001 2.389321e-016
      outer loop
         vertex -4.093191e+001 -3.766610e+002 4.190355e-001
         vertex -4.102621e+001 -3.771351e+002 -6.040925e+000
         vertex -4.129475e+001 -3.784851e+002 -3.980836e+000
      endloop
   endfacet
   facet normal -9.807853e-001 1.950904e-001 2.389321e-016
      outer loop
         vertex -4.129475e+001 -3.784851e+002 -3.980836e+000
         vertex -4.169666e+001 -3.805056e+002 -2.604330e+000
         vertex -4.093191e+001 -3.766610e+002 4.190355e-001
      endloop
   endfacet
   facet normal -9.807853e-001 1.950904e-001 2.389321e-016
      outer loop
         vertex -4.093191e+001 -3.766610e+002 4.190355e-001
         vertex -4.169666e+001 -3.805056e+002 -2.604330e+000
         vertex -4.217073e+001 -3.828890e+002 -2.120965e+000
      endloop
   endfacet
   facet normal -9.807853e-001 1.950904e-001 2.389321e-016
      outer loop
         vertex -4.093191e+001 -3.766610e+002 4.190355e-001
         vertex -4.217073e+001 -3.828890e+002 -2.120965e+000
         vertex -6.539772e+001 -4.996589e+002 4.190355e-001
      endloop
   endfacet
   facet normal -9.807853e-001 1.950904e-001 2.389321e-016
      outer loop
         vertex -6.539772e+001 -4.996589e+002 4.190355e-001
         vertex -4.217073e+001 -3.828890e+002 -2.120965e+000
         vertex -6.415890e+001 -4.934309e+002 -2.120965e+000
      endloop
   endfacet
   facet normal -9.807853e-001 1.950904e-001 2.389321e-016
      outer loop
         vertex -6.539772e+001 -4.996589e+002 4.190355e-001
         vertex -6.415890e+001 -4.934309e+002 -2.120965e+000
         vertex -6.463297e+001 -4.958143e+002 -2.604330e+000
      endloop
   endfacet
   facet normal -1.950904e-001 -9.807853e-001 -4.404410e-016
      outer loop
         vertex -1.063258e+002 -3.636533e+002 -8.470964e+000
         vertex -1.078828e+002 -3.633436e+002 -8.470964e+000
         vertex -1.078828e+002 -3.633436e+002 -1.861060e+001
      endloop
   endfacet
   facet normal -1.950904e-001 -9.807853e-001 -4.404410e-016
      outer loop
         vertex -3.937491e+001 -3.769707e+002 -2.496061e+001
         vertex -3.937491e+001 -3.769707e+002 -8.470964e+000
         vertex -4.700420e+001 -3.754532e+002 -2.496061e+001
      endloop
   endfacet
   facet normal -1.950904e-001 -9.807853e-001 -4.404410e-016
      outer loop
         vertex -4.700420e+001 -3.754532e+002 -2.496061e+001
         vertex -3.937491e+001 -3.769707e+002 -8.470964e+000
         vertex -4.093191e+001 -3.766610e+002 -8.470964e+000
      endloop
   endfacet
   facet normal -1.950904e-001 -9.807853e-001 -4.404410e-016
      outer loop
         vertex -3.937491e+001 -3.769707e+002 4.190355e-001
         vertex -3.937491e+001 -3.769707e+002 1.455395e+000
         vertex -4.093191e+001 -3.766610e+002 4.190355e-001
      endloop
   endfacet
   facet normal -1.950904e-001 -9.807853e-001 -4.404410e-016
      outer loop
         vertex -4.093191e+001 -3.766610e+002 4.190355e-001
         vertex -3.937491e+001 -3.769707e+002 1.455395e+000
         vertex -1.078828e+002 -3.633436e+002 1.455395e+000
      endloop
   endfacet
   facet normal -1.950904e-001 -9.807853e-001 -4.404410e-016
      outer loop
         vertex -4.093191e+001 -3.766610e+002 4.190355e-001
         vertex -1.078828e+002 -3.633436e+002 1.455395e+000
         vertex -1.063258e+002 -3.636533e+002 4.190355e-001
      endloop
   endfacet
   facet normal -1.950904e-001 -9.807853e-001 -4.404410e-016
      outer loop
         vertex -1.063258e+002 -3.636533e+002 4.190355e-001
         vertex -1.078828e+002 -3.633436e+002 1.455395e+000
         vertex -1.078828e+002 -3.633436e+002 4.190355e-001
      endloop
   endfacet
   facet normal -1.950904e-001 -9.807853e-001 -4.404410e-016
      outer loop
         vertex -1.063258e+002 -3.636533e+002 4.190355e-001
         vertex -9.842934e+001 -3.652240e+002 -3.980836e+000
         vertex -9.640884e+001 -3.656259e+002 -2.604330e+000
      endloop
   endfacet
   facet normal -1.950904e-001 -9.807853e-001 -4.404410e-016
      outer loop
         vertex -4.093191e+001 -3.766610e+002 4.190355e-001
         vertex -4.882833e+001 -3.750903e+002 -3.980836e+000
         vertex -4.747828e+001 -3.753589e+002 -6.040925e+000
      endloop
   endfacet
   facet normal -1.950904e-001 -9.807853e-001 -4.404410e-016
      outer loop
         vertex -1.078828e+002 -3.633436e+002 -1.861060e+001
         vertex -1.002535e+002 -3.648612e+002 -1.861060e+001
         vertex -1.063258e+002 -3.636533e+002 -8.470964e+000
      endloop
   endfacet
   facet normal -1.950904e-001 -9.807853e-001 -4.404410e-016
      outer loop
         vertex -1.063258e+002 -3.636533e+002 -8.470964e+000
         vertex -1.002535e+002 -3.648612e+002 -1.861060e+001
         vertex -1.002535e+002 -3.648612e+002 -8.470964e+000
      endloop
   endfacet
   facet normal -1.950904e-001 -9.807853e-001 -4.404410e-016
      outer loop
         vertex -1.063258e+002 -3.636533e+002 -8.470964e+000
         vertex -1.002535e+002 -3.648612e+002 -8.470964e+000
         vertex -1.063258e+002 -3.636533e+002 4.190355e-001
      endloop
   endfacet
   facet normal -1.950904e-001 -9.807853e-001 -4.404410e-016
      outer loop
         vertex -1.063258e+002 -3.636533e+002 4.190355e-001
         vertex -1.002535e+002 -3.648612e+002 -8.470964e+000
         vertex -9.977940e+001 -3.649555e+002 -6.040925e+000
      endloop
   endfacet
   facet normal -1.950904e-001 -9.807853e-001 -4.404410e-016
      outer loop
         vertex -1.063258e+002 -3.636533e+002 4.190355e-001
         vertex -9.977940e+001 -3.649555e+002 -6.040925e+000
         vertex -9.842934e+001 -3.652240e+002 -3.980836e+000
      endloop
   endfacet
   facet normal -1.950904e-001 -9.807853e-001 -4.404410e-016
      outer loop
         vertex -4.093191e+001 -3.766610e+002 4.190355e-001
         vertex -4.747828e+001 -3.753589e+002 -6.040925e+000
         vertex -4.093191e+001 -3.766610e+002 -8.470964e+000
      endloop
   endfacet
   facet normal -1.950904e-001 -9.807853e-001 -4.404410e-016
      outer loop
         vertex -4.093191e+001 -3.766610e+002 -8.470964e+000
         vertex -4.747828e+001 -3.753589e+002 -6.040925e+000
         vertex -4.700420e+001 -3.754532e+002 -8.470964e+000
      endloop
   endfacet
   facet normal -1.950904e-001 -9.807853e-001 -4.404410e-016
      outer loop
         vertex -4.093191e+001 -3.766610e+002 -8.470964e+000
         vertex -4.700420e+001 -3.754532e+002 -8.470964e+000
         vertex -4.700420e+001 -3.754532e+002 -2.496061e+001
      endloop
   endfacet
   facet normal -1.950904e-001 -9.807853e-001 -4.404410e-016
      outer loop
         vertex -9.640884e+001 -3.656259e+002 -2.604330e+000
         vertex -9.402549e+001 -3.661000e+002 -2.120965e+000
         vertex -1.063258e+002 -3.636533e+002 4.190355e-001
      endloop
   endfacet
   facet normal -1.950904e-001 -9.807853e-001 -4.404410e-016
      outer loop
         vertex -1.063258e+002 -3.636533e+002 4.190355e-001
         vertex -9.402549e+001 -3.661000e+002 -2.120965e+000
         vertex -5.323218e+001 -3.742143e+002 -2.120965e+000
      endloop
   endfacet
   facet normal -1.950904e-001 -9.807853e-001 -4.404410e-016
      outer loop
         vertex -1.063258e+002 -3.636533e+002 4.190355e-001
         vertex -5.323218e+001 -3.742143e+002 -2.120965e+000
         vertex -4.093191e+001 -3.766610e+002 4.190355e-001
      endloop
   endfacet
   facet normal -1.950904e-001 -9.807853e-001 -4.404410e-016
      outer loop
         vertex -4.093191e+001 -3.766610e+002 4.190355e-001
         vertex -5.323218e+001 -3.742143e+002 -2.120965e+000
         vertex -5.084883e+001 -3.746884e+002 -2.604330e+000
      endloop
   endfacet
   facet normal -1.950904e-001 -9.807853e-001 -4.404410e-016
      outer loop
         vertex -4.093191e+001 -3.766610e+002 4.190355e-001
         vertex -5.084883e+001 -3.746884e+002 -2.604330e+000
         vertex -4.882833e+001 -3.750903e+002 -3.980836e+000
      endloop
   endfacet
   facet normal -2.531790e-002 -1.272817e-001 9.915434e-001
      outer loop
         vertex -1.091216e+002 -3.695716e+002 -2.496061e+001
         vertex -1.014923e+002 -3.710892e+002 -2.496061e+001
         vertex -1.086475e+002 -3.671883e+002 -2.447724e+001
      endloop
   endfacet
   facet normal -5.063580e-002 -2.545633e-001 9.657295e-001
      outer loop
         vertex -1.086475e+002 -3.671883e+002 -2.447724e+001
         vertex -1.014923e+002 -3.710892e+002 -2.496061e+001
         vertex -1.010182e+002 -3.687058e+002 -2.447724e+001
      endloop
   endfacet
   facet normal -9.741718e-002 -4.897492e-001 8.664038e-001
      outer loop
         vertex -1.086475e+002 -3.671883e+002 -2.447724e+001
         vertex -1.010182e+002 -3.687058e+002 -2.447724e+001
         vertex -1.082456e+002 -3.651678e+002 -2.310073e+001
      endloop
   endfacet
   facet normal -1.188807e-001 -5.976534e-001 7.928920e-001
      outer loop
         vertex -1.082456e+002 -3.651678e+002 -2.310073e+001
         vertex -1.010182e+002 -3.687058e+002 -2.447724e+001
         vertex -1.006163e+002 -3.666853e+002 -2.310073e+001
      endloop
   endfacet
   facet normal -1.546856e-001 -7.776569e-001 6.093621e-001
      outer loop
         vertex -1.082456e+002 -3.651678e+002 -2.310073e+001
         vertex -1.006163e+002 -3.666853e+002 -2.310073e+001
         vertex -1.079771e+002 -3.638177e+002 -2.104064e+001
      endloop
   endfacet
   facet normal -1.690270e-001 -8.497561e-001 4.993439e-001
      outer loop
         vertex -1.079771e+002 -3.638177e+002 -2.104064e+001
         vertex -1.006163e+002 -3.666853e+002 -2.310073e+001
         vertex -1.003478e+002 -3.653353e+002 -2.104064e+001
      endloop
   endfacet
   facet normal -1.884045e-001 -9.471733e-001 2.595505e-001
      outer loop
         vertex -1.079771e+002 -3.638177e+002 -2.104064e+001
         vertex -1.003478e+002 -3.653353e+002 -2.104064e+001
         vertex -1.078828e+002 -3.633436e+002 -1.861060e+001
      endloop
   endfacet
   facet normal -1.934405e-001 -9.724912e-001 1.297753e-001
      outer loop
         vertex -1.078828e+002 -3.633436e+002 -1.861060e+001
         vertex -1.003478e+002 -3.653353e+002 -2.104064e+001
         vertex -1.002535e+002 -3.648612e+002 -1.861060e+001
      endloop
   endfacet
   facet normal 1.484153e-016 -4.785913e-016 1.000000e+000
      outer loop
         vertex -1.311098e+002 -4.801136e+002 -2.496061e+001
         vertex -1.234805e+002 -4.816312e+002 -2.496061e+001
         vertex -1.091216e+002 -3.695716e+002 -2.496061e+001
      endloop
   endfacet
   facet normal 1.484153e-016 -4.785913e-016 1.000000e+000
      outer loop
         vertex -1.091216e+002 -3.695716e+002 -2.496061e+001
         vertex -1.234805e+002 -4.816312e+002 -2.496061e+001
         vertex -1.014923e+002 -3.710892e+002 -2.496061e+001
      endloop
   endfacet
   facet normal -9.807853e-001 1.950904e-001 2.389321e-016
      outer loop
         vertex -7.147001e+001 -4.984511e+002 -1.861060e+001
         vertex -7.137570e+001 -4.979770e+002 -2.104064e+001
         vertex -7.147001e+001 -4.984511e+002 -3.131061e+001
      endloop
   endfacet
   facet normal -9.807853e-001 1.950904e-001 2.389321e-016
      outer loop
         vertex -7.147001e+001 -4.984511e+002 -3.131061e+001
         vertex -7.137570e+001 -4.979770e+002 -2.104064e+001
         vertex -7.110716e+001 -4.966270e+002 -2.310073e+001
      endloop
   endfacet
   facet normal -9.807853e-001 1.950904e-001 2.389321e-016
      outer loop
         vertex -4.700420e+001 -3.754532e+002 -8.470964e+000
         vertex -4.564149e+001 -3.686023e+002 -8.470964e+000
         vertex -4.700420e+001 -3.754532e+002 -2.496061e+001
      endloop
   endfacet
   facet normal -9.807853e-001 1.950904e-001 2.389321e-016
      outer loop
         vertex -4.700420e+001 -3.754532e+002 -2.496061e+001
         vertex -4.564149e+001 -3.686023e+002 -8.470964e+000
         vertex -4.564149e+001 -3.686023e+002 -3.131061e+001
      endloop
   endfacet
   facet normal -9.807853e-001 1.950904e-001 2.389321e-016
      outer loop
         vertex -4.700420e+001 -3.754532e+002 -2.496061e+001
         vertex -4.564149e+001 -3.686023e+002 -3.131061e+001
         vertex -7.023119e+001 -4.922231e+002 -2.496061e+001
      endloop
   endfacet
   facet normal -9.807853e-001 1.950904e-001 2.389321e-016
      outer loop
         vertex -7.023119e+001 -4.922231e+002 -2.496061e+001
         vertex -4.564149e+001 -3.686023e+002 -3.131061e+001
         vertex -7.147001e+001 -4.984511e+002 -3.131061e+001
      endloop
   endfacet
   facet normal -9.807853e-001 1.950904e-001 2.389321e-016
      outer loop
         vertex -7.023119e+001 -4.922231e+002 -2.496061e+001
         vertex -7.147001e+001 -4.984511e+002 -3.131061e+001
         vertex -7.070525e+001 -4.946064e+002 -2.447724e+001
      endloop
   endfacet
   facet normal -9.807853e-001 1.950904e-001 2.389321e-016
      outer loop
         vertex -7.070525e+001 -4.946064e+002 -2.447724e+001
         vertex -7.147001e+001 -4.984511e+002 -3.131061e+001
         vertex -7.110716e+001 -4.966270e+002 -2.310073e+001
      endloop
   endfacet
   facet normal 1.484153e-016 -4.785913e-016 1.000000e+000
      outer loop
         vertex -7.023119e+001 -4.922231e+002 -2.496061e+001
         vertex -6.260190e+001 -4.937407e+002 -2.496061e+001
         vertex -4.700420e+001 -3.754532e+002 -2.496061e+001
      endloop
   endfacet
   facet normal 1.484153e-016 -4.785913e-016 1.000000e+000
      outer loop
         vertex -4.700420e+001 -3.754532e+002 -2.496061e+001
         vertex -6.260190e+001 -4.937407e+002 -2.496061e+001
         vertex -3.937491e+001 -3.769707e+002 -2.496061e+001
      endloop
   endfacet
   facet normal 9.807853e-001 -1.950904e-001 -2.389321e-016
      outer loop
         vertex -1.239546e+002 -4.840145e+002 -2.447724e+001
         vertex -1.243564e+002 -4.860350e+002 -2.310073e+001
         vertex -1.247193e+002 -4.878591e+002 -3.131061e+001
      endloop
   endfacet
   facet normal 9.807853e-001 -1.950904e-001 -2.389321e-016
      outer loop
         vertex -1.247193e+002 -4.878591e+002 -3.131061e+001
         vertex -1.243564e+002 -4.860350e+002 -2.310073e+001
         vertex -1.246250e+002 -4.873851e+002 -2.104064e+001
      endloop
   endfacet
   facet normal 9.807853e-001 -1.950904e-001 -2.389321e-016
      outer loop
         vertex -1.247193e+002 -4.878591e+002 -3.131061e+001
         vertex -1.246250e+002 -4.873851e+002 -2.104064e+001
         vertex -1.247193e+002 -4.878591e+002 -1.861060e+001
      endloop
   endfacet
   facet normal 9.807853e-001 -1.950904e-001 -2.389321e-016
      outer loop
         vertex -9.889078e+001 -3.580104e+002 -3.131061e+001
         vertex -9.889078e+001 -3.580104e+002 -8.470964e+000
         vertex -1.002535e+002 -3.648612e+002 -8.470964e+000
      endloop
   endfacet
   facet normal 9.807853e-001 -1.950904e-001 -2.389321e-016
      outer loop
         vertex -1.002535e+002 -3.648612e+002 -8.470964e+000
         vertex -1.002535e+002 -3.648612e+002 -1.861060e+001
         vertex -9.889078e+001 -3.580104e+002 -3.131061e+001
      endloop
   endfacet
   facet normal 9.807853e-001 -1.950904e-001 -2.389321e-016
      outer loop
         vertex -9.889078e+001 -3.580104e+002 -3.131061e+001
         vertex -1.002535e+002 -3.648612e+002 -1.861060e+001
         vertex -1.003478e+002 -3.653353e+002 -2.104064e+001
      endloop
   endfacet
   facet normal 9.807853e-001 -1.950904e-001 -2.389321e-016
      outer loop
         vertex -9.889078e+001 -3.580104e+002 -3.131061e+001
         vertex -1.003478e+002 -3.653353e+002 -2.104064e+001
         vertex -1.006163e+002 -3.666853e+002 -2.310073e+001
      endloop
   endfacet
   facet normal 9.807853e-001 -1.950904e-001 -2.389321e-016
      outer loop
         vertex -1.006163e+002 -3.666853e+002 -2.310073e+001
         vertex -1.010182e+002 -3.687058e+002 -2.447724e+001
         vertex -9.889078e+001 -3.580104e+002 -3.131061e+001
      endloop
   endfacet
   facet normal 9.807853e-001 -1.950904e-001 -2.389321e-016
      outer loop
         vertex -9.889078e+001 -3.580104e+002 -3.131061e+001
         vertex -1.010182e+002 -3.687058e+002 -2.447724e+001
         vertex -1.014923e+002 -3.710892e+002 -2.496061e+001
      endloop
   endfacet
   facet normal 9.807853e-001 -1.950904e-001 -2.389321e-016
      outer loop
         vertex -9.889078e+001 -3.580104e+002 -3.131061e+001
         vertex -1.014923e+002 -3.710892e+002 -2.496061e+001
         vertex -1.247193e+002 -4.878591e+002 -3.131061e+001
      endloop
   endfacet
   facet normal 9.807853e-001 -1.950904e-001 -2.389321e-016
      outer loop
         vertex -1.247193e+002 -4.878591e+002 -3.131061e+001
         vertex -1.014923e+002 -3.710892e+002 -2.496061e+001
         vertex -1.234805e+002 -4.816312e+002 -2.496061e+001
      endloop
   endfacet
   facet normal 9.807853e-001 -1.950904e-001 -2.389321e-016
      outer loop
         vertex -1.247193e+002 -4.878591e+002 -3.131061e+001
         vertex -1.234805e+002 -4.816312e+002 -2.496061e+001
         vertex -1.239546e+002 -4.840145e+002 -2.447724e+001
      endloop
   endfacet
   facet normal 1.950904e-001 9.807853e-001 -6.862247e-015
      outer loop
         vertex -6.539772e+001 -4.996589e+002 -8.470964e+000
         vertex -6.384072e+001 -4.999687e+002 -8.470964e+000
         vertex -6.384072e+001 -4.999687e+002 -1.861060e+001
      endloop
   endfacet
   facet normal 1.950904e-001 9.807853e-001 -6.862247e-015
      outer loop
         vertex -7.147001e+001 -4.984511e+002 -3.131061e+001
         vertex -1.247193e+002 -4.878591e+002 -3.131061e+001
         vertex -7.147001e+001 -4.984511e+002 -1.861060e+001
      endloop
   endfacet
   facet normal 1.950904e-001 9.807853e-001 -6.862247e-015
      outer loop
         vertex -7.147001e+001 -4.984511e+002 -1.861060e+001
         vertex -1.247193e+002 -4.878591e+002 -3.131061e+001
         vertex -1.247193e+002 -4.878591e+002 -1.861060e+001
      endloop
   endfacet
   facet normal 1.950904e-001 9.807853e-001 -6.862247e-015
      outer loop
         vertex -1.323486e+002 -4.863416e+002 -1.861060e+001
         vertex -1.323486e+002 -4.863416e+002 -8.470964e+000
         vertex -1.247193e+002 -4.878591e+002 -1.861060e+001
      endloop
   endfacet
   facet normal 1.950904e-001 9.807853e-001 -6.862247e-015
      outer loop
         vertex -1.247193e+002 -4.878591e+002 -1.861060e+001
         vertex -1.323486e+002 -4.863416e+002 -8.470964e+000
         vertex -1.307916e+002 -4.866513e+002 -8.470964e+000
      endloop
   endfacet
   facet normal 1.950904e-001 9.807853e-001 -6.862247e-015
      outer loop
         vertex -6.384072e+001 -4.999687e+002 -1.861060e+001
         vertex -7.147001e+001 -4.984511e+002 -1.861060e+001
         vertex -6.539772e+001 -4.996589e+002 -8.470964e+000
      endloop
   endfacet
   facet normal 1.950904e-001 9.807853e-001 -6.862247e-015
      outer loop
         vertex -6.539772e+001 -4.996589e+002 -8.470964e+000
         vertex -7.147001e+001 -4.984511e+002 -1.861060e+001
         vertex -1.247193e+002 -4.878591e+002 -1.861060e+001
      endloop
   endfacet
   facet normal 1.950904e-001 9.807853e-001 -6.862247e-015
      outer loop
         vertex -6.539772e+001 -4.996589e+002 -8.470964e+000
         vertex -1.247193e+002 -4.878591e+002 -1.861060e+001
         vertex -6.539772e+001 -4.996589e+002 4.190355e-001
      endloop
   endfacet
   facet normal 1.950904e-001 9.807853e-001 -6.862247e-015
      outer loop
         vertex -6.539772e+001 -4.996589e+002 4.190355e-001
         vertex -1.247193e+002 -4.878591e+002 -1.861060e+001
         vertex -1.307916e+002 -4.866513e+002 -8.470964e+000
      endloop
   endfacet
   facet normal 1.950904e-001 9.807853e-001 -6.862247e-015
      outer loop
         vertex -6.539772e+001 -4.996589e+002 4.190355e-001
         vertex -1.307916e+002 -4.866513e+002 -8.470964e+000
         vertex -1.307916e+002 -4.866513e+002 4.190355e-001
      endloop
   endfacet
   facet normal 9.807853e-001 -1.950904e-001 -2.389321e-016
      outer loop
         vertex -1.304287e+002 -4.848271e+002 -3.980836e+000
         vertex -1.307916e+002 -4.866513e+002 4.190355e-001
         vertex -1.306973e+002 -4.861772e+002 -6.040925e+000
      endloop
   endfacet
   facet normal 9.807853e-001 -1.950904e-001 -2.389321e-016
      outer loop
         vertex -1.306973e+002 -4.861772e+002 -6.040925e+000
         vertex -1.307916e+002 -4.866513e+002 4.190355e-001
         vertex -1.307916e+002 -4.866513e+002 -8.470964e+000
      endloop
   endfacet
   facet normal 9.807853e-001 -1.950904e-001 -2.389321e-016
      outer loop
         vertex -1.070905e+002 -3.674980e+002 -2.604330e+000
         vertex -1.066886e+002 -3.654775e+002 -3.980836e+000
         vertex -1.063258e+002 -3.636533e+002 4.190355e-001
      endloop
   endfacet
   facet normal 9.807853e-001 -1.950904e-001 -2.389321e-016
      outer loop
         vertex -1.063258e+002 -3.636533e+002 4.190355e-001
         vertex -1.066886e+002 -3.654775e+002 -3.980836e+000
         vertex -1.064201e+002 -3.641274e+002 -6.040925e+000
      endloop
   endfacet
   facet normal 9.807853e-001 -1.950904e-001 -2.389321e-016
      outer loop
         vertex -1.063258e+002 -3.636533e+002 4.190355e-001
         vertex -1.064201e+002 -3.641274e+002 -6.040925e+000
         vertex -1.063258e+002 -3.636533e+002 -8.470964e+000
      endloop
   endfacet
   facet normal 9.807853e-001 -1.950904e-001 -2.389321e-016
      outer loop
         vertex -1.304287e+002 -4.848271e+002 -3.980836e+000
         vertex -1.300268e+002 -4.828066e+002 -2.604330e+000
         vertex -1.307916e+002 -4.866513e+002 4.190355e-001
      endloop
   endfacet
   facet normal 9.807853e-001 -1.950904e-001 -2.389321e-016
      outer loop
         vertex -1.307916e+002 -4.866513e+002 4.190355e-001
         vertex -1.300268e+002 -4.828066e+002 -2.604330e+000
         vertex -1.295527e+002 -4.804233e+002 -2.120965e+000
      endloop
   endfacet
   facet normal 9.807853e-001 -1.950904e-001 -2.389321e-016
      outer loop
         vertex -1.307916e+002 -4.866513e+002 4.190355e-001
         vertex -1.295527e+002 -4.804233e+002 -2.120965e+000
         vertex -1.063258e+002 -3.636533e+002 4.190355e-001
      endloop
   endfacet
   facet normal 9.807853e-001 -1.950904e-001 -2.389321e-016
      outer loop
         vertex -1.063258e+002 -3.636533e+002 4.190355e-001
         vertex -1.295527e+002 -4.804233e+002 -2.120965e+000
         vertex -1.075646e+002 -3.698813e+002 -2.120965e+000
      endloop
   endfacet
   facet normal 9.807853e-001 -1.950904e-001 -2.389321e-016
      outer loop
         vertex -1.063258e+002 -3.636533e+002 4.190355e-001
         vertex -1.075646e+002 -3.698813e+002 -2.120965e+000
         vertex -1.070905e+002 -3.674980e+002 -2.604330e+000
      endloop
   endfacet
   facet normal 2.531790e-002 1.272817e-001 9.915434e-001
      outer loop
         vertex -1.234805e+002 -4.816312e+002 -2.496061e+001
         vertex -1.311098e+002 -4.801136e+002 -2.496061e+001
         vertex -1.239546e+002 -4.840145e+002 -2.447724e+001
      endloop
   endfacet
   facet normal 5.063580e-002 2.545633e-001 9.657295e-001
      outer loop
         vertex -1.239546e+002 -4.840145e+002 -2.447724e+001
         vertex -1.311098e+002 -4.801136e+002 -2.496061e+001
         vertex -1.315838e+002 -4.824969e+002 -2.447724e+001
      endloop
   endfacet
   facet normal 9.741718e-002 4.897492e-001 8.664038e-001
      outer loop
         vertex -1.239546e+002 -4.840145e+002 -2.447724e+001
         vertex -1.315838e+002 -4.824969e+002 -2.447724e+001
         vertex -1.243564e+002 -4.860350e+002 -2.310073e+001
      endloop
   endfacet
   facet normal 1.188807e-001 5.976534e-001 7.928920e-001
      outer loop
         vertex -1.243564e+002 -4.860350e+002 -2.310073e+001
         vertex -1.315838e+002 -4.824969e+002 -2.447724e+001
         vertex -1.319857e+002 -4.845175e+002 -2.310073e+001
      endloop
   endfacet
   facet normal 1.546856e-001 7.776569e-001 6.093621e-001
      outer loop
         vertex -1.243564e+002 -4.860350e+002 -2.310073e+001
         vertex -1.319857e+002 -4.845175e+002 -2.310073e+001
         vertex -1.246250e+002 -4.873851e+002 -2.104064e+001
      endloop
   endfacet
   facet normal 1.690270e-001 8.497561e-001 4.993439e-001
      outer loop
         vertex -1.246250e+002 -4.873851e+002 -2.104064e+001
         vertex -1.319857e+002 -4.845175e+002 -2.310073e+001
         vertex -1.322543e+002 -4.858675e+002 -2.104064e+001
      endloop
   endfacet
   facet normal 1.884045e-001 9.471733e-001 2.595505e-001
      outer loop
         vertex -1.246250e+002 -4.873851e+002 -2.104064e+001
         vertex -1.322543e+002 -4.858675e+002 -2.104064e+001
         vertex -1.247193e+002 -4.878591e+002 -1.861060e+001
      endloop
   endfacet
   facet normal 1.934405e-001 9.724912e-001 1.297753e-001
      outer loop
         vertex -1.247193e+002 -4.878591e+002 -1.861060e+001
         vertex -1.322543e+002 -4.858675e+002 -2.104064e+001
         vertex -1.323486e+002 -4.863416e+002 -1.861060e+001
      endloop
   endfacet
   facet normal 2.531790e-002 1.272817e-001 9.915434e-001
      outer loop
         vertex -6.260190e+001 -4.937407e+002 -2.496061e+001
         vertex -7.023119e+001 -4.922231e+002 -2.496061e+001
         vertex -6.307597e+001 -4.961240e+002 -2.447724e+001
      endloop
   endfacet
   facet normal 5.063580e-002 2.545633e-001 9.657295e-001
      outer loop
         vertex -6.307597e+001 -4.961240e+002 -2.447724e+001
         vertex -7.023119e+001 -4.922231e+002 -2.496061e+001
         vertex -7.070525e+001 -4.946064e+002 -2.447724e+001
      endloop
   endfacet
   facet normal 9.741718e-002 4.897492e-001 8.664038e-001
      outer loop
         vertex -6.307597e+001 -4.961240e+002 -2.447724e+001
         vertex -7.070525e+001 -4.946064e+002 -2.447724e+001
         vertex -6.347788e+001 -4.981445e+002 -2.310073e+001
      endloop
   endfacet
   facet normal 1.188807e-001 5.976534e-001 7.928920e-001
      outer loop
         vertex -6.347788e+001 -4.981445e+002 -2.310073e+001
         vertex -7.070525e+001 -4.946064e+002 -2.447724e+001
         vertex -7.110716e+001 -4.966270e+002 -2.310073e+001
      endloop
   endfacet
   facet normal 1.546856e-001 7.776569e-001 6.093621e-001
      outer loop
         vertex -6.347788e+001 -4.981445e+002 -2.310073e+001
         vertex -7.110716e+001 -4.966270e+002 -2.310073e+001
         vertex -6.374642e+001 -4.994946e+002 -2.104064e+001
      endloop
   endfacet
   facet normal 1.690270e-001 8.497561e-001 4.993439e-001
      outer loop
         vertex -6.374642e+001 -4.994946e+002 -2.104064e+001
         vertex -7.110716e+001 -4.966270e+002 -2.310073e+001
         vertex -7.137570e+001 -4.979770e+002 -2.104064e+001
      endloop
   endfacet
   facet normal 1.884045e-001 9.471733e-001 2.595505e-001
      outer loop
         vertex -6.374642e+001 -4.994946e+002 -2.104064e+001
         vertex -7.137570e+001 -4.979770e+002 -2.104064e+001
         vertex -6.384072e+001 -4.999687e+002 -1.861060e+001
      endloop
   endfacet
   facet normal 1.934405e-001 9.724912e-001 1.297753e-001
      outer loop
         vertex -6.384072e+001 -4.999687e+002 -1.861060e+001
         vertex -7.137570e+001 -4.979770e+002 -2.104064e+001
         vertex -7.147001e+001 -4.984511e+002 -1.861060e+001
      endloop
   endfacet
   facet normal -1.950904e-001 -9.807853e-001 -4.404410e-016
      outer loop
         vertex -1.108931e+002 -3.784776e+002 7.805395e+000
         vertex -1.108931e+002 -3.784776e+002 1.455395e+000
         vertex -4.238525e+001 -3.921047e+002 7.805395e+000
      endloop
   endfacet
   facet normal -1.950904e-001 -9.807853e-001 -4.404410e-016
      outer loop
         vertex -4.238525e+001 -3.921047e+002 7.805395e+000
         vertex -1.108931e+002 -3.784776e+002 1.455395e+000
         vertex -4.238525e+001 -3.921047e+002 1.455395e+000
      endloop
   endfacet
   facet normal -1.950904e-001 -9.807853e-001 -2.249493e-016
      outer loop
         vertex -7.900581e+001 -3.848204e+002 7.805395e+000
         vertex -7.900581e+001 -3.848204e+002 1.405379e+001
         vertex -1.108931e+002 -3.784776e+002 7.805395e+000
      endloop
   endfacet
   facet normal -1.950904e-001 -9.807853e-001 -2.249493e-016
      outer loop
         vertex -1.108931e+002 -3.784776e+002 7.805395e+000
         vertex -7.900581e+001 -3.848204e+002 1.405379e+001
         vertex -1.108931e+002 -3.784776e+002 1.405379e+001
      endloop
   endfacet
   facet normal 1.950904e-001 9.807853e-001 4.404410e-016
      outer loop
         vertex -6.407528e+001 -5.011478e+002 7.805395e+000
         vertex -9.801781e+001 -4.943962e+002 7.805395e+000
         vertex -6.407528e+001 -5.011478e+002 2.685539e+001
      endloop
   endfacet
   facet normal 1.950904e-001 9.807853e-001 4.404410e-016
      outer loop
         vertex -6.407528e+001 -5.011478e+002 2.685539e+001
         vertex -9.801781e+001 -4.943962e+002 7.805395e+000
         vertex -9.801781e+001 -4.943962e+002 2.685539e+001
      endloop
   endfacet
   facet normal 1.950904e-001 9.807853e-001 4.404410e-016
      outer loop
         vertex -1.325831e+002 -4.875208e+002 2.685539e+001
         vertex -9.864060e+001 -4.942723e+002 2.685539e+001
         vertex -1.325831e+002 -4.875208e+002 7.805395e+000
      endloop
   endfacet
   facet normal 1.950904e-001 9.807853e-001 4.404410e-016
      outer loop
         vertex -1.325831e+002 -4.875208e+002 7.805395e+000
         vertex -9.864060e+001 -4.942723e+002 2.685539e+001
         vertex -9.864060e+001 -4.942723e+002 7.805395e+000
      endloop
   endfacet
   facet normal 1.950904e-001 9.807853e-001 4.404410e-016
      outer loop
         vertex -5.964454e+001 -4.788730e+002 7.805395e+000
         vertex -5.964454e+001 -4.788730e+002 1.455395e+000
         vertex -1.281524e+002 -4.652460e+002 7.805395e+000
      endloop
   endfacet
   facet normal 1.950904e-001 9.807853e-001 4.404410e-016
      outer loop
         vertex -1.281524e+002 -4.652460e+002 7.805395e+000
         vertex -5.964454e+001 -4.788730e+002 1.455395e+000
         vertex -1.281524e+002 -4.652460e+002 1.455395e+000
      endloop
   endfacet
   facet normal 1.950904e-001 9.807853e-001 4.404410e-016
      outer loop
         vertex -9.153184e+001 -4.725302e+002 7.805395e+000
         vertex -9.153184e+001 -4.725302e+002 1.405379e+001
         vertex -5.964454e+001 -4.788730e+002 7.805395e+000
      endloop
   endfacet
   facet normal 1.950904e-001 9.807853e-001 4.404410e-016
      outer loop
         vertex -5.964454e+001 -4.788730e+002 7.805395e+000
         vertex -9.153184e+001 -4.725302e+002 1.405379e+001
         vertex -5.964454e+001 -4.788730e+002 1.405379e+001
      endloop
   endfacet
   facet normal 1.950904e-001 9.807853e-001 5.803116e-016
      outer loop
         vertex -9.626510e+001 -4.715887e+002 1.405379e+001
         vertex -9.626510e+001 -4.715887e+002 7.805395e+000
         vertex -1.281524e+002 -4.652460e+002 1.405379e+001
      endloop
   endfacet
   facet normal 1.950904e-001 9.807853e-001 5.803116e-016
      outer loop
         vertex -1.281524e+002 -4.652460e+002 1.405379e+001
         vertex -9.626510e+001 -4.715887e+002 7.805395e+000
         vertex -1.281524e+002 -4.652460e+002 7.805395e+000
      endloop
   endfacet
endsolid